<svg xmlns="http://www.w3.org/2000/svg" xmlns:svg="http://www.w3.org/2000/svg" id="svg8" width="55" height="55" version="1.1" viewBox="0 0 14.552 14.552"><defs id="defs2"><marker id="DotM" orient="auto" refX="0" refY="0" style="overflow:visible"><path id="path899" d="M -2.5,-1.0 C -2.5,1.7600000 -4.7400000,4.0 -7.5,4.0 C -10.260000,4.0 -12.5,1.7600000 -12.5,-1.0 C -12.5,-3.7600000 -10.260000,-6.0 -7.5,-6.0 C -4.7400000,-6.0 -2.5,-3.7600000 -2.5,-1.0 z" transform="scale(0.4) translate(7.4, 1)" style="fill-rule:evenodd;stroke:#000;stroke-width:1pt;stroke-opacity:1;fill:#000;fill-opacity:1"/></marker><marker id="Arrow2Mstart" orient="auto" refX="0" refY="0" style="overflow:visible"><path id="path859" d="M 8.7185878,4.0337352 L -2.2072895,0.016013256 L 8.7185884,-4.0017078 C 6.9730900,-1.6296469 6.9831476,1.6157441 8.7185878,4.0337352 z" transform="scale(0.6) translate(0,0)" style="fill-rule:evenodd;stroke-width:.625;stroke-linejoin:round;stroke:#000;stroke-opacity:1;fill:#000;fill-opacity:1"/></marker><marker id="Arrow2Lstart" orient="auto" refX="0" refY="0" style="overflow:visible"><path id="path853" d="M 8.7185878,4.0337352 L -2.2072895,0.016013256 L 8.7185884,-4.0017078 C 6.9730900,-1.6296469 6.9831476,1.6157441 8.7185878,4.0337352 z" transform="scale(1.1) translate(1,0)" style="fill-rule:evenodd;stroke-width:.625;stroke-linejoin:round;stroke:#000;stroke-opacity:1;fill:#000;fill-opacity:1"/></marker></defs><metadata id="metadata5"/><path style="fill:none;fill-opacity:1;stroke:#000;stroke-width:1.23481;stroke-linecap:round;stroke-miterlimit:4;stroke-dasharray:none" id="path833-3" d="M 1.698239,7.1969863 A 5.7164413,5.7164413 0 0 1 6.1632342,1.6192104 5.7164413,5.7164413 0 0 1 12.583188,4.7548076"/><path id="path1172" d="M 0.62728029,6.3274826 1.6780237,7.7588429 2.8959814,6.3894573" style="fill:none;stroke:#000;stroke-width:.79375001;stroke-linecap:butt;stroke-linejoin:miter;stroke-miterlimit:4;stroke-dasharray:none;stroke-opacity:1"/><path id="path833-3-7" d="M 12.853844,7.3550974 A 5.7164413,5.7164413 0 0 1 8.3888487,12.932873 5.7164413,5.7164413 0 0 1 1.9688954,9.7972761" style="fill:none;fill-opacity:1;stroke:#000;stroke-width:1.23481;stroke-linecap:round;stroke-miterlimit:4;stroke-dasharray:none"/><path style="fill:none;stroke:#000;stroke-width:.79375001;stroke-linecap:butt;stroke-linejoin:miter;stroke-miterlimit:4;stroke-dasharray:none;stroke-opacity:1" id="path1172-5" d="M 13.924803,8.2246011 12.874059,6.7932408 11.656101,8.1626264"/></svg>