<svg xmlns="http://www.w3.org/2000/svg" xmlns:svg="http://www.w3.org/2000/svg" width="1200" height="900" version="1.0"><g><path style="fill:none;stroke:#e4e4e4;stroke-width:3;stroke-miterlimit:4;stroke-dasharray:none;stroke-opacity:1" d="M 0,350 H 1200" transform="translate(0,75)"/><path d="M 0,325 H 1200" transform="translate(0,75)" style="fill:none;stroke:#e4e4e4;stroke-width:3;stroke-miterlimit:4;stroke-dasharray:none;stroke-opacity:1"/><path style="fill:none;stroke:#e4e4e4;stroke-width:3;stroke-miterlimit:4;stroke-dasharray:none;stroke-opacity:1" d="M 0,425 H 1200" transform="translate(0,75)"/><path d="M 0,400 H 1200" transform="translate(0,75)" style="fill:none;stroke:#e4e4e4;stroke-width:3;stroke-miterlimit:4;stroke-dasharray:none;stroke-opacity:1"/><path style="fill:none;stroke:#e4e4e4;stroke-width:3;stroke-miterlimit:4;stroke-dasharray:none;stroke-opacity:1" d="M 0,375 H 1200" transform="translate(0,75)"/><path d="M 0,500 H 1200" transform="translate(0,75)" style="fill:none;stroke:#e4e4e4;stroke-width:3;stroke-miterlimit:4;stroke-dasharray:none;stroke-opacity:1"/><path style="fill:none;stroke:#e4e4e4;stroke-width:3;stroke-miterlimit:4;stroke-dasharray:none;stroke-opacity:1" d="M 0,475 H 1200" transform="translate(0,75)"/><path d="M 0,450 H 1200" transform="translate(0,75)" style="fill:none;stroke:#e4e4e4;stroke-width:3;stroke-miterlimit:4;stroke-dasharray:none;stroke-opacity:1"/><path style="fill:none;stroke:#e4e4e4;stroke-width:3;stroke-miterlimit:4;stroke-dasharray:none;stroke-opacity:1" d="M 0,300 H 1200" transform="translate(0,75)"/><path d="M 0,275 H 1200" transform="translate(0,75)" style="fill:none;stroke:#e4e4e4;stroke-width:3;stroke-miterlimit:4;stroke-dasharray:none;stroke-opacity:1"/><path style="fill:none;stroke:#e4e4e4;stroke-width:3;stroke-miterlimit:4;stroke-dasharray:none;stroke-opacity:1" d="M 0,250 H 1200" transform="translate(0,75)"/></g><path style="fill:none;stroke:#282828;stroke-width:3;stroke-miterlimit:4;stroke-dasharray:none;stroke-opacity:1" d="M 0,424.99986 H 1200"/><path d="M 0,399.99987 H 1200" style="fill:none;stroke:#282828;stroke-width:3;stroke-miterlimit:4;stroke-dasharray:none;stroke-opacity:1"/><path d="M 0,474.99986 H 1200" style="fill:none;stroke:#282828;stroke-width:3;stroke-miterlimit:4;stroke-dasharray:none;stroke-opacity:1"/><path d="M 0,449.99986 H 1200" style="fill:none;stroke:#282828;stroke-width:3;stroke-miterlimit:4;stroke-dasharray:none;stroke-opacity:1"/><path style="fill:none;stroke:#282828;stroke-width:3;stroke-miterlimit:4;stroke-dasharray:none;stroke-opacity:1" d="M 0,499.99986 H 1200"/><rect width="20" height="10" x=".171" y="470" ry="0" style="fill:#fff;fill-opacity:1;stroke:none;stroke-width:1.74891;stroke-linecap:round;stroke-linejoin:round"/><text x="6.753" y="478.64" style="font-style:normal;font-variant:normal;font-weight:400;font-stretch:normal;font-size:10px;line-height:125%;font-family:sans-serif;-inkscape-font-specification:sans-serif;text-align:start;writing-mode:lr-tb;text-anchor:start;fill:#000;fill-opacity:1;stroke:none"><tspan id="tspan3220-9-3" x="6.753" y="478.64">A</tspan></text><rect style="fill:#fff;fill-opacity:1;stroke:none;stroke-width:1.74891;stroke-linecap:round;stroke-linejoin:round" width="20" height="10" x=".171" y="495.145" ry="0"/><text style="font-style:normal;font-variant:normal;font-weight:400;font-stretch:normal;font-size:10px;line-height:125%;font-family:sans-serif;-inkscape-font-specification:sans-serif;text-align:start;writing-mode:lr-tb;text-anchor:start;fill:#000;fill-opacity:1;stroke:none" x="7.095" y="503.785"><tspan id="tspan3220-2-2-2" x="7.095" y="503.785">F</tspan></text><rect width="20" height="10" x=".171" y="445.434" ry="0" style="fill:#fff;fill-opacity:1;stroke:none;stroke-width:1.74891;stroke-linecap:round;stroke-linejoin:round"/><text x="6.426" y="491.212" style="font-style:normal;font-variant:normal;font-weight:400;font-stretch:normal;font-size:10px;line-height:125%;font-family:sans-serif;-inkscape-font-specification:sans-serif;text-align:start;writing-mode:lr-tb;text-anchor:start;fill:#000;fill-opacity:1;stroke:none"><tspan id="tspan3220-2-1-2-9-1-2" x="6.426" y="491.212">G</tspan></text><g transform="scale(1.0149218,0.9852976)" style="font-style:normal;font-variant:normal;font-weight:400;font-stretch:normal;font-size:131.373px;line-height:190.022px;font-family:sans-serif;-inkscape-font-specification:sans-serif;letter-spacing:0;word-spacing:0;fill:#000;fill-opacity:1;stroke:none;stroke-width:.985298px;stroke-linecap:butt;stroke-linejoin:miter;stroke-opacity:1"><path style="font-size:131.373px;stroke-width:.985298px" id="path897" d="m 75.36225,464.15715 q 8.933364,0 14.319657,5.51766 5.386293,5.51767 5.386293,14.58241 0,9.85297 -6.437277,16.68437 -6.437277,6.70002 -15.76476,6.70002 -8.013753,0 -13.400046,-3.54707 -5.386294,-3.67845 -5.386294,-10.11572 0,-2.62746 2.233341,-4.8608 2.233341,-2.36472 5.123548,-2.36472 3.152952,0 5.25492,2.23334 2.233341,2.10197 2.233341,4.99218 0,1.97059 -2.101968,4.59805 -1.970595,2.49609 -1.970595,2.89021 0,1.18236 1.182357,1.83922 1.182357,0.52549 3.415698,0.52549 11.429451,0 11.429451,-19.57457 0,-5.25492 -0.525492,-8.40788 -0.525492,-3.28432 -1.839222,-4.59805 -1.31373,-1.31373 -2.496087,-1.57648 -1.182357,-0.39412 -3.547071,-0.39412 -3.809817,0 -6.437277,3.02158 -2.496087,3.02158 -4.992174,10.50984 -3.152953,-17.60398 -11.692198,-24.96087 v 50.05312 H 44.358221 V 404.38243 h 4.992174 v 50.18449 q 8.539245,-7.35689 11.692198,-24.8295 3.284325,13.40005 11.429451,13.40005 2.364714,0 3.547071,-0.26275 1.182357,-0.26275 2.496087,-1.57648 1.31373,-1.31373 1.839222,-4.46668 0.525492,-3.15295 0.525492,-8.53924 0,-19.70595 -11.429451,-19.70595 -4.598055,0 -4.598055,2.23334 0,0.52549 1.970595,3.15295 2.101968,2.49609 2.101968,4.46668 0,2.89021 -2.233341,5.12355 -2.101968,2.10197 -5.25492,2.10197 -2.890207,0 -5.123548,-2.23334 -2.233341,-2.36472 -2.233341,-4.99218 0,-6.43727 5.386294,-9.98435 5.386293,-3.67844 13.400046,-3.67844 9.327483,0 15.76476,6.8314 6.437277,6.70002 6.437277,16.68437 0,8.67062 -5.386293,14.31965 -5.25492,5.51767 -14.319657,5.51767 -4.598055,0 -9.19611,-1.70785 l -4.335309,9.7216 4.335309,9.85298 q 4.860801,-1.83922 9.19611,-1.83922 z M 39.49742,507.90436 H 26.491493 V 404.38243 H 39.49742 Z"/></g><rect style="fill:#fff;fill-opacity:1;stroke:none;stroke-width:1.74891;stroke-linecap:round;stroke-linejoin:round" width="20" height="10" x=".171" y="395.434" ry="0"/><text style="font-style:normal;font-variant:normal;font-weight:400;font-stretch:normal;font-size:10px;line-height:125%;font-family:sans-serif;-inkscape-font-specification:sans-serif;text-align:start;writing-mode:lr-tb;text-anchor:start;fill:#000;fill-opacity:1;stroke:none" x="6.426" y="404.074"><tspan id="tspan3220-2-6-4" x="6.426" y="404.074">G</tspan></text><rect style="fill:#fff;fill-opacity:1;stroke:none;stroke-width:1.74891;stroke-linecap:round;stroke-linejoin:round" width="20" height="10" x=".171" y="420.579" ry="0"/><text style="font-style:normal;font-variant:normal;font-weight:400;font-stretch:normal;font-size:10px;line-height:125%;font-family:sans-serif;-inkscape-font-specification:sans-serif;text-align:start;writing-mode:lr-tb;text-anchor:start;fill:#000;fill-opacity:1;stroke:none" x="6.841" y="429.219"><tspan id="tspan3220-2-1-6" x="6.841" y="429.219">E</tspan></text><text x="7.095" y="416.646" style="font-style:normal;font-variant:normal;font-weight:400;font-stretch:normal;font-size:10px;line-height:125%;font-family:sans-serif;-inkscape-font-specification:sans-serif;text-align:start;writing-mode:lr-tb;text-anchor:start;fill:#000;fill-opacity:1;stroke:none"><tspan id="tspan3220-2-1-2-0" x="7.095" y="416.646">F</tspan></text><rect style="fill:#fff;fill-opacity:1;stroke:none;stroke-width:1.74891;stroke-linecap:round;stroke-linejoin:round" width="20" height="10" x="1171.352" y="445.145" ry="1.5"/><rect width="20" height="10" x="1171.352" y="395.434" ry="1.5" style="fill:#fff;fill-opacity:1;stroke:none;stroke-width:1.74891;stroke-linecap:round;stroke-linejoin:round"/><text x="1174.936" y="404.074" style="font-style:normal;font-variant:normal;font-weight:400;font-stretch:normal;font-size:10px;line-height:125%;font-family:sans-serif;-inkscape-font-specification:sans-serif;text-align:start;writing-mode:lr-tb;text-anchor:start;fill:#000;fill-opacity:1;stroke:none"><tspan id="tspan3220-2-6" x="1174.936" y="404.074">50</tspan></text><rect width="20" height="10" x="1171.352" y="420.579" ry="1.5" style="fill:#fff;fill-opacity:1;stroke:none;stroke-width:1.74891;stroke-linecap:round;stroke-linejoin:round"/><text x="1175.061" y="429.219" style="font-style:normal;font-variant:normal;font-weight:400;font-stretch:normal;font-size:10px;line-height:125%;font-family:sans-serif;-inkscape-font-specification:sans-serif;text-align:start;writing-mode:lr-tb;text-anchor:start;fill:#000;fill-opacity:1;stroke:none"><tspan id="tspan3220-2-1" x="1175.061" y="429.219">25</tspan></text><text style="font-style:normal;font-variant:normal;font-weight:400;font-stretch:normal;font-size:10px;line-height:125%;font-family:sans-serif;-inkscape-font-specification:sans-serif;text-align:start;writing-mode:lr-tb;text-anchor:start;fill:#000;fill-opacity:1;stroke:none" x="1170.276" y="416.646"><tspan id="tspan3220-2-1-2" x="1170.276" y="416.646">37.5</tspan></text><rect style="fill:#fff;fill-opacity:1;stroke:none;stroke-width:1.95534;stroke-linecap:round;stroke-linejoin:round" width="25" height="10" x="1168.852" y="468.342" ry="1.5"/><text style="font-style:normal;font-variant:normal;font-weight:400;font-stretch:normal;font-size:10px;line-height:125%;font-family:sans-serif;-inkscape-font-specification:sans-serif;text-align:start;writing-mode:lr-tb;text-anchor:start;fill:#000;fill-opacity:1;stroke:none" x="1173.379" y="476.982"><tspan id="tspan3220-3" x="1173.379" y="476.982">-25</tspan></text><rect width="25" height="10" x="1168.852" y="493.487" ry="1.5" style="fill:#fff;fill-opacity:1;stroke:none;stroke-width:1.95534;stroke-linecap:round;stroke-linejoin:round"/><text x="1173.274" y="502.127" style="font-style:normal;font-variant:normal;font-weight:400;font-stretch:normal;font-size:10px;line-height:125%;font-family:sans-serif;-inkscape-font-specification:sans-serif;text-align:start;writing-mode:lr-tb;text-anchor:start;fill:#000;fill-opacity:1;stroke:none"><tspan id="tspan3220-2-12" x="1173.274" y="502.127">-50</tspan></text><text style="font-style:normal;font-variant:normal;font-weight:400;font-stretch:normal;font-size:10px;line-height:125%;font-family:sans-serif;-inkscape-font-specification:sans-serif;text-align:start;writing-mode:lr-tb;text-anchor:start;fill:#000;fill-opacity:1;stroke:none" x="1168.608" y="489.554"><tspan id="tspan3220-2-1-2-9-2" x="1168.608" y="489.554">-37.5</tspan></text><rect style="fill:#fff;fill-opacity:1;stroke:none;stroke-width:1.74891;stroke-linecap:round;stroke-linejoin:round" width="20" height="10" x=".171" y="433" ry="0"/><text style="font-style:normal;font-variant:normal;font-weight:400;font-stretch:normal;font-size:10px;line-height:125%;font-family:sans-serif;-inkscape-font-specification:sans-serif;text-align:start;writing-mode:lr-tb;text-anchor:start;fill:#000;fill-opacity:1;stroke:none" x="6.125" y="441.64"><tspan id="tspan3220-9-3-5" x="6.125" y="441.64">D</tspan></text><rect width="20" height="10" x=".171" y="458.145" ry="0" style="fill:#fff;fill-opacity:1;stroke:none;stroke-width:1.74891;stroke-linecap:round;stroke-linejoin:round"/><text x="6.604" y="466.785" style="font-style:normal;font-variant:normal;font-weight:400;font-stretch:normal;font-size:10px;line-height:125%;font-family:sans-serif;-inkscape-font-specification:sans-serif;text-align:start;writing-mode:lr-tb;text-anchor:start;fill:#000;fill-opacity:1;stroke:none"><tspan id="tspan3220-2-2-2-7" x="6.604" y="466.785">B</tspan></text><text style="font-style:normal;font-variant:normal;font-weight:400;font-stretch:normal;font-size:10px;line-height:125%;font-family:sans-serif;-inkscape-font-specification:sans-serif;text-align:start;writing-mode:lr-tb;text-anchor:start;fill:#000;fill-opacity:1;stroke:none" x="6.67" y="454.212"><tspan id="tspan3220-2-1-2-9-1-2-7" x="6.67" y="454.212">C</tspan></text><text x="1170.107" y="441.16" style="font-style:normal;font-variant:normal;font-weight:400;font-stretch:normal;font-size:10px;line-height:125%;font-family:sans-serif;-inkscape-font-specification:sans-serif;text-align:start;writing-mode:lr-tb;text-anchor:start;fill:#000;fill-opacity:1;stroke:none"><tspan id="tspan3220-2-1-2-6" x="1170.107" y="441.16">12.5</tspan></text><text style="font-style:normal;font-variant:normal;font-weight:400;font-stretch:normal;font-size:10px;line-height:125%;font-family:sans-serif;-inkscape-font-specification:sans-serif;text-align:start;writing-mode:lr-tb;text-anchor:start;fill:#000;fill-opacity:1;stroke:none" x="1178.174" y="453.1"><tspan id="tspan3220-2-6-43" x="1178.174" y="453.1">0</tspan></text><text style="font-style:normal;font-variant:normal;font-weight:400;font-stretch:normal;font-size:10px;line-height:125%;font-family:sans-serif;-inkscape-font-specification:sans-serif;text-align:start;writing-mode:lr-tb;text-anchor:start;fill:#000;fill-opacity:1;stroke:none" x="1168.608" y="465.041"><tspan id="tspan3220-2-1-2-2-4" x="1168.608" y="465.041">-12.5</tspan></text></svg>