<svg xmlns="http://www.w3.org/2000/svg" xmlns:svg="http://www.w3.org/2000/svg" width="1200" height="900" version="1.0"><g><path d="M 0,350 H 1200" transform="translate(0,150)" style="fill:none;stroke:#e4e4e4;stroke-width:3;stroke-miterlimit:4;stroke-dasharray:none;stroke-opacity:1"/><path style="fill:none;stroke:#e4e4e4;stroke-width:3;stroke-miterlimit:4;stroke-dasharray:none;stroke-opacity:1" d="M 0,325 H 1200" transform="translate(0,150)"/><path d="M 0,425 H 1200" transform="translate(0,150)" style="fill:none;stroke:#e4e4e4;stroke-width:3;stroke-miterlimit:4;stroke-dasharray:none;stroke-opacity:1"/><path style="fill:none;stroke:#e4e4e4;stroke-width:3;stroke-miterlimit:4;stroke-dasharray:none;stroke-opacity:1" d="M 0,400 H 1200" transform="translate(0,150)"/><path d="M 0,375 H 1200" transform="translate(0,150)" style="fill:none;stroke:#e4e4e4;stroke-width:3;stroke-miterlimit:4;stroke-dasharray:none;stroke-opacity:1"/><path style="fill:none;stroke:#e4e4e4;stroke-width:3;stroke-miterlimit:4;stroke-dasharray:none;stroke-opacity:1" d="M 0,500 H 1200" transform="translate(0,150)"/><path d="M 0,475 H 1200" transform="translate(0,150)" style="fill:none;stroke:#e4e4e4;stroke-width:3;stroke-miterlimit:4;stroke-dasharray:none;stroke-opacity:1"/><path style="fill:none;stroke:#e4e4e4;stroke-width:3;stroke-miterlimit:4;stroke-dasharray:none;stroke-opacity:1" d="M 0,450 H 1200" transform="translate(0,150)"/><path d="M 0,300 H 1200" transform="translate(0,150)" style="fill:none;stroke:#e4e4e4;stroke-width:3;stroke-miterlimit:4;stroke-dasharray:none;stroke-opacity:1"/><path style="fill:none;stroke:#e4e4e4;stroke-width:3;stroke-miterlimit:4;stroke-dasharray:none;stroke-opacity:1" d="M 0,275 H 1200" transform="translate(0,150)"/><path d="M 0,250 H 1200" transform="translate(0,150)" style="fill:none;stroke:#e4e4e4;stroke-width:3;stroke-miterlimit:4;stroke-dasharray:none;stroke-opacity:1"/></g><path style="fill:none;stroke:#282828;stroke-width:3;stroke-miterlimit:4;stroke-dasharray:none;stroke-opacity:1" d="M 0,474.99987 H 1200"/><path style="fill:none;stroke:#282828;stroke-width:3;stroke-miterlimit:4;stroke-dasharray:none;stroke-opacity:1" d="M 0,574.99987 H 1200"/><path d="M 0,524.99986 H 1200" style="fill:none;stroke:#282828;stroke-width:3;stroke-miterlimit:4;stroke-dasharray:none;stroke-opacity:1"/><path d="M 0,499.99987 H 1200" style="fill:none;stroke:#282828;stroke-width:3;stroke-miterlimit:4;stroke-dasharray:none;stroke-opacity:1"/><path d="M 0,549.99988 H 1200" style="fill:none;stroke:#282828;stroke-width:3;stroke-miterlimit:4;stroke-dasharray:none;stroke-opacity:1"/><rect style="fill:#fff;fill-opacity:1;stroke:none;stroke-width:1.74891;stroke-linecap:round;stroke-linejoin:round" width="20" height="10" x=".171" y="470" ry="0"/><text style="font-style:normal;font-variant:normal;font-weight:400;font-stretch:normal;font-size:10px;line-height:125%;font-family:sans-serif;-inkscape-font-specification:sans-serif;text-align:start;writing-mode:lr-tb;text-anchor:start;fill:#000;fill-opacity:1;stroke:none" x="6.753" y="478.64"><tspan x="6.753" y="478.64">A</tspan></text><rect width="20" height="10" x=".171" y="495.145" ry="0" style="fill:#fff;fill-opacity:1;stroke:none;stroke-width:1.74891;stroke-linecap:round;stroke-linejoin:round"/><text x="7.095" y="503.785" style="font-style:normal;font-variant:normal;font-weight:400;font-stretch:normal;font-size:10px;line-height:125%;font-family:sans-serif;-inkscape-font-specification:sans-serif;text-align:start;writing-mode:lr-tb;text-anchor:start;fill:#000;fill-opacity:1;stroke:none"><tspan x="7.095" y="503.785">F</tspan></text><rect style="fill:#fff;fill-opacity:1;stroke:none;stroke-width:1.74891;stroke-linecap:round;stroke-linejoin:round" width="20" height="10" x=".171" y="520.289" ry="0"/><text style="font-style:normal;font-variant:normal;font-weight:400;font-stretch:normal;font-size:10px;line-height:125%;font-family:sans-serif;-inkscape-font-specification:sans-serif;text-align:start;writing-mode:lr-tb;text-anchor:start;fill:#000;fill-opacity:1;stroke:none" x="6.125" y="528.929"><tspan x="6.125" y="528.929">D</tspan></text><rect style="fill:#fff;fill-opacity:1;stroke:none;stroke-width:1.74891;stroke-linecap:round;stroke-linejoin:round" width="20" height="10" x=".171" y="545.434" ry="0"/><text style="font-style:normal;font-variant:normal;font-weight:400;font-stretch:normal;font-size:10px;line-height:125%;font-family:sans-serif;-inkscape-font-specification:sans-serif;text-align:start;writing-mode:lr-tb;text-anchor:start;fill:#000;fill-opacity:1;stroke:none" x="6.604" y="554.074"><tspan x="6.604" y="554.074">B</tspan></text><rect style="fill:#fff;fill-opacity:1;stroke:none;stroke-width:1.74891;stroke-linecap:round;stroke-linejoin:round" width="20" height="10" x=".171" y="570.579" ry="0"/><text style="font-style:normal;font-variant:normal;font-weight:400;font-stretch:normal;font-size:10px;line-height:125%;font-family:sans-serif;-inkscape-font-specification:sans-serif;text-align:start;writing-mode:lr-tb;text-anchor:start;fill:#000;fill-opacity:1;stroke:none" x="6.426" y="579.219"><tspan x="6.426" y="579.219">G</tspan></text><text x="6.753" y="566.646" style="font-style:normal;font-variant:normal;font-weight:400;font-stretch:normal;font-size:10px;line-height:125%;font-family:sans-serif;-inkscape-font-specification:sans-serif;text-align:start;writing-mode:lr-tb;text-anchor:start;fill:#000;fill-opacity:1;stroke:none"><tspan x="6.753" y="566.646">A</tspan></text><text style="font-style:normal;font-variant:normal;font-weight:400;font-stretch:normal;font-size:10px;line-height:125%;font-family:sans-serif;-inkscape-font-specification:sans-serif;text-align:start;writing-mode:lr-tb;text-anchor:start;fill:#000;fill-opacity:1;stroke:none" x="6.67" y="541.502"><tspan x="6.67" y="541.502">C</tspan></text><text style="font-style:normal;font-variant:normal;font-weight:400;font-stretch:normal;font-size:10px;line-height:125%;font-family:sans-serif;-inkscape-font-specification:sans-serif;text-align:start;writing-mode:lr-tb;text-anchor:start;fill:#000;fill-opacity:1;stroke:none" x="6.841" y="516.357"><tspan x="6.841" y="516.357">E</tspan></text><text style="font-style:normal;font-variant:normal;font-weight:400;font-stretch:normal;font-size:10px;line-height:125%;font-family:sans-serif;-inkscape-font-specification:sans-serif;text-align:start;writing-mode:lr-tb;text-anchor:start;fill:#000;fill-opacity:1;stroke:none" x="6.426" y="491.212"><tspan x="6.426" y="491.212">G</tspan></text><g style="font-style:normal;font-variant:normal;font-weight:400;font-stretch:normal;font-size:149.333px;line-height:216px;font-family:sans-serif;-inkscape-font-specification:sans-serif;letter-spacing:0;word-spacing:0;fill:#000;fill-opacity:1;stroke:none;stroke-width:1px;stroke-linecap:butt;stroke-linejoin:miter;stroke-opacity:1"><path d="m 96.338834,481.17328 q 2.687994,0 4.479986,1.94133 1.94133,1.94133 1.94133,4.47999 0,2.53866 -2.09066,4.47999 -2.090661,1.94133 -4.479989,1.94133 -6.271985,0 -6.271985,-6.71998 0,-2.688 1.941328,-4.33066 1.941329,-1.792 4.47999,-1.792 z m -4.629322,30.7626 q 1.941328,-1.94133 4.629322,-1.94133 2.687994,0 4.479986,2.09066 1.94133,2.09067 1.94133,4.18133 0,2.83732 -1.94133,4.77865 -1.941325,1.94133 -4.479986,1.94133 -6.421318,0 -6.421318,-6.71998 0,-2.38933 1.791996,-4.33066 z M 54.674929,473.25864 q 12.095973,0 20.309287,8.36264 8.213315,8.21332 8.213315,19.71196 0,5.67465 -1.642663,11.05064 -1.49333,5.37599 -4.927989,10.30398 -3.434659,4.77865 -6.869317,8.81064 -3.434659,4.03199 -8.95998,8.06398 -5.525321,4.032 -9.258645,6.86932 -3.733325,2.688 -10.154644,6.12265 -6.271986,3.43466 -9.109313,4.92799 -2.687993,1.344 -8.213314,4.03199 l -0.746665,-2.38932 q 0.149333,-0.14934 4.031991,-2.688 3.882658,-2.53866 6.271985,-4.03199 2.389328,-1.64266 7.018651,-5.37599 4.778656,-3.73332 7.914649,-6.86931 3.135993,-3.28533 7.01865,-8.06399 4.031991,-4.92798 6.421319,-9.55731 2.389328,-4.62932 4.031991,-10.60264 1.791996,-5.97332 1.791996,-11.94664 0,-23.44528 -16.575962,-23.44528 -5.525321,0 -9.407979,1.49333 -3.882658,1.344 -5.674654,3.43466 -1.642663,2.09066 -2.389328,3.73332 -0.746665,1.49333 -0.746665,2.688 0,2.23999 2.98666,2.23999 1.194664,0 2.837327,-0.448 1.642663,-0.59733 2.239995,-0.59733 4.031991,0 6.719985,2.53866 2.687994,2.53866 2.687994,6.27199 0,4.33066 -3.285326,7.16798 -3.285326,2.83733 -7.765316,2.83733 -5.823987,0 -9.557311,-3.43466 -3.733325,-3.43466 -3.733325,-8.81065 0,-9.85597 8.362647,-16.12796 8.511981,-6.27198 20.159954,-6.27198 z" style="font-size:149.333px"/></g><rect width="25" height="10" x="1168.852" y="468.342" ry="1.5" style="fill:#fff;fill-opacity:1;stroke:none;stroke-width:1.95534;stroke-linecap:round;stroke-linejoin:round"/><text x="1173.379" y="476.982" style="font-style:normal;font-variant:normal;font-weight:400;font-stretch:normal;font-size:10px;line-height:125%;font-family:sans-serif;-inkscape-font-specification:sans-serif;text-align:start;writing-mode:lr-tb;text-anchor:start;fill:#000;fill-opacity:1;stroke:none"><tspan x="1173.379" y="476.982">-25</tspan></text><rect style="fill:#fff;fill-opacity:1;stroke:none;stroke-width:1.95534;stroke-linecap:round;stroke-linejoin:round" width="25" height="10" x="1168.852" y="493.487" ry="1.5"/><text style="font-style:normal;font-variant:normal;font-weight:400;font-stretch:normal;font-size:10px;line-height:125%;font-family:sans-serif;-inkscape-font-specification:sans-serif;text-align:start;writing-mode:lr-tb;text-anchor:start;fill:#000;fill-opacity:1;stroke:none" x="1173.274" y="502.127"><tspan x="1173.274" y="502.127">-50</tspan></text><rect width="25" height="10" x="1168.852" y="518.631" ry="1.5" style="fill:#fff;fill-opacity:1;stroke:none;stroke-width:1.95534;stroke-linecap:round;stroke-linejoin:round"/><text x="1173.379" y="527.272" style="font-style:normal;font-variant:normal;font-weight:400;font-stretch:normal;font-size:10px;line-height:125%;font-family:sans-serif;-inkscape-font-specification:sans-serif;text-align:start;writing-mode:lr-tb;text-anchor:start;fill:#000;fill-opacity:1;stroke:none"><tspan x="1173.379" y="527.272">-75</tspan></text><rect width="25" height="10" x="1168.852" y="543.776" ry="1.5" style="fill:#fff;fill-opacity:1;stroke:none;stroke-width:1.95534;stroke-linecap:round;stroke-linejoin:round"/><text x="1170.093" y="552.416" style="font-style:normal;font-variant:normal;font-weight:400;font-stretch:normal;font-size:10px;line-height:125%;font-family:sans-serif;-inkscape-font-specification:sans-serif;text-align:start;writing-mode:lr-tb;text-anchor:start;fill:#000;fill-opacity:1;stroke:none"><tspan x="1170.093" y="552.416">-100</tspan></text><rect width="25" height="10" x="1168.852" y="568.921" ry="1.5" style="fill:#fff;fill-opacity:1;stroke:none;stroke-width:1.95534;stroke-linecap:round;stroke-linejoin:round"/><text x="1170.198" y="577.561" style="font-style:normal;font-variant:normal;font-weight:400;font-stretch:normal;font-size:10px;line-height:125%;font-family:sans-serif;-inkscape-font-specification:sans-serif;text-align:start;writing-mode:lr-tb;text-anchor:start;fill:#000;fill-opacity:1;stroke:none"><tspan x="1170.198" y="577.561">-125</tspan></text><text style="font-style:normal;font-variant:normal;font-weight:400;font-stretch:normal;font-size:10px;line-height:125%;font-family:sans-serif;-inkscape-font-specification:sans-serif;text-align:start;writing-mode:lr-tb;text-anchor:start;fill:#000;fill-opacity:1;stroke:none" x="1165.427" y="564.989"><tspan x="1165.427" y="564.989">-112.5</tspan></text><text x="1168.608" y="539.844" style="font-style:normal;font-variant:normal;font-weight:400;font-stretch:normal;font-size:10px;line-height:125%;font-family:sans-serif;-inkscape-font-specification:sans-serif;text-align:start;writing-mode:lr-tb;text-anchor:start;fill:#000;fill-opacity:1;stroke:none"><tspan x="1168.608" y="539.844">-87.5</tspan></text><text x="1168.608" y="514.699" style="font-style:normal;font-variant:normal;font-weight:400;font-stretch:normal;font-size:10px;line-height:125%;font-family:sans-serif;-inkscape-font-specification:sans-serif;text-align:start;writing-mode:lr-tb;text-anchor:start;fill:#000;fill-opacity:1;stroke:none"><tspan x="1168.608" y="514.699">-62.5</tspan></text><text x="1168.608" y="489.555" style="font-style:normal;font-variant:normal;font-weight:400;font-stretch:normal;font-size:10px;line-height:125%;font-family:sans-serif;-inkscape-font-specification:sans-serif;text-align:start;writing-mode:lr-tb;text-anchor:start;fill:#000;fill-opacity:1;stroke:none"><tspan x="1168.608" y="489.555">-37.5</tspan></text></svg>