<svg xmlns="http://www.w3.org/2000/svg" xmlns:svg="http://www.w3.org/2000/svg" id="svg520" width="249.5" height="63.5" version="1.1"><metadata id="metadata526"/><g id="g3491" transform="translate(-664,-327)"><g id="g498" transform="translate(664,327)"><g id="g496" transform="scale(1.5)"><path style="fill:#d98a43;fill-opacity:1;stroke:#b7651a;stroke-width:1;stroke-linecap:round;stroke-opacity:1" id="path482" d="m 8.5,8.5 v -4 a 4,4 90 0 1 4,-4 h 4 10 40.585937 4 a 4,4 90 0 1 4,4 v 4 h -4 v -3 h -4 v 10 h 4 v -3 h 4 v 17 h -4 v -3 h -4 v 10 h 4 v -3 h 4 v 4 a 4,4 90 0 1 -4,4 h -4 H 26.5 h -10 -4 a 4,4 90 0 1 -4,-4 v -4 -21 -1 h -6 v 3 h -2 v -8 h 2 v 3 h 6 z"/><text style="font-size:10px;font-family:sans-serif;text-anchor:end;fill:#282828" id="text486"><tspan id="tspan484" x="65" y="23">get value</tspan></text><text style="font-size:6.66667px;font-family:sans-serif;text-anchor:end;fill:#282828" id="text490"><tspan id="tspan488" x="65" y="12">name</tspan></text><text style="font-size:6.66667px;font-family:sans-serif;text-anchor:end;fill:#282828" id="text494"><tspan id="tspan492" x="65" y="33">key</tspan></text></g></g><g id="g508" transform="translate(765,359)"><g id="g506" transform="scale(1.5)"><path style="fill:#ff664b;fill-opacity:1;stroke:#ea4326;stroke-width:1;stroke-linecap:round;stroke-opacity:1" id="path500" d="m 8.5,0.5 h 90 v 20 h -90 v -8 -1 h -6 v 3 h -2 v -8 h 2 v 3 h 6 v -1 z"/><text style="font-size:10px;font-family:sans-serif;text-anchor:start;fill:#282828" id="text504"><tspan id="tspan502" x="13" y="14">key</tspan></text></g></g><g id="g518" transform="translate(765,327)"><g id="g516" transform="scale(1.5)"><path style="fill:#92a9ff;fill-opacity:1;stroke:#5370dc;stroke-width:1;stroke-linecap:round;stroke-opacity:1" id="path510" d="m 8.5,0.5 h 87.807617 v 20 H 8.5 v -8 -1 h -6 v 3 h -2 v -8 h 2 v 3 h 6 v -1 z"/><text style="font-size:10px;font-family:sans-serif;text-anchor:start;fill:#282828" id="text514"><tspan id="tspan512" x="13" y="14">mouse name</tspan></text></g></g></g></svg>