<svg xmlns="http://www.w3.org/2000/svg" xmlns:svg="http://www.w3.org/2000/svg" id="svg1357" width="250.5" height="324.446" version="1.1" viewBox="0 0 66.278 85.843"><metadata id="metadata1354"/><g id="layer1" transform="translate(-72.694271,-128.25677)"><g id="g1960" transform="matrix(0.26458333,0,0,0.26458333,-24.407811,86.359684)"><g id="g180" transform="translate(368,234)"><g id="g178" transform="scale(1.5)"><path style="fill:#d98a43;fill-opacity:1;stroke:#b7651a;stroke-width:1;stroke-linecap:round;stroke-opacity:1" id="path164" d="m 8.5,8.5 v -4 a 4,4 90 0 1 4,-4 h 4 10 40.585937 4 a 4,4 90 0 1 4,4 v 4 h -4 v -3 h -4 v 10 h 4 v -3 h 4 v 17 h -4 v -3 h -4 v 10 h 4 v -3 h 4 v 4 a 4,4 90 0 1 -4,4 h -4 H 26.5 h -10 -4 a 4,4 90 0 1 -4,-4 v -4 -21 -1 h -6 v 3 h -2 v -8 h 2 v 3 h 6 z"/><text style="font-size:10px;font-family:sans-serif;text-anchor:end;fill:#282828" id="text168"><tspan id="tspan166" x="65" y="23">get value</tspan></text><text style="font-size:6.66667px;font-family:sans-serif;text-anchor:end;fill:#282828" id="text172"><tspan id="tspan170" x="65" y="12">name</tspan></text><text style="font-size:6.66667px;font-family:sans-serif;text-anchor:end;fill:#282828" id="text176"><tspan id="tspan174" x="65" y="33">key</tspan></text></g></g><g id="g190" transform="translate(469,234)"><g id="g188" transform="scale(1.5)"><path style="fill:#92a9ff;fill-opacity:1;stroke:#5370dc;stroke-width:1;stroke-linecap:round;stroke-opacity:1" id="path182" d="m 8.5,0.5 h 87.807617 v 20 H 8.5 v -8 -1 h -6 v 3 h -2 v -8 h 2 v 3 h 6 v -1 z"/><text style="font-size:10px;font-family:sans-serif;text-anchor:start;fill:#282828" id="text186"><tspan id="tspan184" x="13" y="14">mouse name</tspan></text></g></g><g id="g200" transform="translate(469,266)"><g id="g198" transform="scale(1.5)"><path style="fill:#ff664b;fill-opacity:1;stroke:#ea4326;stroke-width:1;stroke-linecap:round;stroke-opacity:1" id="path192" d="m 8.5,0.5 h 90 v 20 h -90 v -8 -1 h -6 v 3 h -2 v -8 h 2 v 3 h 6 v -1 z"/><text style="font-size:10px;font-family:sans-serif;text-anchor:start;fill:#282828" id="text196"><tspan id="tspan194" x="13" y="14">y</tspan></text></g></g></g><g id="g1939" transform="matrix(0.26458333,0,0,0.26458333,-24.407811,89.363021)"><g id="g218" transform="translate(367,147)"><g id="g216" transform="scale(1.5)"><path style="fill:#d98a43;fill-opacity:1;stroke:#b7651a;stroke-width:1;stroke-linecap:round;stroke-opacity:1" id="path202" d="m 8.5,8.5 v -4 a 4,4 90 0 1 4,-4 h 4 10 40.585937 4 a 4,4 90 0 1 4,4 v 4 h -4 v -3 h -4 v 10 h 4 v -3 h 4 v 17 h -4 v -3 h -4 v 10 h 4 v -3 h 4 v 4 a 4,4 90 0 1 -4,4 h -4 H 26.5 h -10 -4 a 4,4 90 0 1 -4,-4 v -4 -21 -1 h -6 v 3 h -2 v -8 h 2 v 3 h 6 z"/><text style="font-size:10px;font-family:sans-serif;text-anchor:end;fill:#282828" id="text206"><tspan id="tspan204" x="65" y="23">get value</tspan></text><text style="font-size:6.66667px;font-family:sans-serif;text-anchor:end;fill:#282828" id="text210"><tspan id="tspan208" x="65" y="12">name</tspan></text><text style="font-size:6.66667px;font-family:sans-serif;text-anchor:end;fill:#282828" id="text214"><tspan id="tspan212" x="65" y="33">key</tspan></text></g></g><g id="g228" transform="translate(468,147)"><g id="g226" transform="scale(1.5)"><path style="fill:#92a9ff;fill-opacity:1;stroke:#5370dc;stroke-width:1;stroke-linecap:round;stroke-opacity:1" id="path220" d="m 8.5,0.5 h 87.807617 v 20 H 8.5 v -8 -1 h -6 v 3 h -2 v -8 h 2 v 3 h 6 v -1 z"/><text style="font-size:10px;font-family:sans-serif;text-anchor:start;fill:#282828" id="text224"><tspan id="tspan222" x="13" y="14">mouse name</tspan></text></g></g><g id="g238" transform="translate(468,179)"><g id="g236" transform="scale(1.5)"><path style="fill:#ff664b;fill-opacity:1;stroke:#ea4326;stroke-width:1;stroke-linecap:round;stroke-opacity:1" id="path230" d="m 8.5,0.5 h 90 v 20 h -90 v -8 -1 h -6 v 3 h -2 v -8 h 2 v 3 h 6 v -1 z"/><text style="font-size:10px;font-family:sans-serif;text-anchor:start;fill:#282828" id="text234"><tspan id="tspan232" x="13" y="14">x</tspan></text></g></g></g><g id="g2113" transform="matrix(0.26458333,0,0,0.26458333,-173.63281,158.23343)"><g id="g408" transform="translate(932,38)"><g id="g406" transform="scale(1.5)"><path style="fill:#d98a43;fill-opacity:1;stroke:#b7651a;stroke-width:1;stroke-linecap:round;stroke-opacity:1" id="path392" d="m 8.5,8.5 v -4 a 4,4 90 0 1 4,-4 h 4 10 40.585937 4 a 4,4 90 0 1 4,4 v 4 h -4 v -3 h -4 v 10 h 4 v -3 h 4 v 17 h -4 v -3 h -4 v 10 h 4 v -3 h 4 v 4 a 4,4 90 0 1 -4,4 h -4 H 26.5 h -10 -4 a 4,4 90 0 1 -4,-4 v -4 -21 -1 h -6 v 3 h -2 v -8 h 2 v 3 h 6 z"/><text style="font-size:10px;font-family:sans-serif;text-anchor:end;fill:#282828" id="text396"><tspan id="tspan394" x="65" y="23">get value</tspan></text><text style="font-size:6.66667px;font-family:sans-serif;text-anchor:end;fill:#282828" id="text400"><tspan id="tspan398" x="65" y="12">name</tspan></text><text style="font-size:6.66667px;font-family:sans-serif;text-anchor:end;fill:#282828" id="text404"><tspan id="tspan402" x="65" y="33">key</tspan></text></g></g><g id="g418" transform="translate(1033,38)"><g id="g416" transform="scale(1.5)"><path style="fill:#92a9ff;fill-opacity:1;stroke:#5370dc;stroke-width:1;stroke-linecap:round;stroke-opacity:1" id="path410" d="m 8.5,0.5 h 87.807617 v 20 H 8.5 v -8 -1 h -6 v 3 h -2 v -8 h 2 v 3 h 6 v -1 z"/><text style="font-size:10px;font-family:sans-serif;text-anchor:start;fill:#282828" id="text414"><tspan id="tspan412" x="13" y="14">mouse name</tspan></text></g></g><g id="g428" transform="translate(1033,70)"><g id="g426" transform="scale(1.5)"><path style="fill:#ff664b;fill-opacity:1;stroke:#ea4326;stroke-width:1;stroke-linecap:round;stroke-opacity:1" id="path420" d="m 8.5,0.5 h 90 v 20 h -90 v -8 -1 h -6 v 3 h -2 v -8 h 2 v 3 h 6 v -1 z"/><text style="font-size:10px;font-family:sans-serif;text-anchor:start;fill:#282828" id="text424"><tspan id="tspan422" x="13" y="14">heading</tspan></text></g></g></g><g id="g2141" transform="matrix(0.26458333,0,0,0.26458333,-194.03319,152.31968)"><g id="g450" transform="translate(1021,136)"><g id="g448" transform="scale(1.5)"><path style="fill:#d98a43;fill-opacity:1;stroke:#b7651a;stroke-width:1;stroke-linecap:round;stroke-opacity:1" id="path430" d="m 0.5,8.5 v -4 a 4,4 90 0 1 4,-4 h 4 v 2 h 10 v -2 h 40.024414 4 a 4,4 90 0 1 4,4 v 4 h -4 v -3 h -4 v 10 h 4 v -3 h 4 v 17 h -4 v -3 h -4 v 10 h 4 v -3 h 4 v 17 h -4 v -3 h -4 v 10 h 4 v -3 h 4 v 4 a 4,4 90 0 1 -4,4 h -4 H 18.5 h -1 v 2 h -8 v -2 h -1 -4 a 4,4 90 0 1 -4,-4 v -4 -42 z"/><text style="font-size:10px;font-family:sans-serif;text-anchor:end;fill:#282828" id="text434"><tspan id="tspan432" x="56" y="21">set value</tspan></text><text style="font-size:6.66667px;font-family:sans-serif;text-anchor:end;fill:#282828" id="text438"><tspan id="tspan436" x="56" y="12">name</tspan></text><text style="font-size:6.66667px;font-family:sans-serif;text-anchor:end;fill:#282828" id="text442"><tspan id="tspan440" x="56" y="33">key</tspan></text><text style="font-size:6.66667px;font-family:sans-serif;text-anchor:end;fill:#282828" id="text446"><tspan id="tspan444" x="56" y="54">value</tspan></text></g></g><g id="g460" transform="translate(1110,168)"><g id="g458" transform="scale(1.5)"><path style="fill:#ff664b;fill-opacity:1;stroke:#ea4326;stroke-width:1;stroke-linecap:round;stroke-opacity:1" id="path452" d="m 8.5,0.5 h 90 v 20 h -90 v -8 -1 h -6 v 3 h -2 v -8 h 2 v 3 h 6 v -1 z"/><text style="font-size:10px;font-family:sans-serif;text-anchor:start;fill:#282828" id="text456"><tspan id="tspan454" x="13" y="14">heading</tspan></text></g></g><g id="g470" transform="translate(1110,199)"><g id="g468" transform="scale(1.5)"><path style="fill:#ff6ea1;fill-opacity:1;stroke:#ff2c76;stroke-width:1;stroke-linecap:round;stroke-opacity:1" id="path462" d="m 8.5,0.5 h 60 v 20 h -60 v -8 -1 h -6 v 3 h -2 v -8 h 2 v 3 h 6 v -1 z"/><text style="font-size:10px;font-family:sans-serif;text-anchor:start;fill:#282828" id="text466"><tspan id="tspan464" x="13" y="14">90</tspan></text></g></g><g id="g480" transform="translate(1110,136)"><g id="g478" transform="scale(1.5)"><path style="fill:#92a9ff;fill-opacity:1;stroke:#5370dc;stroke-width:1;stroke-linecap:round;stroke-opacity:1" id="path472" d="m 8.5,0.5 h 87.807617 v 20 H 8.5 v -8 -1 h -6 v 3 h -2 v -8 h 2 v 3 h 6 v -1 z"/><text style="font-size:10px;font-family:sans-serif;text-anchor:start;fill:#282828" id="text476"><tspan id="tspan474" x="13" y="14">mouse name</tspan></text></g></g></g><g id="g2334" transform="matrix(0.26458333,0,0,0.26458333,-24.407811,86.359684)"><g id="g2312" transform="translate(368,234)"><g id="g2310" transform="scale(1.5)"><path style="fill:#d98a43;fill-opacity:1;stroke:#b7651a;stroke-width:1;stroke-linecap:round;stroke-opacity:1" id="path2296" d="m 8.5,8.5 v -4 a 4,4 90 0 1 4,-4 h 4 10 40.585937 4 a 4,4 90 0 1 4,4 v 4 h -4 v -3 h -4 v 10 h 4 v -3 h 4 v 17 h -4 v -3 h -4 v 10 h 4 v -3 h 4 v 4 a 4,4 90 0 1 -4,4 h -4 H 26.5 h -10 -4 a 4,4 90 0 1 -4,-4 v -4 -21 -1 h -6 v 3 h -2 v -8 h 2 v 3 h 6 z"/><text style="font-size:10px;font-family:sans-serif;text-anchor:end;fill:#282828" id="text2300"><tspan id="tspan2298" x="65" y="23">get value</tspan></text><text style="font-size:6.66667px;font-family:sans-serif;text-anchor:end;fill:#282828" id="text2304"><tspan id="tspan2302" x="65" y="12">name</tspan></text><text style="font-size:6.66667px;font-family:sans-serif;text-anchor:end;fill:#282828" id="text2308"><tspan id="tspan2306" x="65" y="33">key</tspan></text></g></g><g id="g2322" transform="translate(469,234)"><g id="g2320" transform="scale(1.5)"><path style="fill:#92a9ff;fill-opacity:1;stroke:#5370dc;stroke-width:1;stroke-linecap:round;stroke-opacity:1" id="path2314" d="m 8.5,0.5 h 87.807617 v 20 H 8.5 v -8 -1 h -6 v 3 h -2 v -8 h 2 v 3 h 6 v -1 z"/><text style="font-size:10px;font-family:sans-serif;text-anchor:start;fill:#282828" id="text2318"><tspan id="tspan2316" x="13" y="14">mouse name</tspan></text></g></g><g id="g2332" transform="translate(469,266)"><g id="g2330" transform="scale(1.5)"><path style="fill:#ff664b;fill-opacity:1;stroke:#ea4326;stroke-width:1;stroke-linecap:round;stroke-opacity:1" id="path2324" d="m 8.5,0.5 h 90 v 20 h -90 v -8 -1 h -6 v 3 h -2 v -8 h 2 v 3 h 6 v -1 z"/><text style="font-size:10px;font-family:sans-serif;text-anchor:start;fill:#282828" id="text2328"><tspan id="tspan2326" x="13" y="14">y</tspan></text></g></g></g><g id="g2374" transform="matrix(0.26458333,0,0,0.26458333,-24.407811,89.363021)"><g id="g2352" transform="translate(367,147)"><g id="g2350" transform="scale(1.5)"><path style="fill:#d98a43;fill-opacity:1;stroke:#b7651a;stroke-width:1;stroke-linecap:round;stroke-opacity:1" id="path2336" d="m 8.5,8.5 v -4 a 4,4 90 0 1 4,-4 h 4 10 40.585937 4 a 4,4 90 0 1 4,4 v 4 h -4 v -3 h -4 v 10 h 4 v -3 h 4 v 17 h -4 v -3 h -4 v 10 h 4 v -3 h 4 v 4 a 4,4 90 0 1 -4,4 h -4 H 26.5 h -10 -4 a 4,4 90 0 1 -4,-4 v -4 -21 -1 h -6 v 3 h -2 v -8 h 2 v 3 h 6 z"/><text style="font-size:10px;font-family:sans-serif;text-anchor:end;fill:#282828" id="text2340"><tspan id="tspan2338" x="65" y="23">get value</tspan></text><text style="font-size:6.66667px;font-family:sans-serif;text-anchor:end;fill:#282828" id="text2344"><tspan id="tspan2342" x="65" y="12">name</tspan></text><text style="font-size:6.66667px;font-family:sans-serif;text-anchor:end;fill:#282828" id="text2348"><tspan id="tspan2346" x="65" y="33">key</tspan></text></g></g><g id="g2362" transform="translate(468,147)"><g id="g2360" transform="scale(1.5)"><path style="fill:#92a9ff;fill-opacity:1;stroke:#5370dc;stroke-width:1;stroke-linecap:round;stroke-opacity:1" id="path2354" d="m 8.5,0.5 h 87.807617 v 20 H 8.5 v -8 -1 h -6 v 3 h -2 v -8 h 2 v 3 h 6 v -1 z"/><text style="font-size:10px;font-family:sans-serif;text-anchor:start;fill:#282828" id="text2358"><tspan id="tspan2356" x="13" y="14">mouse name</tspan></text></g></g><g id="g2372" transform="translate(468,179)"><g id="g2370" transform="scale(1.5)"><path style="fill:#ff664b;fill-opacity:1;stroke:#ea4326;stroke-width:1;stroke-linecap:round;stroke-opacity:1" id="path2364" d="m 8.5,0.5 h 90 v 20 h -90 v -8 -1 h -6 v 3 h -2 v -8 h 2 v 3 h 6 v -1 z"/><text style="font-size:10px;font-family:sans-serif;text-anchor:start;fill:#282828" id="text2368"><tspan id="tspan2366" x="13" y="14">x</tspan></text></g></g></g><g id="g2414" transform="matrix(0.26458333,0,0,0.26458333,-173.63281,158.23343)"><g id="g2392" transform="translate(932,38)"><g id="g2390" transform="scale(1.5)"><path style="fill:#d98a43;fill-opacity:1;stroke:#b7651a;stroke-width:1;stroke-linecap:round;stroke-opacity:1" id="path2376" d="m 8.5,8.5 v -4 a 4,4 90 0 1 4,-4 h 4 10 40.585937 4 a 4,4 90 0 1 4,4 v 4 h -4 v -3 h -4 v 10 h 4 v -3 h 4 v 17 h -4 v -3 h -4 v 10 h 4 v -3 h 4 v 4 a 4,4 90 0 1 -4,4 h -4 H 26.5 h -10 -4 a 4,4 90 0 1 -4,-4 v -4 -21 -1 h -6 v 3 h -2 v -8 h 2 v 3 h 6 z"/><text style="font-size:10px;font-family:sans-serif;text-anchor:end;fill:#282828" id="text2380"><tspan id="tspan2378" x="65" y="23">get value</tspan></text><text style="font-size:6.66667px;font-family:sans-serif;text-anchor:end;fill:#282828" id="text2384"><tspan id="tspan2382" x="65" y="12">name</tspan></text><text style="font-size:6.66667px;font-family:sans-serif;text-anchor:end;fill:#282828" id="text2388"><tspan id="tspan2386" x="65" y="33">key</tspan></text></g></g><g id="g2402" transform="translate(1033,38)"><g id="g2400" transform="scale(1.5)"><path style="fill:#92a9ff;fill-opacity:1;stroke:#5370dc;stroke-width:1;stroke-linecap:round;stroke-opacity:1" id="path2394" d="m 8.5,0.5 h 87.807617 v 20 H 8.5 v -8 -1 h -6 v 3 h -2 v -8 h 2 v 3 h 6 v -1 z"/><text style="font-size:10px;font-family:sans-serif;text-anchor:start;fill:#282828" id="text2398"><tspan id="tspan2396" x="13" y="14">mouse name</tspan></text></g></g><g id="g2412" transform="translate(1033,70)"><g id="g2410" transform="scale(1.5)"><path style="fill:#ff664b;fill-opacity:1;stroke:#ea4326;stroke-width:1;stroke-linecap:round;stroke-opacity:1" id="path2404" d="m 8.5,0.5 h 90 v 20 h -90 v -8 -1 h -6 v 3 h -2 v -8 h 2 v 3 h 6 v -1 z"/><text style="font-size:10px;font-family:sans-serif;text-anchor:start;fill:#282828" id="text2408"><tspan id="tspan2406" x="13" y="14">heading</tspan></text></g></g></g><g id="g2468" transform="matrix(0.26458333,0,0,0.26458333,-194.03319,152.31968)"><g id="g2436" transform="translate(1021,136)"><g id="g2434" transform="scale(1.5)"><path style="fill:#d98a43;fill-opacity:1;stroke:#b7651a;stroke-width:1;stroke-linecap:round;stroke-opacity:1" id="path2416" d="m 0.5,8.5 v -4 a 4,4 90 0 1 4,-4 h 4 v 2 h 10 v -2 h 40.024414 4 a 4,4 90 0 1 4,4 v 4 h -4 v -3 h -4 v 10 h 4 v -3 h 4 v 17 h -4 v -3 h -4 v 10 h 4 v -3 h 4 v 17 h -4 v -3 h -4 v 10 h 4 v -3 h 4 v 4 a 4,4 90 0 1 -4,4 h -4 H 18.5 h -1 v 2 h -8 v -2 h -1 -4 a 4,4 90 0 1 -4,-4 v -4 -42 z"/><text style="font-size:10px;font-family:sans-serif;text-anchor:end;fill:#282828" id="text2420"><tspan id="tspan2418" x="56" y="21">set value</tspan></text><text style="font-size:6.66667px;font-family:sans-serif;text-anchor:end;fill:#282828" id="text2424"><tspan id="tspan2422" x="56" y="12">name</tspan></text><text style="font-size:6.66667px;font-family:sans-serif;text-anchor:end;fill:#282828" id="text2428"><tspan id="tspan2426" x="56" y="33">key</tspan></text><text style="font-size:6.66667px;font-family:sans-serif;text-anchor:end;fill:#282828" id="text2432"><tspan id="tspan2430" x="56" y="54">value</tspan></text></g></g><g id="g2446" transform="translate(1110,168)"><g id="g2444" transform="scale(1.5)"><path style="fill:#ff664b;fill-opacity:1;stroke:#ea4326;stroke-width:1;stroke-linecap:round;stroke-opacity:1" id="path2438" d="m 8.5,0.5 h 90 v 20 h -90 v -8 -1 h -6 v 3 h -2 v -8 h 2 v 3 h 6 v -1 z"/><text style="font-size:10px;font-family:sans-serif;text-anchor:start;fill:#282828" id="text2442"><tspan id="tspan2440" x="13" y="14">heading</tspan></text></g></g><g id="g2456" transform="translate(1110,199)"><g id="g2454" transform="scale(1.5)"><path style="fill:#ff6ea1;fill-opacity:1;stroke:#ff2c76;stroke-width:1;stroke-linecap:round;stroke-opacity:1" id="path2448" d="m 8.5,0.5 h 60 v 20 h -60 v -8 -1 h -6 v 3 h -2 v -8 h 2 v 3 h 6 v -1 z"/><text style="font-size:10px;font-family:sans-serif;text-anchor:start;fill:#282828" id="text2452"><tspan id="tspan2450" x="13" y="14">90</tspan></text></g></g><g id="g2466" transform="translate(1110,136)"><g id="g2464" transform="scale(1.5)"><path style="fill:#92a9ff;fill-opacity:1;stroke:#5370dc;stroke-width:1;stroke-linecap:round;stroke-opacity:1" id="path2458" d="m 8.5,0.5 h 87.807617 v 20 H 8.5 v -8 -1 h -6 v 3 h -2 v -8 h 2 v 3 h 6 v -1 z"/><text style="font-size:10px;font-family:sans-serif;text-anchor:start;fill:#282828" id="text2462"><tspan id="tspan2460" x="13" y="14">mouse name</tspan></text></g></g></g></g></svg>