<svg xmlns="http://www.w3.org/2000/svg" xmlns:svg="http://www.w3.org/2000/svg" id="svg5448" width="266.5" height="365.343" version="1.1"><metadata id="metadata5454"/><g id="g6138" transform="translate(-327,-153.57846)"><g id="g5240" transform="translate(327,154)"><g id="g5238" transform="scale(1.5)"><path id="path5232" d="m 0.5,14.5 v -4 a 4,4 90 0 1 4,-4 h 4 l 5,-6 5,6 h 9 113.9209 4 a 4,4 90 0 1 4,4 v 4 4 4 a 4,4 90 0 1 -4,4 h -4 H 27.5 h -1 v 2 h -8 v -2 h -1 -4 a 5,5 90 0 0 -5,5 v 4 4 168 4 a 5,5 90 0 0 5,5 h 4 v 2 h 10 v -2 h 8 v 6 6 4 a 4,4 90 0 1 -4,4 h -4 -9 l -5,6 -5,-6 h -4 a 4,4 90 0 1 -4,-4 v -4 z" style="fill:#7cd622;fill-opacity:1;stroke:#57ad02;stroke-width:1;stroke-linecap:round;stroke-opacity:1"/><text id="text5236" style="font-size:10px;font-family:sans-serif;text-anchor:start;fill:#282828"><tspan id="tspan5234" x="20" y="22">pitch-drum mapper</tspan></text></g></g><g id="g5258" transform="matrix(0.5,0,0,0.5,331,169)"><g id="g5256" style="isolation:isolate"><g id="g5254" data-name="レイヤー 2"><g id="g5252"><rect id="rect5242" width="42" height="42" x="0" y="0" rx="5" ry="5" style="opacity:.4;mix-blend-mode:multiply;fill:#292929"/><path id="path5244" d="m 30.56,29.8 -4.17,-4.16 h 2.26 a 1.035,1.035 0 1 0 0,-2.07 h -4.71 a 1.08,1.08 0 0 0 -1.11,1 v 0 c 0,0 0,0 0,0.06 v 4.64 0 a 1.04,1.04 0 1 0 2.08,0 v -2.19 l 4.19,4.19 a 1,1 0 0 0 1.46,0 1,1 0 0 0 0,-1.47 z" style="fill:#fff"/><path id="path5246" d="m 19.17,24.6 a 1.08,1.08 0 0 0 -1.11,-1 h -4.71 a 1.035,1.035 0 1 0 0,2.07 h 2.25 l -4.16,4.13 a 1.039447,1.039447 0 0 0 1.47,1.47 l 4.18,-4.19 v 2.26 a 1.04,1.04 0 1 0 2.08,0 V 24.7 c 0,0 0,0 0,-0.06 a 0.08,0.08 0 0 1 0,-0.04 z" style="fill:#fff"/><path id="path5248" d="m 23.94,20.5 h 4.7 a 1.04,1.04 0 1 0 0,-2.08 h -2.25 l 4.17,-4.16 a 1,1 0 0 0 0,-1.47 1,1 0 0 0 -1.46,0 L 24.91,17 v -2.28 a 1.04,1.04 0 1 0 -2.08,0 v 4.64 a 0.43,0.43 0 0 0 0,0.05 v 0.05 a 1.09,1.09 0 0 0 1.11,1.04 z" style="fill:#fff"/><path id="path5250" d="m 18.13,13.62 a 1.08,1.08 0 0 0 -1,1.09 V 17 l -4.18,-4.19 a 1,1 0 0 0 -1.47,0 1,1 0 0 0 0,1.46 l 4.16,4.17 h -2.29 a 1.04,1.04 0 1 0 0,2.08 h 4.71 a 1.09,1.09 0 0 0 1.11,-1 c 0,0 0,0 0,-0.06 v -4.75 a 1.07,1.07 0 0 0 -1.04,-1.09 z" style="fill:#fff"/></g></g></g></g><g id="g5278" transform="translate(341,195)"><g id="g5276" transform="scale(1.5)"><path id="path5262" d="m 0.5,8.5 v -4 a 4,4 90 0 1 4,-4 h 4 v 2 h 10 v -2 h 30 4 a 4,4 90 0 1 4,4 v 4 h -4 v -3 h -4 v 10 h 4 v -3 h 4 v 17 h -4 v -3 h -4 v 10 h 4 v -3 h 4 v 4 a 4,4 90 0 1 -4,4 h -4 -30 -1 v 2 h -8 v -2 h -1 -4 a 4,4 90 0 1 -4,-4 v -4 -21 z" style="fill:#7cd622;fill-opacity:1;stroke:#57ad02;stroke-width:1;stroke-linecap:round;stroke-opacity:1"/><text id="text5266" style="font-size:10px;font-family:sans-serif;text-anchor:end;fill:#282828"><tspan id="tspan5264" x="46" y="24">pitch</tspan></text><text id="text5270" style="font-size:6.66667px;font-family:sans-serif;text-anchor:end;fill:#282828"><tspan id="tspan5268" x="46" y="12">name</tspan></text><text id="text5274" style="font-size:6.66667px;font-family:sans-serif;text-anchor:end;fill:#282828"><tspan id="tspan5272" x="46" y="33">octave</tspan></text></g></g><g id="g5288" transform="translate(415,195)"><g id="g5286" transform="scale(1.5)"><path id="path5280" d="m 8.5,0.5 h 60 v 20 h -60 v -8 -1 h -6 v 3 h -2 v -8 h 2 v 3 h 6 v -1 z" style="fill:#7cd622;fill-opacity:1;stroke:#57ad02;stroke-width:1;stroke-linecap:round;stroke-opacity:1"/><text id="text5284" style="font-size:10px;font-family:sans-serif;text-anchor:start;fill:#282828"><tspan id="tspan5282" x="13" y="14">sol</tspan></text></g></g><g id="g5298" transform="translate(415,227)"><g id="g5296" transform="scale(1.5)"><path id="path5290" d="m 8.5,0.5 h 60 v 20 h -60 v -8 -1 h -6 v 3 h -2 v -8 h 2 v 3 h 6 v -1 z" style="fill:#ff6ea1;fill-opacity:1;stroke:#ff2c76;stroke-width:1;stroke-linecap:round;stroke-opacity:1"/><text id="text5294" style="font-size:10px;font-family:sans-serif;text-anchor:start;fill:#282828"><tspan id="tspan5292" x="13" y="14">4</tspan></text></g></g><g id="g5316" transform="translate(341,258)"><g id="g5314" transform="scale(1.5)"><path id="path5300" d="m 0.5,8.5 v -4 a 4,4 90 0 1 4,-4 h 4 v 2 h 10 v -2 h 30 4 a 4,4 90 0 1 4,4 v 4 h -4 v -3 h -4 v 10 h 4 v -3 h 4 v 17 h -4 v -3 h -4 v 10 h 4 v -3 h 4 v 4 a 4,4 90 0 1 -4,4 h -4 -30 -1 v 2 h -8 v -2 h -1 -4 a 4,4 90 0 1 -4,-4 v -4 -21 z" style="fill:#7cd622;fill-opacity:1;stroke:#57ad02;stroke-width:1;stroke-linecap:round;stroke-opacity:1"/><text id="text5304" style="font-size:10px;font-family:sans-serif;text-anchor:end;fill:#282828"><tspan id="tspan5302" x="46" y="24">pitch</tspan></text><text id="text5308" style="font-size:6.66667px;font-family:sans-serif;text-anchor:end;fill:#282828"><tspan id="tspan5306" x="46" y="12">name</tspan></text><text id="text5312" style="font-size:6.66667px;font-family:sans-serif;text-anchor:end;fill:#282828"><tspan id="tspan5310" x="46" y="33">octave</tspan></text></g></g><g id="g5326" transform="translate(415,258)"><g id="g5324" transform="scale(1.5)"><path id="path5318" d="m 8.5,0.5 h 60 v 20 h -60 v -8 -1 h -6 v 3 h -2 v -8 h 2 v 3 h 6 v -1 z" style="fill:#7cd622;fill-opacity:1;stroke:#57ad02;stroke-width:1;stroke-linecap:round;stroke-opacity:1"/><text id="text5322" style="font-size:10px;font-family:sans-serif;text-anchor:start;fill:#282828"><tspan id="tspan5320" x="13" y="14">mi</tspan></text></g></g><g id="g5336" transform="translate(415,290)"><g id="g5334" transform="scale(1.5)"><path id="path5328" d="m 8.5,0.5 h 60 v 20 h -60 v -8 -1 h -6 v 3 h -2 v -8 h 2 v 3 h 6 v -1 z" style="fill:#ff6ea1;fill-opacity:1;stroke:#ff2c76;stroke-width:1;stroke-linecap:round;stroke-opacity:1"/><text id="text5332" style="font-size:10px;font-family:sans-serif;text-anchor:start;fill:#282828"><tspan id="tspan5330" x="13" y="14">4</tspan></text></g></g><g id="g5354" transform="translate(341,321)"><g id="g5352" transform="scale(1.5)"><path id="path5338" d="m 0.5,8.5 v -4 a 4,4 90 0 1 4,-4 h 4 v 2 h 10 v -2 h 30 4 a 4,4 90 0 1 4,4 v 4 h -4 v -3 h -4 v 10 h 4 v -3 h 4 v 17 h -4 v -3 h -4 v 10 h 4 v -3 h 4 v 4 a 4,4 90 0 1 -4,4 h -4 -30 -1 v 2 h -8 v -2 h -1 -4 a 4,4 90 0 1 -4,-4 v -4 -21 z" style="fill:#7cd622;fill-opacity:1;stroke:#57ad02;stroke-width:1;stroke-linecap:round;stroke-opacity:1"/><text id="text5342" style="font-size:10px;font-family:sans-serif;text-anchor:end;fill:#282828"><tspan id="tspan5340" x="46" y="24">pitch</tspan></text><text id="text5346" style="font-size:6.66667px;font-family:sans-serif;text-anchor:end;fill:#282828"><tspan id="tspan5344" x="46" y="12">name</tspan></text><text id="text5350" style="font-size:6.66667px;font-family:sans-serif;text-anchor:end;fill:#282828"><tspan id="tspan5348" x="46" y="33">octave</tspan></text></g></g><g id="g5364" transform="translate(415,321)"><g id="g5362" transform="scale(1.5)"><path id="path5356" d="m 8.5,0.5 h 60 v 20 h -60 v -8 -1 h -6 v 3 h -2 v -8 h 2 v 3 h 6 v -1 z" style="fill:#7cd622;fill-opacity:1;stroke:#57ad02;stroke-width:1;stroke-linecap:round;stroke-opacity:1"/><text id="text5360" style="font-size:10px;font-family:sans-serif;text-anchor:start;fill:#282828"><tspan id="tspan5358" x="13" y="14">re</tspan></text></g></g><g id="g5374" transform="translate(415,353)"><g id="g5372" transform="scale(1.5)"><path id="path5366" d="m 8.5,0.5 h 60 v 20 h -60 v -8 -1 h -6 v 3 h -2 v -8 h 2 v 3 h 6 v -1 z" style="fill:#ff6ea1;fill-opacity:1;stroke:#ff2c76;stroke-width:1;stroke-linecap:round;stroke-opacity:1"/><text id="text5370" style="font-size:10px;font-family:sans-serif;text-anchor:start;fill:#282828"><tspan id="tspan5368" x="13" y="14">4</tspan></text></g></g><g id="g5388" transform="translate(341,384)"><g id="g5386" transform="scale(1.5)"><path id="path5376" d="m 0.5,8.5 v -4 a 4,4 90 0 1 4,-4 h 4 v 2 h 10 v -2 h 30 4 a 4,4 90 0 1 4,4 v 4 h -4 v -3 h -4 v 10 h 4 v -3 h 4 v 4 a 4,4 90 0 1 -4,4 h -4 -30 -1 v 2 h -8 v -2 h -1 -4 a 4,4 90 0 1 -4,-4 v -4 z" style="fill:#3edcdd;fill-opacity:1;stroke:#1dbcbd;stroke-width:1;stroke-linecap:round;stroke-opacity:1"/><text id="text5380" style="font-size:10px;font-family:sans-serif;text-anchor:end;fill:#282828"><tspan id="tspan5378" x="46" y="14">drum</tspan></text></g></g><g id="g5398" transform="translate(415,384)"><g id="g5396" transform="scale(1.5)"><path id="path5390" d="m 8.5,0.5 h 110 v 20 H 8.5 v -8 -1 h -6 v 3 h -2 v -8 h 2 v 3 h 6 v -1 z" style="fill:#3edcdd;fill-opacity:1;stroke:#1dbcbd;stroke-width:1;stroke-linecap:round;stroke-opacity:1"/><text id="text5394" style="font-size:10px;font-family:sans-serif;text-anchor:start;fill:#282828"><tspan id="tspan5392" x="13" y="14">kick drum</tspan></text></g></g><g id="g5412" transform="translate(341,416)"><g id="g5410" transform="scale(1.5)"><path id="path5400" d="m 0.5,8.5 v -4 a 4,4 90 0 1 4,-4 h 4 v 2 h 10 v -2 h 30 4 a 4,4 90 0 1 4,4 v 4 h -4 v -3 h -4 v 10 h 4 v -3 h 4 v 4 a 4,4 90 0 1 -4,4 h -4 -30 -1 v 2 h -8 v -2 h -1 -4 a 4,4 90 0 1 -4,-4 v -4 z" style="fill:#3edcdd;fill-opacity:1;stroke:#1dbcbd;stroke-width:1;stroke-linecap:round;stroke-opacity:1"/><text id="text5404" style="font-size:10px;font-family:sans-serif;text-anchor:end;fill:#282828"><tspan id="tspan5402" x="46" y="14">drum</tspan></text></g></g><g id="g5422" transform="translate(415,416)"><g id="g5420" transform="scale(1.5)"><path id="path5414" d="m 8.5,0.5 h 110 v 20 H 8.5 v -8 -1 h -6 v 3 h -2 v -8 h 2 v 3 h 6 v -1 z" style="fill:#3edcdd;fill-opacity:1;stroke:#1dbcbd;stroke-width:1;stroke-linecap:round;stroke-opacity:1"/><text id="text5418" style="font-size:10px;font-family:sans-serif;text-anchor:start;fill:#282828"><tspan id="tspan5416" x="13" y="14">snare drum</tspan></text></g></g><g id="g5436" transform="translate(341,448)"><g id="g5434" transform="scale(1.5)"><path id="path5424" d="m 0.5,8.5 v -4 a 4,4 90 0 1 4,-4 h 4 v 2 h 10 v -2 h 30 4 a 4,4 90 0 1 4,4 v 4 h -4 v -3 h -4 v 10 h 4 v -3 h 4 v 4 a 4,4 90 0 1 -4,4 h -4 -30 -1 v 2 h -8 v -2 h -1 -4 a 4,4 90 0 1 -4,-4 v -4 z" style="fill:#3edcdd;fill-opacity:1;stroke:#1dbcbd;stroke-width:1;stroke-linecap:round;stroke-opacity:1"/><text id="text5428" style="font-size:10px;font-family:sans-serif;text-anchor:end;fill:#282828"><tspan id="tspan5426" x="46" y="14">drum</tspan></text></g></g><g id="g5446" transform="translate(415,448)"><g id="g5444" transform="scale(1.5)"><path id="path5438" d="m 8.5,0.5 h 110 v 20 H 8.5 v -8 -1 h -6 v 3 h -2 v -8 h 2 v 3 h 6 v -1 z" style="fill:#3edcdd;fill-opacity:1;stroke:#1dbcbd;stroke-width:1;stroke-linecap:round;stroke-opacity:1"/><text id="text5442" style="font-size:10px;font-family:sans-serif;text-anchor:start;fill:#282828"><tspan id="tspan5440" x="13" y="14">ride bell</tspan></text></g></g></g></svg>