<svg xmlns="http://www.w3.org/2000/svg" xmlns:svg="http://www.w3.org/2000/svg" style="overflow:hidden" id="svg186" width="346" height="350" preserveAspectRatio="xMidYMid meet" version="1.1" viewBox="0 0 346 350"><metadata id="metadata190"/><path id="wheelnav-wheelDiv-slice-1" fill="#60bfbc" fill-opacity="1" stroke="#333" stroke-width="0" d="m 205.61381,187.87868 129.59705,38.2645 a 168.83534,169.77311 0 0 1 -19.96299,43.95566 168.83534,169.77311 0 0 1 -31.46969,36.51969 L 195.32727,203.97375 a 33.767066,33.954623 0 0 0 6.29395,-7.30393 33.767066,33.954623 0 0 0 3.99259,-8.79114 z" style="fill-opacity:1"/><path id="wheelnav-wheelDiv-line-1" fill="none" stroke="#444" stroke-width=".339" d="M 4.3792217,8.539446"/><text style="font-style:normal;font-variant:normal;font-weight:100;font-stretch:normal;font-size:16.2535px;line-height:normal;font-family:sans-serif;text-anchor:middle;stroke-width:.338612" id="wheelnav-wheelDiv-title-1" x="343.855" y="55.694" fill="#333" stroke="none" font="100 48px sans-serif" text-anchor="middle" transform="matrix(0.83895894,0.54209006,-0.53909568,0.84361887,0,0)"><tspan id="tspan129" dy="5.642" style="stroke-width:.338612">solfege syllable</tspan></text><path id="wheelnav-wheelDiv-slice-10" fill="#3ea4a3" fill-opacity="1" stroke="#333" stroke-width="0" d="M 195.32727,152.65137 283.77818,50.0066 a 168.83534,169.77311 0 0 1 31.46969,36.519685 168.83534,169.77311 0 0 1 19.96299,43.955665 l -129.59705,38.2645 a 33.767066,33.954623 0 0 0 -3.99259,-8.79115 33.767066,33.954623 0 0 0 -6.29395,-7.30393 z" style="fill-opacity:1"/><path id="wheelnav-wheelDiv-line-10" fill="none" stroke="#444" stroke-width=".339" d="M 4.3792217,8.539446"/><text style="font-style:normal;font-variant:normal;font-weight:100;font-stretch:normal;font-size:16.2535px;line-height:normal;font-family:sans-serif;text-anchor:middle;stroke-width:.338612" id="wheelnav-wheelDiv-title-10" x="151.56" y="243.57" fill="#333" stroke="none" font="100 48px sans-serif" text-anchor="middle" transform="matrix(0.83895894,-0.54209006,0.53909568,0.84361887,0,0)"><tspan id="tspan134" dy="5.644" style="stroke-width:.338612">pitch to color</tspan></text><path id="wheelnav-wheelDiv-slice-9" fill="#1d8989" fill-opacity="1" stroke="#333" stroke-width="0" d="M 178.0201,144.70354 197.24233,10.267489 a 168.83534,169.77311 0 0 1 46.10895,13.614008 168.83534,169.77311 0 0 1 40.4269,26.125103 l -88.45091,102.64477 a 33.767066,33.954623 0 0 0 -8.08537,-5.22502 33.767066,33.954623 0 0 0 -9.2218,-2.72281 z" style="fill-opacity:1"/><path id="wheelnav-wheelDiv-line-9" fill="none" stroke="#444" stroke-width=".339" d="M 4.3792217,8.539446"/><text style="font-style:normal;font-variant:normal;font-weight:100;font-stretch:normal;font-size:16.2525px;line-height:normal;font-family:sans-serif;text-anchor:middle;stroke-width:.338595" id="wheelnav-wheelDiv-title-9" x="11.982" y="231.862" fill="#333" stroke="none" font="100 48px sans-serif" text-anchor="middle" transform="matrix(0.41426577,-0.91215489,0.90711638,0.41656678,0,0)"><tspan id="tspan139" dy="5.643" style="stroke-width:.338595">pitch to shade</tspan></text><path id="wheelnav-wheelDiv-slice-8" fill="#60bfbc" fill-opacity="1" stroke="#333" stroke-width="0" d="M 159.18721,147.42635 103.07781,23.881497 a 168.83534,169.77311 0 0 1 46.10896,-13.614008 168.83534,169.77311 0 0 1 48.05556,0 L 178.0201,144.70354 a 33.767066,33.954623 0 0 0 -9.61111,0 33.767066,33.954623 0 0 0 -9.22178,2.72281 z" style="fill-opacity:1"/><path id="wheelnav-wheelDiv-line-8" fill="none" stroke="#444" stroke-width=".339" d="M 4.3792217,8.539446"/><text style="font-style:normal;font-variant:normal;font-weight:100;font-stretch:normal;font-size:16.2527px;line-height:normal;font-family:sans-serif;text-anchor:middle;stroke-width:.338599" id="wheelnav-wheelDiv-title-8" x="-99.667" y="147.075" fill="#333" stroke="none" font="100 48px sans-serif" text-anchor="middle" transform="matrix(-0.14190975,-0.99256827,0.98708552,-0.14269798,0,0)"><tspan id="tspan144" dy="5.642" style="stroke-width:.338599">staff y</tspan></text><path id="wheelnav-wheelDiv-slice-7" fill="#1d8989" fill-opacity="1" stroke="#333" stroke-width="0" d="M 144.80789,159.9553 31.181231,86.526285 A 168.83534,169.77311 0 0 1 62.650917,50.0066 168.83534,169.77311 0 0 1 103.07781,23.881497 l 56.1094,123.544853 a 33.767066,33.954623 0 0 0 -8.08539,5.22502 33.767066,33.954623 0 0 0 -6.29393,7.30393 z" style="fill-opacity:1"/><path id="wheelnav-wheelDiv-line-7" fill="none" stroke="#444" stroke-width=".339" d="M 4.3792217,8.539446"/><text style="font-style:normal;font-variant:normal;font-weight:100;font-stretch:normal;font-size:16.253px;line-height:normal;font-family:sans-serif;text-anchor:middle;stroke-width:.338603" id="wheelnav-wheelDiv-title-7" x="-146.545" y="14.807" fill="#333" stroke="none" font="100 48px sans-serif" text-anchor="middle" transform="matrix(-0.65309642,-0.75780474,0.75361881,-0.65672399,0,0)"><tspan id="tspan149" dy="5.643" style="stroke-width:.338603">nth degree</tspan></text><path id="wheelnav-wheelDiv-slice-6" fill="#60bfbc" fill-opacity="1" stroke="#333" stroke-width="0" d="M 139.44748,178.31256 H 4.3792217 A 168.83534,169.77311 0 0 1 11.218237,130.48195 168.83534,169.77311 0 0 1 31.181231,86.526285 L 144.80789,159.9553 a 33.767066,33.954623 0 0 0 -3.9926,8.79115 33.767066,33.954623 0 0 0 -1.36781,9.56611 z" style="fill-opacity:1"/><path id="wheelnav-wheelDiv-line-6" fill="none" stroke="#444" stroke-width=".339" d="M 4.3792217,8.539446"/><text style="font-style:normal;font-variant:normal;font-weight:100;font-stretch:normal;font-size:16.2531px;line-height:normal;font-family:sans-serif;text-anchor:middle;stroke-width:.338606" id="wheelnav-wheelDiv-title-6" x="-115.159" y="-121.691" fill="#333" stroke="none" font="100 48px sans-serif" text-anchor="middle" transform="matrix(-0.95684863,-0.28248195,0.28092159,-0.96216339,0,0)"><tspan id="tspan154" dy="5.644" style="stroke-width:.338606">scale degree</tspan></text><path id="wheelnav-wheelDiv-slice-5" fill="#3ea4a3" fill-opacity="1" stroke="#333" stroke-width="0" d="M 144.80789,196.66982 31.181231,270.09884 A 168.83534,169.77311 0 0 1 11.218237,226.14318 168.83534,169.77311 0 0 1 4.3792217,178.31256 H 139.44748 a 33.767066,33.954623 0 0 0 1.36781,9.56612 33.767066,33.954623 0 0 0 3.9926,8.79114 z" style="fill-opacity:1"/><path id="wheelnav-wheelDiv-line-5" fill="none" stroke="#444" stroke-width=".339" d="M 4.3792217,8.539446"/><text style="font-style:normal;font-variant:normal;font-weight:100;font-stretch:normal;font-size:16.2531px;line-height:normal;font-family:sans-serif;text-anchor:middle;stroke-width:.338606" id="wheelnav-wheelDiv-title-5" x="-14.778" y="-219.521" fill="#333" stroke="none" font="100 48px sans-serif" text-anchor="middle" transform="matrix(-0.95684863,0.28248195,-0.28092159,-0.96216339,0,0)"><tspan id="tspan159" dy="5.644" style="stroke-width:.338606">scalar class</tspan></text><path id="wheelnav-wheelDiv-slice-4" fill="#1d8989" fill-opacity="1" stroke="#333" stroke-width="0" d="m 159.18721,209.19878 -56.1094,123.54484 A 168.83534,169.77311 0 0 1 62.650917,306.61853 168.83534,169.77311 0 0 1 31.181231,270.09884 L 144.80789,196.66982 a 33.767066,33.954623 0 0 0 6.29393,7.30393 33.767066,33.954623 0 0 0 8.08539,5.22503 z" style="fill-opacity:1"/><path id="wheelnav-wheelDiv-line-4" fill="none" stroke="#444" stroke-width=".339" d="M 4.3792217,8.539446"/><text style="font-style:normal;font-variant:normal;font-weight:100;font-stretch:normal;font-size:16.253px;line-height:normal;font-family:sans-serif;text-anchor:middle;stroke-width:.338603" id="wheelnav-wheelDiv-title-4" x="122.375" y="-247.633" fill="#333" stroke="none" font="100 48px sans-serif" text-anchor="middle" transform="matrix(-0.65309642,0.75780474,-0.75361881,-0.65672399,0,0)"><tspan id="tspan164" dy="5.642" style="stroke-width:.338603">pitch in hertz</tspan></text><path id="wheelnav-wheelDiv-slice-3" fill="#60bfbc" fill-opacity="1" stroke="#333" stroke-width="0" d="m 178.0201,211.92158 19.22223,134.43605 a 168.83534,169.77311 0 0 1 -48.05556,0 168.83534,169.77311 0 0 1 -46.10896,-13.61401 l 56.1094,-123.54484 a 33.767066,33.954623 0 0 0 9.22178,2.7228 33.767066,33.954623 0 0 0 9.61111,0 z" style="fill-opacity:1"/><path id="wheelnav-wheelDiv-line-3" fill="none" stroke="#444" stroke-width=".339" d="M 4.3792217,8.539446"/><text style="font-style:normal;font-variant:normal;font-weight:100;font-stretch:normal;font-size:16.2527px;line-height:normal;font-family:sans-serif;text-anchor:middle;stroke-width:.338599" id="wheelnav-wheelDiv-title-3" x="252.741" y="-197.353" fill="#333" stroke="none" font="100 48px sans-serif" text-anchor="middle" transform="matrix(-0.14190975,0.99256827,-0.98708552,-0.14269798,0,0)"><tspan id="tspan169" dy="5.643" style="stroke-width:.338599">pitch number</tspan></text><path id="wheelnav-wheelDiv-slice-2" fill="#1d8989" fill-opacity="1" stroke="#333" stroke-width="0" d="m 195.32727,203.97375 88.45091,102.64478 a 168.83534,169.77311 0 0 1 -40.4269,26.12509 168.83534,169.77311 0 0 1 -46.10895,13.61401 L 178.0201,211.92158 a 33.767066,33.954623 0 0 0 9.2218,-2.7228 33.767066,33.954623 0 0 0 8.08537,-5.22503 z" style="fill-opacity:1"/><path id="wheelnav-wheelDiv-line-2" fill="none" stroke="#444" stroke-width=".339" d="M 4.3792217,8.539446"/><text style="font-style:normal;font-variant:normal;font-weight:100;font-stretch:normal;font-size:16.2525px;line-height:normal;font-family:sans-serif;text-anchor:middle;stroke-width:.338595" id="wheelnav-wheelDiv-title-2" x="335.545" y="-84.038" fill="#333" stroke="none" font="100 48px sans-serif" text-anchor="middle" transform="matrix(0.41426577,0.91215489,-0.90711638,0.41656678,0,0)"><tspan id="tspan174" dy="5.645" style="stroke-width:.338595">pitch class</tspan></text><desc id="desc177">Created with Raphaël 2.1.2</desc><path id="wheelnav-wheelDiv-slice-0" fill="#3ea4a3" fill-opacity="1" stroke="#111" stroke-width="0" d="m 205.61381,168.74645 129.59705,-38.2645 a 168.83534,169.77311 0 0 1 6.83902,47.83061 168.83534,169.77311 0 0 1 -6.83902,47.83062 l -129.59705,-38.2645 a 33.767066,33.954623 0 0 0 1.36781,-9.56612 33.767066,33.954623 0 0 0 -1.36781,-9.56611 z" style="fill-opacity:1"/><path id="wheelnav-wheelDiv-line-0" fill="none" stroke="#444" stroke-width=".339" d="M 4.3792217,8.539446"/><text style="font-style:normal;font-variant:normal;font-weight:100;font-stretch:normal;font-size:16.2531px;line-height:normal;font-family:sans-serif;text-anchor:middle;stroke-width:.338608" id="wheelnav-wheelDiv-title-0" x="275.277" y="177.819" fill="#fff" stroke="none" font="100 48px sans-serif" text-anchor="middle" transform="scale(0.99723432,1.0027734)"><tspan id="tspan183" dy="5.645" style="stroke-width:.338608">letter class</tspan></text></svg>