<svg xmlns="http://www.w3.org/2000/svg" xmlns:svg="http://www.w3.org/2000/svg" id="svg4347" width="305.06" height="241.677" version="1.1"><metadata id="metadata4353"/><g id="g5011" transform="matrix(0.78213225,0,0,1.0097504,-153.29792,-142.95891)"><g id="g4191" transform="translate(196,142)"><g id="g4189" transform="scale(1.5)"><path id="path4183" d="m 0.5,14.5 v -4 a 4,4 90 0 1 4,-4 h 4 l 5,-6 5,6 h 9 60 4 a 4,4 90 0 1 4,4 v 4 4 4 a 4,4 90 0 1 -4,4 h -4 -60 -1 v 2 h -8 v -2 h -1 -4 a 5,5 90 0 0 -5,5 v 4 4 84 4 a 5,5 90 0 0 5,5 h 4 v 2 h 10 v -2 h 8 v 6 6 4 a 4,4 90 0 1 -4,4 h -4 -9 l -5,6 -5,-6 h -4 a 4,4 90 0 1 -4,-4 v -4 z" style="fill:#7cd622;fill-opacity:1;stroke:#57ad02;stroke-width:1;stroke-linecap:round;stroke-opacity:1"/><text id="text4187" style="font-size:10px;font-family:sans-serif;text-anchor:start;fill:#282828"><tspan id="tspan4185" x="20" y="22">status</tspan></text></g></g><g id="g4209" transform="matrix(0.5,0,0,0.5,198,156)"><g id="g4207" style="isolation:isolate"><g id="g4205" data-name="レイヤー 2"><g id="g4203"><rect id="rect4193" width="42" height="42" x="0" y="0" rx="5" ry="5" style="opacity:.4;mix-blend-mode:multiply;fill:#292929"/><path id="path4195" d="m 30.56,29.8 -4.17,-4.16 h 2.26 a 1.035,1.035 0 1 0 0,-2.07 h -4.71 a 1.08,1.08 0 0 0 -1.11,1 v 0 c 0,0 0,0 0,0.06 v 4.64 0 a 1.04,1.04 0 1 0 2.08,0 v -2.19 l 4.19,4.19 a 1,1 0 0 0 1.46,0 1,1 0 0 0 0,-1.47 z" style="fill:#fff"/><path id="path4197" d="m 19.17,24.6 a 1.08,1.08 0 0 0 -1.11,-1 h -4.71 a 1.035,1.035 0 1 0 0,2.07 h 2.25 l -4.16,4.13 a 1.039447,1.039447 0 0 0 1.47,1.47 l 4.18,-4.19 v 2.26 a 1.04,1.04 0 1 0 2.08,0 V 24.7 c 0,0 0,0 0,-0.06 a 0.08,0.08 0 0 1 0,-0.04 z" style="fill:#fff"/><path id="path4199" d="m 23.94,20.5 h 4.7 a 1.04,1.04 0 1 0 0,-2.08 h -2.25 l 4.17,-4.16 a 1,1 0 0 0 0,-1.47 1,1 0 0 0 -1.46,0 L 24.91,17 v -2.28 a 1.04,1.04 0 1 0 -2.08,0 v 4.64 a 0.43,0.43 0 0 0 0,0.05 v 0.05 a 1.09,1.09 0 0 0 1.11,1.04 z" style="fill:#fff"/><path id="path4201" d="m 18.13,13.62 a 1.08,1.08 0 0 0 -1,1.09 V 17 l -4.18,-4.19 a 1,1 0 0 0 -1.47,0 1,1 0 0 0 0,1.46 l 4.16,4.17 h -2.29 a 1.04,1.04 0 1 0 0,2.08 h 4.71 a 1.09,1.09 0 0 0 1.11,-1 c 0,0 0,0 0,-0.06 v -4.75 a 1.07,1.07 0 0 0 -1.04,-1.09 z" style="fill:#fff"/></g></g></g></g><g id="g4225" transform="translate(210,215)"><g id="g4223" transform="scale(1.5)"><path id="path4213" d="m 0.5,8.5 v -4 a 4,4 90 0 1 4,-4 h 4 v 2 h 10 v -2 h 30 4 a 4,4 90 0 1 4,4 v 4 h -4 v -3 h -4 v 10 h 4 v -3 h 4 v 4 a 4,4 90 0 1 -4,4 h -4 -30 -1 v 2 h -8 v -2 h -1 -4 a 4,4 90 0 1 -4,-4 v -4 z" style="fill:#c4c4c4;fill-opacity:1;stroke:#a0a0a0;stroke-width:1;stroke-linecap:round;stroke-opacity:1"/><text id="text4217" style="font-size:10px;font-family:sans-serif;text-anchor:end;fill:#282828"><tspan id="tspan4215" x="46" y="14">print</tspan></text></g></g><g id="g4235" transform="translate(284,215)"><g id="g4233" transform="scale(1.5)"><path id="path4227" d="m 8.5,0.5 h 76.704102 v 20 H 8.5 v -8 -1 h -6 v 3 h -2 v -8 h 2 v 3 h 6 v -1 z" style="fill:#fe994f;fill-opacity:1;stroke:#e86b0e;stroke-width:1;stroke-linecap:round;stroke-opacity:1"/><text id="text4231" style="font-size:10px;font-family:sans-serif;text-anchor:start;fill:#282828"><tspan id="tspan4229" x="13" y="14">beat count</tspan></text></g></g><g id="g4249" transform="translate(210,247)"><g id="g4247" transform="scale(1.5)"><path id="path4237" d="m 0.5,8.5 v -4 a 4,4 90 0 1 4,-4 h 4 v 2 h 10 v -2 h 30 4 a 4,4 90 0 1 4,4 v 4 h -4 v -3 h -4 v 10 h 4 v -3 h 4 v 4 a 4,4 90 0 1 -4,4 h -4 -30 -1 v 2 h -8 v -2 h -1 -4 a 4,4 90 0 1 -4,-4 v -4 z" style="fill:#c4c4c4;fill-opacity:1;stroke:#a0a0a0;stroke-width:1;stroke-linecap:round;stroke-opacity:1"/><text id="text4241" style="font-size:10px;font-family:sans-serif;text-anchor:end;fill:#282828"><tspan id="tspan4239" x="46" y="14">print</tspan></text></g></g><g id="g4259" transform="translate(284,247)"><g id="g4257" transform="scale(1.5)"><path id="path4251" d="m 8.5,0.5 h 96.14746 v 20 H 8.5 v -8 -1 h -6 v 3 h -2 v -8 h 2 v 3 h 6 v -1 z" style="fill:#fe994f;fill-opacity:1;stroke:#e86b0e;stroke-width:1;stroke-linecap:round;stroke-opacity:1"/><text id="text4255" style="font-size:10px;font-family:sans-serif;text-anchor:start;fill:#282828"><tspan id="tspan4253" x="13" y="14">measure count</tspan></text></g></g><g id="g4273" transform="translate(210,279)"><g id="g4271" transform="scale(1.5)"><path id="path4261" d="m 0.5,8.5 v -4 a 4,4 90 0 1 4,-4 h 4 v 2 h 10 v -2 h 30 4 a 4,4 90 0 1 4,4 v 4 h -4 v -3 h -4 v 10 h 4 v -3 h 4 v 4 a 4,4 90 0 1 -4,4 h -4 -30 -1 v 2 h -8 v -2 h -1 -4 a 4,4 90 0 1 -4,-4 v -4 z" style="fill:#c4c4c4;fill-opacity:1;stroke:#a0a0a0;stroke-width:1;stroke-linecap:round;stroke-opacity:1"/><text id="text4265" style="font-size:10px;font-family:sans-serif;text-anchor:end;fill:#282828"><tspan id="tspan4263" x="46" y="14">print</tspan></text></g></g><g id="g4283" transform="translate(284,279)"><g id="g4281" transform="scale(1.5)"><path id="path4275" d="m 8.5,0.5 h 115.61523 v 20 H 8.5 v -8 -1 h -6 v 3 h -2 v -8 h 2 v 3 h 6 v -1 z" style="fill:#fe994f;fill-opacity:1;stroke:#e86b0e;stroke-width:1;stroke-linecap:round;stroke-opacity:1"/><text id="text4279" style="font-size:10px;font-family:sans-serif;text-anchor:start;fill:#282828"><tspan id="tspan4277" x="13" y="14">whole notes played</tspan></text></g></g><g id="g4297" transform="translate(210,311)"><g id="g4295" transform="scale(1.5)"><path id="path4285" d="m 0.5,8.5 v -4 a 4,4 90 0 1 4,-4 h 4 v 2 h 10 v -2 h 30 4 a 4,4 90 0 1 4,4 v 4 h -4 v -3 h -4 v 10 h 4 v -3 h 4 v 4 a 4,4 90 0 1 -4,4 h -4 -30 -1 v 2 h -8 v -2 h -1 -4 a 4,4 90 0 1 -4,-4 v -4 z" style="fill:#c4c4c4;fill-opacity:1;stroke:#a0a0a0;stroke-width:1;stroke-linecap:round;stroke-opacity:1"/><text id="text4289" style="font-size:10px;font-family:sans-serif;text-anchor:end;fill:#282828"><tspan id="tspan4287" x="46" y="14">print</tspan></text></g></g><g id="g4307" transform="translate(284,311)"><g id="g4305" transform="scale(1.5)"><path id="path4299" d="m 8.5,0.5 h 104.4873 v 20 H 8.5 v -8 -1 h -6 v 3 h -2 v -8 h 2 v 3 h 6 v -1 z" style="fill:#fe994f;fill-opacity:1;stroke:#e86b0e;stroke-width:1;stroke-linecap:round;stroke-opacity:1"/><text id="text4303" style="font-size:10px;font-family:sans-serif;text-anchor:start;fill:#282828"><tspan id="tspan4301" x="13" y="14">beats per minute</tspan></text></g></g><g id="g4321" transform="translate(210,183)"><g id="g4319" transform="scale(1.5)"><path id="path4309" d="m 0.5,8.5 v -4 a 4,4 90 0 1 4,-4 h 4 v 2 h 10 v -2 h 30 4 a 4,4 90 0 1 4,4 v 4 h -4 v -3 h -4 v 10 h 4 v -3 h 4 v 4 a 4,4 90 0 1 -4,4 h -4 -30 -1 v 2 h -8 v -2 h -1 -4 a 4,4 90 0 1 -4,-4 v -4 z" style="fill:#c4c4c4;fill-opacity:1;stroke:#a0a0a0;stroke-width:1;stroke-linecap:round;stroke-opacity:1"/><text id="text4313" style="font-size:10px;font-family:sans-serif;text-anchor:end;fill:#282828"><tspan id="tspan4311" x="46" y="14">print</tspan></text></g></g><g id="g4335" transform="translate(284,183)"><g id="g4333" transform="scale(1.5)"><path id="path4323" d="m 8.5,8.5 v -4 a 4,4 90 0 1 4,-4 h 4 10 80 4 a 4,4 90 0 1 4,4 v 4 h -4 v -3 h -4 v 10 h 4 v -3 h 4 v 4 a 4,4 90 0 1 -4,4 h -4 -80 -10 -4 a 4,4 90 0 1 -4,-4 v -4 -1 h -6 v 3 h -2 v -8 h 2 v 3 h 6 z" style="fill:#7cd622;fill-opacity:1;stroke:#57ad02;stroke-width:1;stroke-linecap:round;stroke-opacity:1"/><text id="text4327" style="font-size:10px;font-family:sans-serif;text-anchor:end;fill:#282828"><tspan id="tspan4325" x="104" y="13">E</tspan></text></g></g><g id="g4345" transform="translate(445,183)"><g id="g4343" transform="scale(1.5)"><path id="path4337" d="m 8.5,0.5 h 85.024414 v 20 H 8.5 v -8 -1 h -6 v 3 h -2 v -8 h 2 v 3 h 6 v -1 z" style="fill:#7cd622;fill-opacity:1;stroke:#57ad02;stroke-width:1;stroke-linecap:round;stroke-opacity:1"/><text id="text4341" style="font-size:10px;font-family:sans-serif;text-anchor:start;fill:#282828"><tspan id="tspan4339" x="13" y="14">current pitch</tspan></text></g></g></g></svg>