<svg xmlns="http://www.w3.org/2000/svg" xmlns:svg="http://www.w3.org/2000/svg" id="svg252" width="390.037" height="270.843" version="1.1"><metadata id="metadata258"/><g id="g58" transform="translate(0,0.42153745)"><g id="g56" transform="scale(1.5)"><path id="path50" d="m 0.5,14.5 v -4 a 4,4 90 0 1 4,-4 h 4 l 5,-6 5,6 h 9 60 4 a 4,4 90 0 1 4,4 v 4 4 4 a 4,4 90 0 1 -4,4 h -4 -60 -1 v 2 h -8 v -2 h -1 -4 a 5,5 90 0 0 -5,5 v 4 4 105 4 a 5,5 90 0 0 5,5 h 4 v 2 h 10 v -2 h 8 v 6 6 4 a 4,4 90 0 1 -4,4 h -4 -9 l -5,6 -5,-6 h -4 a 4,4 90 0 1 -4,-4 v -4 z" style="fill:#7cd622;fill-opacity:1;stroke:#57ad02;stroke-width:1;stroke-linecap:round;stroke-opacity:1"/><text id="text54" style="font-size:10px;font-family:sans-serif;text-anchor:start;fill:#282828"><tspan id="tspan52" x="20" y="22">status</tspan></text></g></g><g id="g76" transform="matrix(0.5,0,0,0.5,2,16.421537)"><g id="g74" style="isolation:isolate"><g id="g72" data-name="レイヤー 2"><g id="g70"><rect id="rect60" width="42" height="42" x="0" y="0" rx="5" ry="5" style="opacity:.4;mix-blend-mode:multiply;fill:#292929"/><path id="path62" d="m 30.56,29.8 -4.17,-4.16 h 2.26 a 1.035,1.035 0 1 0 0,-2.07 h -4.71 a 1.08,1.08 0 0 0 -1.11,1 v 0 c 0,0 0,0 0,0.06 v 4.64 0 a 1.04,1.04 0 1 0 2.08,0 v -2.19 l 4.19,4.19 a 1,1 0 0 0 1.46,0 1,1 0 0 0 0,-1.47 z" style="fill:#fff"/><path id="path64" d="m 19.17,24.6 a 1.08,1.08 0 0 0 -1.11,-1 h -4.71 a 1.035,1.035 0 1 0 0,2.07 h 2.25 l -4.16,4.13 a 1.039447,1.039447 0 0 0 1.47,1.47 l 4.18,-4.19 v 2.26 a 1.04,1.04 0 1 0 2.08,0 V 24.7 c 0,0 0,0 0,-0.06 a 0.08,0.08 0 0 1 0,-0.04 z" style="fill:#fff"/><path id="path66" d="m 23.94,20.5 h 4.7 a 1.04,1.04 0 1 0 0,-2.08 h -2.25 l 4.17,-4.16 a 1,1 0 0 0 0,-1.47 1,1 0 0 0 -1.46,0 L 24.91,17 v -2.28 a 1.04,1.04 0 1 0 -2.08,0 v 4.64 a 0.43,0.43 0 0 0 0,0.05 v 0.05 a 1.09,1.09 0 0 0 1.11,1.04 z" style="fill:#fff"/><path id="path68" d="m 18.13,13.62 a 1.08,1.08 0 0 0 -1,1.09 V 17 l -4.18,-4.19 a 1,1 0 0 0 -1.47,0 1,1 0 0 0 0,1.46 l 4.16,4.17 h -2.29 a 1.04,1.04 0 1 0 0,2.08 h 4.71 a 1.09,1.09 0 0 0 1.11,-1 c 0,0 0,0 0,-0.06 v -4.75 a 1.07,1.07 0 0 0 -1.04,-1.09 z" style="fill:#fff"/></g></g></g></g><g id="g92" transform="translate(14,73.421537)"><g id="g90" transform="scale(1.5)"><path id="path80" d="m 0.5,8.5 v -4 a 4,4 90 0 1 4,-4 h 4 v 2 h 10 v -2 h 30 4 a 4,4 90 0 1 4,4 v 4 h -4 v -3 h -4 v 10 h 4 v -3 h 4 v 4 a 4,4 90 0 1 -4,4 h -4 -30 -1 v 2 h -8 v -2 h -1 -4 a 4,4 90 0 1 -4,-4 v -4 z" style="fill:#c4c4c4;fill-opacity:1;stroke:#a0a0a0;stroke-width:1;stroke-linecap:round;stroke-opacity:1"/><text id="text84" style="font-size:10px;font-family:sans-serif;text-anchor:end;fill:#282828"><tspan id="tspan82" x="46" y="14">print</tspan></text></g></g><g id="g102" transform="translate(88,73.421537)"><g id="g100" transform="scale(1.5)"><path id="path94" d="m 8.5,0.5 h 76.704102 v 20 H 8.5 v -8 -1 h -6 v 3 h -2 v -8 h 2 v 3 h 6 v -1 z" style="fill:#fe994f;fill-opacity:1;stroke:#e86b0e;stroke-width:1;stroke-linecap:round;stroke-opacity:1"/><text id="text98" style="font-size:10px;font-family:sans-serif;text-anchor:start;fill:#282828"><tspan id="tspan96" x="13" y="14">beat count</tspan></text></g></g><g id="g116" transform="translate(14,105.42154)"><g id="g114" transform="scale(1.5)"><path id="path104" d="m 0.5,8.5 v -4 a 4,4 90 0 1 4,-4 h 4 v 2 h 10 v -2 h 30 4 a 4,4 90 0 1 4,4 v 4 h -4 v -3 h -4 v 10 h 4 v -3 h 4 v 4 a 4,4 90 0 1 -4,4 h -4 -30 -1 v 2 h -8 v -2 h -1 -4 a 4,4 90 0 1 -4,-4 v -4 z" style="fill:#c4c4c4;fill-opacity:1;stroke:#a0a0a0;stroke-width:1;stroke-linecap:round;stroke-opacity:1"/><text id="text108" style="font-size:10px;font-family:sans-serif;text-anchor:end;fill:#282828"><tspan id="tspan106" x="46" y="14">print</tspan></text></g></g><g id="g126" transform="translate(88,105.42154)"><g id="g124" transform="scale(1.5)"><path id="path118" d="m 8.5,0.5 h 96.14746 v 20 H 8.5 v -8 -1 h -6 v 3 h -2 v -8 h 2 v 3 h 6 v -1 z" style="fill:#fe994f;fill-opacity:1;stroke:#e86b0e;stroke-width:1;stroke-linecap:round;stroke-opacity:1"/><text id="text122" style="font-size:10px;font-family:sans-serif;text-anchor:start;fill:#282828"><tspan id="tspan120" x="13" y="14">measure count</tspan></text></g></g><g id="g140" transform="translate(14,137.42154)"><g id="g138" transform="scale(1.5)"><path id="path128" d="m 0.5,8.5 v -4 a 4,4 90 0 1 4,-4 h 4 v 2 h 10 v -2 h 30 4 a 4,4 90 0 1 4,4 v 4 h -4 v -3 h -4 v 10 h 4 v -3 h 4 v 4 a 4,4 90 0 1 -4,4 h -4 -30 -1 v 2 h -8 v -2 h -1 -4 a 4,4 90 0 1 -4,-4 v -4 z" style="fill:#c4c4c4;fill-opacity:1;stroke:#a0a0a0;stroke-width:1;stroke-linecap:round;stroke-opacity:1"/><text id="text132" style="font-size:10px;font-family:sans-serif;text-anchor:end;fill:#282828"><tspan id="tspan130" x="46" y="14">print</tspan></text></g></g><g id="g150" transform="translate(174,137.42154)"><g id="g148" transform="scale(1.5)"><path id="path142" d="m 8.5,0.5 h 115.61523 v 20 H 8.5 v -8 -1 h -6 v 3 h -2 v -8 h 2 v 3 h 6 v -1 z" style="fill:#fe994f;fill-opacity:1;stroke:#e86b0e;stroke-width:1;stroke-linecap:round;stroke-opacity:1"/><text id="text146" style="font-size:10px;font-family:sans-serif;text-anchor:start;fill:#282828"><tspan id="tspan144" x="13" y="14">whole notes played</tspan></text></g></g><g id="g164" transform="translate(14,201.42154)"><g id="g162" transform="scale(1.5)"><path id="path152" d="m 0.5,8.5 v -4 a 4,4 90 0 1 4,-4 h 4 v 2 h 10 v -2 h 30 4 a 4,4 90 0 1 4,4 v 4 h -4 v -3 h -4 v 10 h 4 v -3 h 4 v 4 a 4,4 90 0 1 -4,4 h -4 -30 -1 v 2 h -8 v -2 h -1 -4 a 4,4 90 0 1 -4,-4 v -4 z" style="fill:#c4c4c4;fill-opacity:1;stroke:#a0a0a0;stroke-width:1;stroke-linecap:round;stroke-opacity:1"/><text id="text156" style="font-size:10px;font-family:sans-serif;text-anchor:end;fill:#282828"><tspan id="tspan154" x="46" y="14">print</tspan></text></g></g><g id="g174" transform="translate(88,201.42154)"><g id="g172" transform="scale(1.5)"><path id="path166" d="m 8.5,0.5 h 104.4873 v 20 H 8.5 v -8 -1 h -6 v 3 h -2 v -8 h 2 v 3 h 6 v -1 z" style="fill:#fe994f;fill-opacity:1;stroke:#e86b0e;stroke-width:1;stroke-linecap:round;stroke-opacity:1"/><text id="text170" style="font-size:10px;font-family:sans-serif;text-anchor:start;fill:#282828"><tspan id="tspan168" x="13" y="14">beats per minute</tspan></text></g></g><g id="g188" transform="translate(14,41.421537)"><g id="g186" transform="scale(1.5)"><path id="path176" d="m 0.5,8.5 v -4 a 4,4 90 0 1 4,-4 h 4 v 2 h 10 v -2 h 30 4 a 4,4 90 0 1 4,4 v 4 h -4 v -3 h -4 v 10 h 4 v -3 h 4 v 4 a 4,4 90 0 1 -4,4 h -4 -30 -1 v 2 h -8 v -2 h -1 -4 a 4,4 90 0 1 -4,-4 v -4 z" style="fill:#c4c4c4;fill-opacity:1;stroke:#a0a0a0;stroke-width:1;stroke-linecap:round;stroke-opacity:1"/><text id="text180" style="font-size:10px;font-family:sans-serif;text-anchor:end;fill:#282828"><tspan id="tspan178" x="46" y="14">print</tspan></text></g></g><g id="g202" transform="translate(88,41.421537)"><g id="g200" transform="scale(1.5)"><path id="path190" d="m 8.5,8.5 v -4 a 4,4 90 0 1 4,-4 h 4 10 80 4 a 4,4 90 0 1 4,4 v 4 h -4 v -3 h -4 v 10 h 4 v -3 h 4 v 4 a 4,4 90 0 1 -4,4 h -4 -80 -10 -4 a 4,4 90 0 1 -4,-4 v -4 -1 h -6 v 3 h -2 v -8 h 2 v 3 h 6 z" style="fill:#7cd622;fill-opacity:1;stroke:#57ad02;stroke-width:1;stroke-linecap:round;stroke-opacity:1"/><text id="text194" style="font-size:10px;font-family:sans-serif;text-anchor:end;fill:#282828"><tspan id="tspan192" x="104" y="13">E</tspan></text></g></g><g id="g212" transform="translate(249,41.421537)"><g id="g210" transform="scale(1.5)"><path id="path204" d="m 8.5,0.5 h 85.024414 v 20 H 8.5 v -8 -1 h -6 v 3 h -2 v -8 h 2 v 3 h 6 v -1 z" style="fill:#7cd622;fill-opacity:1;stroke:#57ad02;stroke-width:1;stroke-linecap:round;stroke-opacity:1"/><text id="text208" style="font-size:10px;font-family:sans-serif;text-anchor:start;fill:#282828"><tspan id="tspan206" x="13" y="14">current pitch</tspan></text></g></g><g id="g230" transform="translate(88,137.42154)"><g id="g228" transform="scale(1.5)"><path id="path214" d="m 8.5,8.5 v -4 a 4,4 90 0 1 4,-4 h 4 10 30 4 a 4,4 90 0 1 4,4 v 4 h -4 v -3 h -4 v 10 h 4 v -3 h 4 v 17 h -4 v -3 h -4 v 10 h 4 v -3 h 4 v 4 a 4,4 90 0 1 -4,4 h -4 -30 -10 -4 a 4,4 90 0 1 -4,-4 v -4 -21 -1 h -6 v 3 h -2 v -8 h 2 v 3 h 6 z" style="fill:#ff6ea1;fill-opacity:1;stroke:#ff2c76;stroke-width:1;stroke-linecap:round;stroke-opacity:1"/><text id="text218" style="font-size:14px;font-family:sans-serif;text-anchor:end;fill:#282828"><tspan id="tspan216" x="54" y="24">×</tspan></text></g></g><g id="g240" transform="translate(174,169.42154)"><g id="g238" transform="scale(1.5)"><path id="path232" d="m 8.5,0.5 h 60 v 20 h -60 v -8 -1 h -6 v 3 h -2 v -8 h 2 v 3 h 6 v -1 z" style="fill:#ff6ea1;fill-opacity:1;stroke:#ff2c76;stroke-width:1;stroke-linecap:round;stroke-opacity:1"/><text id="text236" style="font-size:10px;font-family:sans-serif;text-anchor:start;fill:#282828"><tspan id="tspan234" x="13" y="14">4</tspan></text></g></g><g id="g250" transform="translate(14,169.42154)"><g id="g248" transform="scale(1.5)"><path id="path242" d="m 0.5,8.5 v -4 a 4,4 90 0 1 4,-4 h 4 v 2 h 10 v -2 h 20 4 a 4,4 90 0 1 4,4 v 4 4 4 a 4,4 90 0 1 -4,4 h -4 -20 -1 v 2 h -8 v -2 h -1 -4 a 4,4 90 0 1 -4,-4 v -4 z" style="fill:#c4c4c4;fill-opacity:1;stroke:#a0a0a0;stroke-width:1;stroke-linecap:round;stroke-opacity:1"/><text id="text246" style="font-size:10px;font-family:sans-serif;text-anchor:end;fill:#282828"><tspan id="tspan244" x="36" y="14">↓</tspan></text></g></g></svg>