<svg xmlns="http://www.w3.org/2000/svg" xmlns:svg="http://www.w3.org/2000/svg" id="svg2" width="500.468" height="63.134" version="1.2" viewBox="0 0 57.963 7.312"><metadata id="metadata194"/><line id="line8" x1=".043" x2="57.92" y1="5.78" y2="5.78" style="stroke:currentColor;stroke-width:.0848;stroke-linecap:round;stroke-linejoin:round"/><line id="line10" x1=".043" x2="57.92" y1="4.78" y2="4.78" style="stroke:currentColor;stroke-width:.0848;stroke-linecap:round;stroke-linejoin:round"/><line id="line12" x1=".043" x2="57.92" y1="3.78" y2="3.78" style="stroke:currentColor;stroke-width:.0848;stroke-linecap:round;stroke-linejoin:round"/><line id="line14" x1=".043" x2="57.92" y1="2.78" y2="2.78" style="stroke:currentColor;stroke-width:.0848;stroke-linecap:round;stroke-linejoin:round"/><line id="line16" x1=".043" x2="57.92" y1="1.78" y2="1.78" style="stroke:currentColor;stroke-width:.0848;stroke-linecap:round;stroke-linejoin:round"/><rect id="rect18" width=".161" height="4" x="19.66" y="1.78" ry="0" style="fill:currentColor"/><rect id="rect20" width=".161" height="4" x="57.801" y="1.78" ry="0" style="fill:currentColor"/><rect id="rect22" width=".161" height="4" x="30.245" y="1.78" ry="0" style="fill:currentColor"/><rect id="rect24" width=".161" height="4" x="46.66" y="1.78" ry="0" style="fill:currentColor"/><path id="path26" d="m 37.437004,2.2799849 c 0.028,-0.016 0.064,-0.024 0.096,-0.024 0.032,0 0.064,0.008 0.092,0.024 l -0.008,0.708 0.436,-0.072 c 0.004,0 0.008,-0.004 0.012,-0.004 0.036,0 0.068,0.032 0.068,0.068 l 0.028,2.3 c -0.028,0.016 -0.064,0.024 -0.096,0.024 -0.032,0 -0.068,-0.008 -0.096,-0.024 l 0.008,-0.708 -0.436,0.072 c -0.004,0 -0.004,0.004 -0.008,0.004 -0.036,0 -0.068,-0.032 -0.068,-0.068 z m 0.556,1.044 -0.38,0.06 -0.012,0.852 0.384,-0.06 z" style="fill:currentColor"/><circle id="circle28" cx="41.836" cy="3.28" r=".542" style="fill:currentColor;stroke:currentColor;stroke-width:0;stroke-linecap:round;stroke-linejoin:round"/><g id="g30" transform="translate(-10.942796,-3.1887151)" style="color:#fff"><text id="text32" font-size=".873" font-weight="bold" transform="translate(52.4639,6.797)" style="font-weight:700;font-size:.87330002px;font-family:sans-serif;text-anchor:start;fill:currentColor"><tspan id="tspan34">C</tspan></text></g><rect id="rect36" width=".11" height="3.302" x="41.294" y="3.478" ry=".031" style="fill:currentColor"/><circle id="circle38" cx="44.619" cy="2.78" r=".542" style="fill:currentColor;stroke:currentColor;stroke-width:0;stroke-linecap:round;stroke-linejoin:round"/><g id="g40" transform="translate(-10.942796,-3.1887151)" style="color:#fff"><text id="text42" font-size=".873" font-weight="bold" transform="translate(55.2074,6.297)" style="font-weight:700;font-size:.87330002px;font-family:sans-serif;text-anchor:start;fill:currentColor"><tspan id="tspan44">D</tspan></text></g><rect id="rect46" width=".11" height="3.302" x="44.077" y="2.978" ry=".031" style="fill:currentColor"/><circle id="circle48" cx="49.009" cy="2.28" r=".542" style="fill:currentColor;stroke:currentColor;stroke-width:0;stroke-linecap:round;stroke-linejoin:round"/><g id="g50" transform="translate(-10.942796,-3.1887151)" style="color:#fff"><text id="text52" font-size=".873" font-weight="bold" transform="translate(59.6499,5.797)" style="font-weight:700;font-size:.87330002px;font-family:sans-serif;text-anchor:start;fill:currentColor"><tspan id="tspan54">E</tspan></text></g><rect id="rect56" width=".11" height="3.302" x="36.688" y=".78" ry=".031" style="fill:currentColor"/><circle id="circle58" cx="39.053" cy="3.78" r=".542" style="fill:currentColor;stroke:currentColor;stroke-width:0;stroke-linecap:round;stroke-linejoin:round"/><g id="g60" transform="translate(-10.942796,-3.1887151)" style="color:#fff"><text id="text62" font-size=".873" font-weight="bold" transform="translate(49.6679,7.297)" style="font-weight:700;font-size:.87330002px;font-family:sans-serif;text-anchor:start;fill:currentColor"><tspan id="tspan64">B</tspan></text></g><rect id="rect66" width=".11" height="3.135" x="38.511" y="3.978" ry=".031" style="fill:currentColor"/><circle id="circle68" cx="54.575" cy="1.28" r=".542" style="fill:currentColor;stroke:currentColor;stroke-width:0;stroke-linecap:round;stroke-linejoin:round"/><g id="g70" transform="translate(-10.942796,-3.1887151)" style="color:#fff"><circle id="circle72" cx="0" cy="0" r=".432" transform="translate(65.5177,4.4687)" style="fill:currentColor;stroke:currentColor;stroke-width:0;stroke-linecap:round;stroke-linejoin:round"/></g><text id="text74" x="54.22" y="1.608" font-size=".873" font-weight="bold" style="font-weight:700;font-size:.87330002px;font-family:sans-serif;text-anchor:start;fill:currentColor"><tspan id="tspan76">G</tspan></text><rect id="rect78" width=".11" height="3.23" x="54.033" y="1.55" ry=".031" style="fill:currentColor"/><path id="path80" d="m 47.392704,0.77998492 c 0.028,-0.016 0.064,-0.024 0.096,-0.024 0.032,0 0.064,0.008 0.092,0.024 l -0.008,0.70799998 0.436,-0.072 c 0.004,0 0.008,-0.004 0.012,-0.004 0.036,0 0.068,0.032 0.068,0.068 l 0.028,2.3 c -0.028,0.016 -0.064,0.024 -0.096,0.024 -0.032,0 -0.068,-0.008 -0.096,-0.024 l 0.008,-0.708 -0.436,0.072 c -0.004,0 -0.004,0.004 -0.008,0.004 -0.036,0 -0.068,-0.032 -0.068,-0.068 z m 0.556,1.04399998 -0.38,0.06 -0.012,0.852 0.384,-0.06 z" style="fill:currentColor"/><rect id="rect82" width=".11" height="3.302" x="48.467" y="2.478" ry=".031" style="fill:currentColor"/><circle id="circle84" cx="51.792" cy="1.78" r=".542" style="fill:currentColor;stroke:currentColor;stroke-width:0;stroke-linecap:round;stroke-linejoin:round"/><g id="g86" transform="translate(-10.942796,-3.1887151)" style="color:#fff"><text id="text88" font-size=".873" font-weight="bold" transform="translate(62.4327,5.297)" style="font-weight:700;font-size:.87330002px;font-family:sans-serif;text-anchor:start;fill:currentColor"><tspan id="tspan90">F</tspan></text></g><rect id="rect92" width=".11" height="3.302" x="51.25" y="1.978" ry=".031" style="fill:currentColor"/><circle id="circle94" cx="12.054" cy="3.78" r=".542" style="fill:currentColor;stroke:currentColor;stroke-width:0;stroke-linecap:round;stroke-linejoin:round"/><g id="g96" transform="translate(-10.942796,-3.1887151)" style="color:#fff"><text id="text98" font-size=".873" font-weight="bold" transform="translate(22.6688,7.297)" style="font-weight:700;font-size:.87330002px;font-family:sans-serif;text-anchor:start;fill:currentColor"><tspan id="tspan100">B</tspan></text></g><rect id="rect102" width=".11" height="3.135" x="11.512" y="3.978" ry=".031" style="fill:currentColor"/><circle id="circle104" cx="14.837" cy="3.28" r=".542" style="fill:currentColor;stroke:currentColor;stroke-width:0;stroke-linecap:round;stroke-linejoin:round"/><g id="g106" transform="translate(-10.942796,-3.1887151)" style="color:#fff"><text id="text108" font-size=".873" font-weight="bold" transform="translate(25.4648,6.797)" style="font-weight:700;font-size:.87330002px;font-family:sans-serif;text-anchor:start;fill:currentColor"><tspan id="tspan110">C</tspan></text></g><rect id="rect112" width=".11" height="3.302" x="14.295" y="3.478" ry=".031" style="fill:currentColor"/><circle id="circle114" cx="17.62" cy="2.78" r=".542" style="fill:currentColor;stroke:currentColor;stroke-width:0;stroke-linecap:round;stroke-linejoin:round"/><g id="g116" transform="translate(-10.942796,-3.1887151)" style="color:#fff"><text id="text118" font-size=".873" font-weight="bold" transform="translate(28.2083,6.297)" style="font-weight:700;font-size:.87330002px;font-family:sans-serif;text-anchor:start;fill:currentColor"><tspan id="tspan120">D</tspan></text></g><rect id="rect122" width=".11" height="3.302" x="17.078" y="2.978" ry=".031" style="fill:currentColor"/><path id="path124" d="m 31.609504,3.6039849 -0.004,0.276 c 0,0.016 -0.004,0.028 -0.004,0.044 0,0.088 0.008,0.176 0.016,0.264 0.184,-0.152 0.384,-0.32 0.384,-0.556 0,-0.136 -0.056,-0.276 -0.176,-0.276 -0.124,0 -0.212,0.116 -0.216,0.248 z m -0.156,0.72 -0.044,-2.396 c 0.032,-0.016 0.064,-0.028 0.1,-0.028 0.036,0 0.068,0.012 0.1,0.028 l -0.024,1.396 c 0.104,-0.076 0.224,-0.12 0.352,-0.12 0.212,0 0.372,0.184 0.372,0.4 0,0.328 -0.36,0.472 -0.612,0.676 -0.056,0.044 -0.088,0.128 -0.16,0.128 -0.048,0 -0.084,-0.036 -0.084,-0.084 z" style="fill:currentColor"/><path id="path126" d="m 32.513304,2.1039849 -0.004,0.276 c 0,0.016 -0.004,0.028 -0.004,0.044 0,0.088 0.008,0.176 0.016,0.264 0.184,-0.152 0.384,-0.32 0.384,-0.556 0,-0.136 -0.056,-0.276 -0.176,-0.276 -0.124,0 -0.212,0.116 -0.216,0.248 z m -0.156,0.72 -0.044,-2.39599998 c 0.032,-0.016 0.064,-0.028 0.1,-0.028 0.036,0 0.068,0.012 0.1,0.028 l -0.024,1.39599998 c 0.104,-0.076 0.224,-0.12 0.352,-0.12 0.212,0 0.372,0.184 0.372,0.4 0,0.328 -0.36,0.472 -0.612,0.676 -0.056,0.044 -0.088,0.128 -0.16,0.128 -0.048,0 -0.084,-0.036 -0.084,-0.084 z" style="fill:currentColor"/><rect id="rect128" width=".11" height="3.302" x="9.689" y=".78" ry=".031" style="fill:currentColor"/><path id="path130" d="m 6.4406039,3.6799849 c -0.204,0 -0.304,-0.172 -0.304,-0.308 0,-0.156 0.112,-0.312 0.296,-0.312 0.024,0 0.052,0 0.072,0.004 -0.116,-0.148 -0.304,-0.24 -0.504,-0.24 -0.424,0 -0.452,0.292 -0.452,0.74 0,0.068 0.004,0.14 0.004,0.216 0,0.076 -0.004,0.148 -0.004,0.216 0,0.448 0.028,0.74 0.452,0.74 0.328,0 0.58,-0.272 0.656,-0.604 0.004,-0.024 0.024,-0.036 0.04,-0.036 0.024,0 0.044,0.016 0.044,0.044 0,0.376 -0.428,0.684 -0.74,0.684 -0.272,0 -0.548,-0.08 -0.736,-0.276 -0.196,-0.204 -0.264,-0.488 -0.264,-0.768 0,-0.28 0.068,-0.564 0.264,-0.768 0.188,-0.196 0.464,-0.276 0.736,-0.276 0.352,0 0.652,0.252 0.712,0.596 0.004,0.02 0.008,0.032 0.008,0.052 0,0.16 -0.128,0.296 -0.28,0.296 z" style="fill:currentColor"/><path id="path132" d="m 2.2966039,3.7399849 c 0.02,0 0.04,-0.004 0.06,-0.004 0.616,0 1.016,0.508 1.016,1.036 0,0.304 -0.132,0.612 -0.428,0.832 -0.088,0.068 -0.188,0.116 -0.292,0.148 0.012,0.144 0.02,0.288 0.02,0.432 0,0.076 0,0.148 -0.004,0.224 -0.028,0.48 -0.352,0.904 -0.824,0.904 -0.432,0 -0.78,-0.348 -0.78,-0.78 0,-0.232 0.212,-0.416 0.448,-0.416 0.216,0 0.38,0.192 0.38,0.416 0,0.208 -0.172,0.38 -0.38,0.38 -0.048,0 -0.096,-0.016 -0.14,-0.036 0.104,0.164 0.28,0.28 0.484,0.28 0.384,0 0.628,-0.372 0.652,-0.772 0.004,-0.072 0.008,-0.14 0.008,-0.212 0,-0.128 -0.008,-0.256 -0.02,-0.384 -0.116,0.02 -0.232,0.032 -0.356,0.032 -0.752,0 -1.33200002,-0.684 -1.33200002,-1.488 0,-0.712 0.53200002,-1.224 1.00400002,-1.76 -0.072,-0.252 -0.14,-0.504 -0.168,-0.764 -0.024,-0.204 -0.028,-0.408 -0.028,-0.616 0,-0.46399998 0.22,-0.90399998 0.6,-1.17999998 0.008,-0.008 0.02,-0.01200000038 0.032,-0.01200000038 0.012,0 0.024,0.0040000004 0.032,0.01200000038 0.28,0.336 0.528,0.984 0.528,1.43599998 0,0.576 -0.348,1.024 -0.732,1.46 0.08,0.276 0.156,0.552 0.22,0.832 z m 0.34,1.86 c 0.276,-0.096 0.468,-0.384 0.468,-0.664 0,-0.368 -0.276,-0.736 -0.716,-0.772 0.1,0.468 0.192,0.94 0.248,1.436 z m -1.552,-0.944 c 0,0.544 0.524,1.004 1.068,1.004 0.112,0 0.22,-0.008 0.328,-0.024 -0.06,-0.512 -0.152,-0.988 -0.256,-1.468 -0.316,0.036 -0.5,0.248 -0.5,0.484 0,0.176 0.104,0.368 0.328,0.496 0.016,0.016 0.028,0.036 0.028,0.056 0,0.044 -0.036,0.084 -0.08,0.084 -0.012,0 -0.024,-0.004 -0.036,-0.008 -0.32,-0.172 -0.464,-0.456 -0.464,-0.736 0,-0.352 0.228,-0.692 0.632,-0.784 -0.056,-0.24 -0.12,-0.476 -0.184,-0.712 -0.432,0.484 -0.864,0.968 -0.864,1.608 z m 1.36,-4.07599998 c -0.396,0.2 -0.644,0.60399998 -0.644,1.04799998 0,0.304 0.06,0.548 0.132,0.8 0.328,-0.388 0.596,-0.792 0.596,-1.3 0,-0.23199998 -0.016,-0.33599998 -0.084,-0.54799998 z" style="fill:currentColor"/><circle id="circle134" cx="9.257" cy="4.28" r=".542" style="fill:currentColor;stroke:currentColor;stroke-width:0;stroke-linecap:round;stroke-linejoin:round"/><g id="g136" transform="translate(-10.942796,-3.1887151)" style="color:#fff"><text id="text138" font-size=".873" font-weight="bold" transform="translate(19.8579,7.797)" style="font-weight:700;font-size:.87330002px;font-family:sans-serif;text-anchor:start;fill:currentColor"><tspan id="tspan140">A</tspan></text></g><circle id="circle142" cx="21.453" cy="2.28" r=".542" style="fill:currentColor;stroke:currentColor;stroke-width:0;stroke-linecap:round;stroke-linejoin:round"/><g id="g144" transform="translate(-10.942796,-3.1887151)" style="color:#fff"><text id="text146" font-size=".873" font-weight="bold" transform="translate(32.0934,5.797)" style="font-weight:700;font-size:.87330002px;font-family:sans-serif;text-anchor:start;fill:currentColor"><tspan id="tspan148">E</tspan></text></g><circle id="circle150" cx="24.236" cy="1.78" r=".542" style="fill:currentColor;stroke:currentColor;stroke-width:0;stroke-linecap:round;stroke-linejoin:round"/><g id="g152" transform="translate(-10.942796,-3.1887151)" style="color:#fff"><text id="text154" font-size=".873" font-weight="bold" transform="translate(34.8763,5.297)" style="font-weight:700;font-size:.87330002px;font-family:sans-serif;text-anchor:start;fill:currentColor"><tspan id="tspan156">F</tspan></text></g><rect id="rect158" width=".11" height="3.302" x="23.693" y="1.978" ry=".031" style="fill:currentColor"/><circle id="circle160" cx="27.018" cy="1.28" r=".542" style="fill:currentColor;stroke:currentColor;stroke-width:0;stroke-linecap:round;stroke-linejoin:round"/><g id="g162" transform="translate(-10.942796,-3.1887151)" style="color:#fff"><circle id="circle164" cx="0" cy="0" r=".432" transform="translate(37.9612,4.4687)" style="fill:currentColor;stroke:currentColor;stroke-width:0;stroke-linecap:round;stroke-linejoin:round"/></g><text id="text166" x="26.664" y="1.608" font-size=".873" font-weight="bold" style="font-weight:700;font-size:.87330002px;font-family:sans-serif;text-anchor:start;fill:currentColor"><tspan id="tspan168">G</tspan></text><rect id="rect170" width=".11" height="3.23" x="26.476" y="1.55" ry=".031" style="fill:currentColor"/><circle id="circle172" cx="36.256" cy="4.28" r=".542" style="fill:currentColor;stroke:currentColor;stroke-width:0;stroke-linecap:round;stroke-linejoin:round"/><g id="g174" transform="translate(-10.942796,-3.1887151)" style="color:#fff"><text id="text176" font-size=".873" font-weight="bold" transform="translate(46.857,7.797)" style="font-weight:700;font-size:.87330002px;font-family:sans-serif;text-anchor:start;fill:currentColor"><tspan id="tspan178">A</tspan></text></g><rect id="rect180" width=".11" height="3.302" x="20.91" y="2.478" ry=".031" style="fill:currentColor"/></svg>