<svg xmlns="http://www.w3.org/2000/svg" xmlns:svg="http://www.w3.org/2000/svg" id="svg2" width="293.915" height="270.357" version="1.2" viewBox="0 0 34.04 31.312"><metadata id="metadata308"/><g id="g1022" transform="translate(-7.5975059,1.508038e-5)"><line id="line8" x1="7.64" x2="41.596" y1="5.78" y2="5.78" style="stroke:currentColor;stroke-width:.0848;stroke-linecap:round;stroke-linejoin:round"/><line id="line10" x1="7.64" x2="41.596" y1="4.78" y2="4.78" style="stroke:currentColor;stroke-width:.0848;stroke-linecap:round;stroke-linejoin:round"/><line id="line12" x1="7.64" x2="41.596" y1="3.78" y2="3.78" style="stroke:currentColor;stroke-width:.0848;stroke-linecap:round;stroke-linejoin:round"/><line id="line14" x1="7.64" x2="41.596" y1="2.78" y2="2.78" style="stroke:currentColor;stroke-width:.0848;stroke-linecap:round;stroke-linejoin:round"/><line id="line16" x1="7.64" x2="41.596" y1="1.78" y2="1.78" style="stroke:currentColor;stroke-width:.0848;stroke-linecap:round;stroke-linejoin:round"/><rect id="rect18" width=".161" height="4" x="38.169" y="1.78" ry="0" style="fill:currentColor"/><rect id="rect20" width=".161" height="4" x="27.678" y="1.78" ry="0" style="fill:currentColor"/><rect id="rect22" width="1.627" height=".185" x="16.04" y="6.688" ry=".092" style="fill:currentColor"/><circle id="circle24" cx="32.065" cy="4.28" r=".542" style="fill:currentColor;stroke:currentColor;stroke-width:0;stroke-linecap:round;stroke-linejoin:round"/><g id="g26" transform="translate(-3.3458942,-3.1887151)" style="color:#fff"><text id="text28" font-size=".873" font-weight="bold" transform="translate(35.1087,7.797)" style="font-weight:700;font-size:.8733px;font-family:sans-serif;text-anchor:start;fill:currentColor"><tspan id="tspan30">6</tspan></text></g><circle id="circle32" cx="29.282" cy="4.78" r=".542" style="fill:currentColor;stroke:currentColor;stroke-width:0;stroke-linecap:round;stroke-linejoin:round"/><g id="g34" transform="translate(-3.3458942,-3.1887151)" style="color:#fff"><text id="text36" font-size=".873" font-weight="bold" transform="translate(32.3259,8.297)" style="font-weight:700;font-size:.8733px;font-family:sans-serif;text-anchor:start;fill:currentColor"><tspan id="tspan38">5</tspan></text></g><rect id="rect40" width=".11" height="3.302" x="29.714" y="1.28" ry=".031" style="fill:currentColor"/><rect id="rect46" width=".11" height="3.302" x="32.497" y=".78" ry=".031" style="fill:currentColor"/><rect id="rect48" width=".11" height="3.063" x="34.31" y="4.05" ry=".031" style="fill:currentColor"/><circle id="circle50" cx="34.852" cy="3.78" r=".542" style="fill:currentColor;stroke:currentColor;stroke-width:0;stroke-linecap:round;stroke-linejoin:round"/><g id="g52" transform="translate(-3.3458942,-3.1887151)" style="color:#fff"><circle id="circle54" cx="0" cy="0" r=".432" transform="translate(38.1982,6.9687)" style="fill:currentColor;stroke:currentColor;stroke-width:0;stroke-linecap:round;stroke-linejoin:round"/></g><text id="text56" x="34.55" y="4.108" font-size=".873" font-weight="bold" style="font-weight:700;font-size:.8733px;font-family:sans-serif;text-anchor:start;fill:currentColor"><tspan id="tspan58">7</tspan></text><circle id="circle60" cx="19.636" cy="6.28" r=".542" style="fill:currentColor;stroke:currentColor;stroke-width:0;stroke-linecap:round;stroke-linejoin:round"/><g id="g62" transform="translate(-3.3458942,-3.1887151)" style="color:#fff"><text id="text64" font-size=".873" font-weight="bold" transform="translate(22.6802,9.797)" style="font-weight:700;font-size:.8733px;font-family:sans-serif;text-anchor:start;fill:currentColor"><tspan id="tspan66">2</tspan></text></g><rect id="rect68" width=".11" height="3.302" x="17.286" y="3.28" ry=".031" style="fill:currentColor"/><path id="path70" d="m 14.037506,3.6799849 c -0.204,0 -0.304,-0.172 -0.304,-0.308 0,-0.156 0.112,-0.312 0.296,-0.312 0.024,0 0.052,0 0.072,0.004 -0.116,-0.148 -0.304,-0.24 -0.504,-0.24 -0.424,0 -0.452,0.292 -0.452,0.74 0,0.068 0.004,0.14 0.004,0.216 0,0.076 -0.004,0.148 -0.004,0.216 0,0.448 0.028,0.74 0.452,0.74 0.328,0 0.58,-0.272 0.656,-0.604 0.004,-0.024 0.024,-0.036 0.04,-0.036 0.024,0 0.044,0.016 0.044,0.044 0,0.376 -0.428,0.684 -0.74,0.684 -0.272,0 -0.548,-0.08 -0.736,-0.276 -0.196,-0.204 -0.264,-0.488 -0.264,-0.768 0,-0.28 0.068,-0.564 0.264,-0.768 0.188,-0.196 0.464,-0.276 0.736,-0.276 0.352,0 0.652,0.252 0.712,0.596 0.004,0.02 0.008,0.032 0.008,0.052 0,0.16 -0.128,0.296 -0.28,0.296 z" style="fill:currentColor"/><path id="path72" d="m 9.8935058,3.7399849 c 0.02,0 0.04,-0.004 0.06,-0.004 0.6160002,0 1.0160002,0.508 1.0160002,1.036 0,0.304 -0.132,0.612 -0.428,0.832 -0.088,0.068 -0.188,0.116 -0.292,0.148 0.012,0.144 0.02,0.288 0.02,0.432 0,0.076 0,0.148 -0.004,0.224 -0.028,0.48 -0.3520002,0.904 -0.8240002,0.904 -0.432,0 -0.78,-0.348 -0.78,-0.78 0,-0.232 0.212,-0.416 0.448,-0.416 0.216,0 0.38,0.192 0.38,0.416 0,0.208 -0.172,0.38 -0.38,0.38 -0.048,0 -0.096,-0.016 -0.14,-0.036 0.104,0.164 0.28,0.28 0.484,0.28 0.384,0 0.6280002,-0.372 0.6520002,-0.772 0.004,-0.072 0.008,-0.14 0.008,-0.212 0,-0.128 -0.008,-0.256 -0.02,-0.384 -0.1160002,0.02 -0.2320002,0.032 -0.3560002,0.032 -0.752,0 -1.332,-0.684 -1.332,-1.488 0,-0.712 0.532,-1.224 1.004,-1.76 -0.072,-0.252 -0.14,-0.504 -0.168,-0.764 -0.024,-0.204 -0.028,-0.408 -0.028,-0.616 0,-0.46399998 0.22,-0.90399998 0.6,-1.17999998 0.008,-0.008 0.02,-0.01200000038 0.032,-0.01200000038 0.012,0 0.024,0.0040000004 0.032,0.01200000038 0.2800002,0.336 0.5280002,0.984 0.5280002,1.43599998 0,0.576 -0.348,1.024 -0.7320002,1.46 0.08,0.276 0.156,0.552 0.22,0.832 z m 0.3400002,1.86 c 0.276,-0.096 0.468,-0.384 0.468,-0.664 0,-0.368 -0.276,-0.736 -0.7160002,-0.772 0.1000002,0.468 0.1920002,0.94 0.2480002,1.436 z m -1.5520002,-0.944 c 0,0.544 0.524,1.004 1.068,1.004 0.112,0 0.22,-0.008 0.3280002,-0.024 -0.06,-0.512 -0.1520002,-0.988 -0.2560002,-1.468 -0.316,0.036 -0.5,0.248 -0.5,0.484 0,0.176 0.104,0.368 0.328,0.496 0.016,0.016 0.028,0.036 0.028,0.056 0,0.044 -0.036,0.084 -0.08,0.084 -0.012,0 -0.024,-0.004 -0.036,-0.008 -0.32,-0.172 -0.464,-0.456 -0.464,-0.736 0,-0.352 0.228,-0.692 0.632,-0.784 -0.056,-0.24 -0.12,-0.476 -0.184,-0.712 -0.432,0.484 -0.864,0.968 -0.864,1.608 z M 10.041506,0.57998492 c -0.3960002,0.2 -0.6440002,0.60399998 -0.6440002,1.04799998 0,0.304 0.06,0.548 0.132,0.8 0.328,-0.388 0.5960002,-0.792 0.5960002,-1.3 0,-0.23199998 -0.016,-0.33599998 -0.084,-0.54799998 z" style="fill:currentColor"/><circle id="circle74" cx="16.853" cy="6.78" r=".542" style="fill:currentColor;stroke:currentColor;stroke-width:0;stroke-linecap:round;stroke-linejoin:round"/><g id="g76" transform="translate(-3.3458942,-3.1887151)" style="color:#fff"><text id="text78" font-size=".873" font-weight="bold" transform="translate(19.8973,10.297)" style="font-weight:700;font-size:.8733px;font-family:sans-serif;text-anchor:start;fill:currentColor"><tspan id="tspan80">1</tspan></text></g><circle id="circle82" cx="22.419" cy="5.78" r=".542" style="fill:currentColor;stroke:currentColor;stroke-width:0;stroke-linecap:round;stroke-linejoin:round"/><g id="g84" transform="translate(-3.3458942,-3.1887151)" style="color:#fff"><text id="text86" font-size=".873" font-weight="bold" transform="translate(25.4631,9.297)" style="font-weight:700;font-size:.8733px;font-family:sans-serif;text-anchor:start;fill:currentColor"><tspan id="tspan88">3</tspan></text></g><rect id="rect90" width=".11" height="3.302" x="25.634" y="1.78" ry=".031" style="fill:currentColor"/><circle id="circle92" cx="25.202" cy="5.28" r=".542" style="fill:currentColor;stroke:currentColor;stroke-width:0;stroke-linecap:round;stroke-linejoin:round"/><g id="g94" transform="translate(-3.3458942,-3.1887151)" style="color:#fff"><text id="text96" font-size=".873" font-weight="bold" transform="translate(28.2459,8.797)" style="font-weight:700;font-size:.8733px;font-family:sans-serif;text-anchor:start;fill:currentColor"><tspan id="tspan98">4</tspan></text></g><rect id="rect100" width=".11" height="3.302" x="22.851" y="2.28" ry=".031" style="fill:currentColor"/><rect id="rect102" width=".11" height="3.302" x="20.069" y="2.78" ry=".031" style="fill:currentColor"/></g><line style="stroke:currentColor;stroke-width:.0848;stroke-linecap:round;stroke-linejoin:round" id="line104" x1=".042" x2="33.081" y1="17.78" y2="17.78"/><line style="stroke:currentColor;stroke-width:.0848;stroke-linecap:round;stroke-linejoin:round" id="line106" x1=".042" x2="33.081" y1="16.78" y2="16.78"/><line style="stroke:currentColor;stroke-width:.0848;stroke-linecap:round;stroke-linejoin:round" id="line108" x1=".042" x2="33.081" y1="15.78" y2="15.78"/><line style="stroke:currentColor;stroke-width:.0848;stroke-linecap:round;stroke-linejoin:round" id="line110" x1=".042" x2="33.081" y1="14.78" y2="14.78"/><line style="stroke:currentColor;stroke-width:.0848;stroke-linecap:round;stroke-linejoin:round" id="line112" x1=".042" x2="33.081" y1="13.78" y2="13.78"/><rect style="fill:currentColor" id="rect114" width=".161" height="4" x="30.129" y="13.78" ry="0"/><rect style="fill:currentColor" id="rect116" width=".161" height="4" x="19.589" y="13.78" ry="0"/><rect style="fill:currentColor" id="rect118" width=".11" height="3.302" x="23.594" y="14.478" ry=".031"/><circle style="fill:currentColor;stroke:currentColor;stroke-width:0;stroke-linecap:round;stroke-linejoin:round" id="circle120" cx="24.136" cy="14.28" r=".542"/><g style="color:#fff" id="g122" transform="translate(-4.3773,-3.1887)"><text style="font-weight:700;font-size:.8733px;font-family:sans-serif;text-anchor:start;fill:currentColor" id="text124" font-size=".873" font-weight="bold" transform="translate(28.2114,17.797)"><tspan id="tspan126">6</tspan></text></g><circle style="fill:currentColor;stroke:currentColor;stroke-width:0;stroke-linecap:round;stroke-linejoin:round" id="circle128" cx="21.353" cy="14.78" r=".542"/><g style="color:#fff" id="g130" transform="translate(-4.3773,-3.1887)"><text style="font-weight:700;font-size:.8733px;font-family:sans-serif;text-anchor:start;fill:currentColor" id="text132" font-size=".873" font-weight="bold" transform="translate(25.4285,18.297)"><tspan id="tspan134">5</tspan></text></g><rect style="fill:currentColor" id="rect136" width=".11" height="3.302" x="20.811" y="14.978" ry=".031"/><rect style="fill:currentColor" id="rect142" width=".11" height="3.23" x="26.377" y="14.05" ry=".031"/><circle style="fill:currentColor;stroke:currentColor;stroke-width:0;stroke-linecap:round;stroke-linejoin:round" id="circle144" cx="26.919" cy="13.78" r=".542"/><g style="color:#fff" id="g146" transform="translate(-4.3773,-3.1887)"><circle style="fill:currentColor;stroke:currentColor;stroke-width:0;stroke-linecap:round;stroke-linejoin:round" id="circle148" cx="0" cy="0" r=".432" transform="translate(31.2963,16.9687)"/></g><text style="font-weight:700;font-size:.8733px;font-family:sans-serif;text-anchor:start;fill:currentColor" id="text150" x="26.617" y="14.108" font-size=".873" font-weight="bold"><tspan id="tspan152">7</tspan></text><rect style="fill:currentColor" id="rect154" width=".11" height="3.302" x="9.582" y="13.28" ry=".031"/><circle style="fill:currentColor;stroke:currentColor;stroke-width:0;stroke-linecap:round;stroke-linejoin:round" id="circle156" cx="9.15" cy="16.78" r=".542"/><g style="color:#fff" id="g158" transform="translate(-4.3773,-3.1887)"><text style="font-weight:700;font-size:.8733px;font-family:sans-serif;text-anchor:start;fill:currentColor" id="text160" font-size=".873" font-weight="bold" transform="translate(13.2252,20.297)"><tspan id="tspan162">1</tspan></text></g><path style="fill:currentColor" id="path164" d="m 2.296,15.74 c 0.02,0 0.04,-0.004 0.06,-0.004 0.616,0 1.016,0.508 1.016,1.036 0,0.304 -0.132,0.612 -0.428,0.832 -0.088,0.068 -0.188,0.116 -0.292,0.148 0.012,0.144 0.02,0.288 0.02,0.432 0,0.076 0,0.148 -0.004,0.224 -0.028,0.48 -0.352,0.904 -0.824,0.904 -0.432,0 -0.78,-0.348 -0.78,-0.78 0,-0.232 0.212,-0.416 0.448,-0.416 0.216,0 0.38,0.192 0.38,0.416 0,0.208 -0.172,0.38 -0.38,0.38 -0.048,0 -0.096,-0.016 -0.14,-0.036 0.104,0.164 0.28,0.28 0.484,0.28 0.384,0 0.628,-0.372 0.652,-0.772 0.004,-0.072 0.008,-0.14 0.008,-0.212 0,-0.128 -0.008,-0.256 -0.02,-0.384 C 2.38,17.808 2.264,17.82 2.14,17.82 1.388,17.82 0.80799999,17.136 0.80799999,16.332 0.80799999,15.62 1.34,15.108 1.812,14.572 1.74,14.32 1.672,14.068 1.644,13.808 1.62,13.604 1.616,13.4 1.616,13.192 c 0,-0.464 0.22,-0.904 0.6,-1.18 C 2.224,12.004 2.236,12 2.248,12 c 0.012,0 0.024,0.004 0.032,0.012 0.28,0.336 0.528,0.984 0.528,1.436 0,0.576 -0.348,1.024 -0.732,1.46 0.08,0.276 0.156,0.552 0.22,0.832 z m 0.34,1.86 c 0.276,-0.096 0.468,-0.384 0.468,-0.664 0,-0.368 -0.276,-0.736 -0.716,-0.772 0.1,0.468 0.192,0.94 0.248,1.436 z M 1.084,16.656 c 0,0.544 0.524,1.004 1.068,1.004 0.112,0 0.22,-0.008 0.328,-0.024 -0.06,-0.512 -0.152,-0.988 -0.256,-1.468 -0.316,0.036 -0.5,0.248 -0.5,0.484 0,0.176 0.104,0.368 0.328,0.496 0.016,0.016 0.028,0.036 0.028,0.056 0,0.044 -0.036,0.084 -0.08,0.084 -0.012,0 -0.024,-0.004 -0.036,-0.008 C 1.644,17.108 1.5,16.824 1.5,16.544 1.5,16.192 1.728,15.852 2.132,15.76 2.076,15.52 2.012,15.284 1.948,15.048 1.516,15.532 1.084,16.016 1.084,16.656 Z M 2.444,12.58 C 2.048,12.78 1.8,13.184 1.8,13.628 c 0,0.304 0.06,0.548 0.132,0.8 0.328,-0.388 0.596,-0.792 0.596,-1.3 0,-0.232 -0.016,-0.336 -0.084,-0.548 z"/><path style="fill:currentColor" id="path170" d="m 4.5038,15.604 -0.004,0.276 c 0,0.016 -0.004,0.028 -0.004,0.044 0,0.088 0.008,0.176 0.016,0.264 0.184,-0.152 0.384,-0.32 0.384,-0.556 0,-0.136 -0.056,-0.276 -0.176,-0.276 -0.124,0 -0.212,0.116 -0.216,0.248 z m -0.156,0.72 -0.044,-2.396 c 0.032,-0.016 0.064,-0.028 0.1,-0.028 0.036,0 0.068,0.012 0.1,0.028 l -0.024,1.396 c 0.104,-0.076 0.224,-0.12 0.352,-0.12 0.212,0 0.372,0.184 0.372,0.4 0,0.328 -0.36,0.472 -0.612,0.676 -0.056,0.044 -0.088,0.128 -0.16,0.128 -0.048,0 -0.084,-0.036 -0.084,-0.084 z"/><path style="fill:currentColor" id="path172" d="m 5.4075,14.104 -0.004,0.276 c 0,0.016 -0.004,0.028 -0.004,0.044 0,0.088 0.008,0.176 0.016,0.264 0.184,-0.152 0.384,-0.32 0.384,-0.556 0,-0.136 -0.056,-0.276 -0.176,-0.276 -0.124,0 -0.212,0.116 -0.216,0.248 z m -0.156,0.72 -0.044,-2.396 c 0.032,-0.016 0.064,-0.028 0.1,-0.028 0.036,0 0.068,0.012 0.1,0.028 l -0.024,1.396 c 0.104,-0.076 0.224,-0.12 0.352,-0.12 0.212,0 0.372,0.184 0.372,0.4 0,0.328 -0.36,0.472 -0.612,0.676 -0.056,0.044 -0.088,0.128 -0.16,0.128 -0.048,0 -0.084,-0.036 -0.084,-0.084 z"/><circle style="fill:currentColor;stroke:currentColor;stroke-width:0;stroke-linecap:round;stroke-linejoin:round" id="circle174" cx="17.514" cy="15.28" r=".542"/><g style="color:#fff" id="g176" transform="translate(-4.3773,-3.1887)"><text style="font-weight:700;font-size:.8733px;font-family:sans-serif;text-anchor:start;fill:currentColor" id="text178" font-size=".873" font-weight="bold" transform="translate(21.5887,18.797)"><tspan id="tspan180">4</tspan></text></g><rect style="fill:currentColor" id="rect182" width=".11" height="3.302" x="16.971" y="15.478" ry=".031"/><rect style="fill:currentColor" id="rect184" width=".11" height="3.135" x="14.188" y="15.978" ry=".031"/><circle style="fill:currentColor;stroke:currentColor;stroke-width:0;stroke-linecap:round;stroke-linejoin:round" id="circle186" cx="14.731" cy="15.78" r=".542"/><g style="color:#fff" id="g188" transform="translate(-4.3773,-3.1887)"><text style="font-weight:700;font-size:.8733px;font-family:sans-serif;text-anchor:start;fill:currentColor" id="text190" font-size=".873" font-weight="bold" transform="translate(18.8058,19.297)"><tspan id="tspan192">3</tspan></text></g><rect style="fill:currentColor" id="rect194" width=".11" height="3.302" x="12.365" y="12.78" ry=".031"/><circle style="fill:currentColor;stroke:currentColor;stroke-width:0;stroke-linecap:round;stroke-linejoin:round" id="circle196" cx="11.933" cy="16.28" r=".542"/><g style="color:#fff" id="g198" transform="translate(-4.3773,-3.1887)"><text style="font-weight:700;font-size:.8733px;font-family:sans-serif;text-anchor:start;fill:currentColor" id="text200" font-size=".873" font-weight="bold" transform="translate(16.0081,19.797)"><tspan id="tspan202">2</tspan></text></g><line style="stroke:currentColor;stroke-width:.0848;stroke-linecap:round;stroke-linejoin:round" id="line204" x1=".042" x2="27.716" y1="29.78" y2="29.78"/><line style="stroke:currentColor;stroke-width:.0848;stroke-linecap:round;stroke-linejoin:round" id="line206" x1=".042" x2="27.716" y1="28.78" y2="28.78"/><line style="stroke:currentColor;stroke-width:.0848;stroke-linecap:round;stroke-linejoin:round" id="line208" x1=".042" x2="27.716" y1="27.78" y2="27.78"/><line style="stroke:currentColor;stroke-width:.0848;stroke-linecap:round;stroke-linejoin:round" id="line210" x1=".042" x2="27.716" y1="26.78" y2="26.78"/><line style="stroke:currentColor;stroke-width:.0848;stroke-linecap:round;stroke-linejoin:round" id="line212" x1=".042" x2="27.716" y1="25.78" y2="25.78"/><rect style="fill:currentColor" id="rect214" width=".161" height="4" x="17.132" y="25.78" ry="0"/><rect style="fill:currentColor" id="rect216" width=".161" height="4" x="27.597" y="25.78" ry="0"/><rect style="fill:currentColor" id="rect218" width=".11" height="3.302" x="19.168" y="24.78" ry=".031"/><circle style="fill:currentColor;stroke:currentColor;stroke-width:0;stroke-linecap:round;stroke-linejoin:round" id="circle220" cx="18.735" cy="28.28" r=".542"/><g style="color:#fff" id="g222" transform="translate(-4.3773,-3.1887)"><text style="font-weight:700;font-size:.8733px;font-family:sans-serif;text-anchor:start;fill:currentColor" id="text224" font-size=".873" font-weight="bold" transform="translate(22.8106,31.797)"><tspan id="tspan226">5</tspan></text></g><circle style="fill:currentColor;stroke:currentColor;stroke-width:0;stroke-linecap:round;stroke-linejoin:round" id="circle228" cx="21.533" cy="27.78" r=".542"/><g style="color:#fff" id="g230" transform="translate(-4.3773,-3.1887)"><text style="font-weight:700;font-size:.8733px;font-family:sans-serif;text-anchor:start;fill:currentColor" id="text232" font-size=".873" font-weight="bold" transform="translate(25.6083,31.297)"><tspan id="tspan234">6</tspan></text></g><rect style="fill:currentColor" id="rect236" width=".11" height="3.23" x="23.774" y="27.55" ry=".031"/><circle style="fill:currentColor;stroke:currentColor;stroke-width:0;stroke-linecap:round;stroke-linejoin:round" id="circle238" cx="24.316" cy="27.28" r=".542"/><g style="color:#fff" id="g240" transform="translate(-4.3773,-3.1887)"><circle style="fill:currentColor;stroke:currentColor;stroke-width:0;stroke-linecap:round;stroke-linejoin:round" id="circle242" cx="0" cy="0" r=".432" transform="translate(28.6932,30.4687)"/></g><text style="font-weight:700;font-size:.8733px;font-family:sans-serif;text-anchor:start;fill:currentColor" id="text244" x="24.014" y="27.608" font-size=".873" font-weight="bold"><tspan id="tspan246">7</tspan></text><rect style="fill:currentColor" id="rect248" width=".11" height="3.135" x="20.991" y="27.978" ry=".031"/><path style="fill:currentColor" id="path250" d="m 2.296,27.74 c 0.02,0 0.04,-0.004 0.06,-0.004 0.616,0 1.016,0.508 1.016,1.036 0,0.304 -0.132,0.612 -0.428,0.832 -0.088,0.068 -0.188,0.116 -0.292,0.148 0.012,0.144 0.02,0.288 0.02,0.432 0,0.076 0,0.148 -0.004,0.224 -0.028,0.48 -0.352,0.904 -0.824,0.904 -0.432,0 -0.78,-0.348 -0.78,-0.78 0,-0.232 0.212,-0.416 0.448,-0.416 0.216,0 0.38,0.192 0.38,0.416 0,0.208 -0.172,0.38 -0.38,0.38 -0.048,0 -0.096,-0.016 -0.14,-0.036 0.104,0.164 0.28,0.28 0.484,0.28 0.384,0 0.628,-0.372 0.652,-0.772 0.004,-0.072 0.008,-0.14 0.008,-0.212 0,-0.128 -0.008,-0.256 -0.02,-0.384 C 2.38,29.808 2.264,29.82 2.14,29.82 1.388,29.82 0.80799999,29.136 0.80799999,28.332 0.80799999,27.62 1.34,27.108 1.812,26.572 1.74,26.32 1.672,26.068 1.644,25.808 1.62,25.604 1.616,25.4 1.616,25.192 c 0,-0.464 0.22,-0.904 0.6,-1.18 C 2.224,24.004 2.236,24 2.248,24 c 0.012,0 0.024,0.004 0.032,0.012 0.28,0.336 0.528,0.984 0.528,1.436 0,0.576 -0.348,1.024 -0.732,1.46 0.08,0.276 0.156,0.552 0.22,0.832 z m 0.34,1.86 c 0.276,-0.096 0.468,-0.384 0.468,-0.664 0,-0.368 -0.276,-0.736 -0.716,-0.772 0.1,0.468 0.192,0.94 0.248,1.436 z M 1.084,28.656 c 0,0.544 0.524,1.004 1.068,1.004 0.112,0 0.22,-0.008 0.328,-0.024 -0.06,-0.512 -0.152,-0.988 -0.256,-1.468 -0.316,0.036 -0.5,0.248 -0.5,0.484 0,0.176 0.104,0.368 0.328,0.496 0.016,0.016 0.028,0.036 0.028,0.056 0,0.044 -0.036,0.084 -0.08,0.084 -0.012,0 -0.024,-0.004 -0.036,-0.008 C 1.644,29.108 1.5,28.824 1.5,28.544 1.5,28.192 1.728,27.852 2.132,27.76 2.076,27.52 2.012,27.284 1.948,27.048 1.516,27.532 1.084,28.016 1.084,28.656 Z M 2.444,24.58 C 2.048,24.78 1.8,25.184 1.8,25.628 c 0,0.304 0.06,0.548 0.132,0.8 0.328,-0.388 0.596,-0.792 0.596,-1.3 0,-0.232 -0.016,-0.336 -0.084,-0.548 z"/><circle style="fill:currentColor;stroke:currentColor;stroke-width:0;stroke-linecap:round;stroke-linejoin:round" id="circle252" cx="6.342" cy="30.28" r=".542"/><g style="color:#fff" id="g254" transform="translate(-4.3773,-3.1887)"><text style="font-weight:700;font-size:.8733px;font-family:sans-serif;text-anchor:start;fill:currentColor" id="text256" font-size=".873" font-weight="bold" transform="translate(10.4177,33.797)"><tspan id="tspan258">1</tspan></text></g><rect style="fill:currentColor" id="rect260" width=".11" height="3.302" x="6.775" y="26.78" ry=".031"/><rect style="fill:currentColor" id="rect266" width=".11" height="3.302" x="12.34" y="25.78" ry=".031"/><circle style="fill:currentColor;stroke:currentColor;stroke-width:0;stroke-linecap:round;stroke-linejoin:round" id="circle268" cx="11.908" cy="29.28" r=".542"/><g style="color:#fff" id="g270" transform="translate(-4.3773,-3.1887)"><text style="font-weight:700;font-size:.8733px;font-family:sans-serif;text-anchor:start;fill:currentColor" id="text272" font-size=".873" font-weight="bold" transform="translate(15.9835,32.797)"><tspan id="tspan274">3</tspan></text></g><rect style="fill:currentColor" id="rect276" width=".11" height="3.302" x="9.557" y="26.28" ry=".031"/><circle style="fill:currentColor;stroke:currentColor;stroke-width:0;stroke-linecap:round;stroke-linejoin:round" id="circle278" cx="9.125" cy="29.78" r=".542"/><g style="color:#fff" id="g280" transform="translate(-4.3773,-3.1887)"><text style="font-weight:700;font-size:.8733px;font-family:sans-serif;text-anchor:start;fill:currentColor" id="text282" font-size=".873" font-weight="bold" transform="translate(13.2006,33.297)"><tspan id="tspan284">2</tspan></text></g><circle style="fill:currentColor;stroke:currentColor;stroke-width:0;stroke-linecap:round;stroke-linejoin:round" id="circle286" cx="14.691" cy="28.78" r=".542"/><g style="color:#fff" id="g288" transform="translate(-4.3773,-3.1887)"><text style="font-weight:700;font-size:.8733px;font-family:sans-serif;text-anchor:start;fill:currentColor" id="text290" font-size=".873" font-weight="bold" transform="translate(18.7664,32.297)"><tspan id="tspan292">4</tspan></text></g><rect style="fill:currentColor" id="rect294" width=".11" height="3.302" x="15.123" y="25.28" ry=".031"/></svg>