<svg xmlns="http://www.w3.org/2000/svg" xmlns:svg="http://www.w3.org/2000/svg" id="svg2" width="392.462" height="185.25" version="1.2" viewBox="0 0 45.454 21.455"><metadata id="metadata264"/><line id="line8" x1="7.64" x2="45.411" y1="5.78" y2="5.78" style="stroke:currentColor;stroke-width:.0848;stroke-linecap:round;stroke-linejoin:round"/><line id="line10" x1="7.64" x2="45.411" y1="4.78" y2="4.78" style="stroke:currentColor;stroke-width:.0848;stroke-linecap:round;stroke-linejoin:round"/><line id="line12" x1="7.64" x2="45.411" y1="3.78" y2="3.78" style="stroke:currentColor;stroke-width:.0848;stroke-linecap:round;stroke-linejoin:round"/><line id="line14" x1="7.64" x2="45.411" y1="2.78" y2="2.78" style="stroke:currentColor;stroke-width:.0848;stroke-linecap:round;stroke-linejoin:round"/><line id="line16" x1="7.64" x2="45.411" y1="1.78" y2="1.78" style="stroke:currentColor;stroke-width:.0848;stroke-linecap:round;stroke-linejoin:round"/><rect id="rect18" width="1.627" height=".185" x="16.04" y="6.688" ry=".092" style="fill:currentColor"/><rect id="rect20" width=".161" height="4" x="30.568" y="1.78" ry="0" style="fill:currentColor"/><rect id="rect22" width=".161" height="4" x="42.692" y="1.78" ry="0" style="fill:currentColor"/><text id="text24" x="30.189" y="9.608" font-size="2.47" style="font-size:2.46950006px;font-family:serif;text-anchor:start;fill:currentColor"><tspan id="tspan26">Sol</tspan></text><rect id="rect28" width=".11" height="3.302" x="36.587" y=".78" ry=".031" style="fill:currentColor"/><text id="text30" x="34.605" y="9.608" font-size="2.47" style="font-size:2.46950006px;font-family:serif;text-anchor:start;fill:currentColor"><tspan id="tspan32">La</tspan></text><circle id="circle34" cx="36.154" cy="4.28" r=".542" style="fill:currentColor;stroke:currentColor;stroke-width:0;stroke-linecap:round;stroke-linejoin:round"/><g id="g36" transform="translate(-3.3458942,-3.1887151)" style="color:#fff"><text id="text38" font-size=".873" font-weight="bold" transform="translate(39.1982,7.797)" style="font-weight:700;font-size:.87330002px;font-family:sans-serif;text-anchor:start;fill:currentColor"><tspan id="tspan40">6</tspan></text></g><rect id="rect42" width=".11" height="3.302" x="32.604" y="1.28" ry=".031" style="fill:currentColor"/><path id="path44" d="m 44.713306,3.0439849 c 0,0.036 -0.032,0.068 -0.068,0.068 -0.036,0 -0.068,-0.032 -0.068,-0.068 l 0,-0.604 -0.348,0.124 0,0.648 c 0,0.036 -0.032,0.068 -0.068,0.068 -0.036,0 -0.068,-0.032 -0.068,-0.068 l 0,-0.6 -0.156,0.052 c -0.04,0.016 -0.084,-0.016 -0.084,-0.06 l 0,-0.256 c 0,-0.028 0.02,-0.052 0.044,-0.06 l 0.196,-0.072 0,-0.656 -0.156,0.056 c -0.04,0.016 -0.084,-0.016 -0.084,-0.06 l 0,-0.26 c 0,-0.028 0.02,-0.052 0.044,-0.06 l 0.196,-0.068 0,-0.65199998 c 0,-0.036 0.032,-0.068 0.068,-0.068 0.036,0 0.068,0.032 0.068,0.068 l 0,0.60399998 0.348,-0.12399998 0,-0.648 c 0,-0.036 0.032,-0.068 0.068,-0.068 0.036,0 0.068,0.032 0.068,0.068 l 0,0.6 0.156,-0.052 c 0.04,-0.016 0.084,0.016 0.084,0.06 l 0,0.25599998 c 0,0.028 -0.02,0.052 -0.044,0.06 l -0.196,0.072 0,0.656 0.156,-0.056 c 0.04,-0.016 0.084,0.016 0.084,0.06 l 0,0.26 c 0,0.028 -0.02,0.052 -0.044,0.06 l -0.196,0.068 0,0.652 z m -0.484,-1.532 0,0.656 0.348,-0.12 0,-0.656 z" style="fill:currentColor"/><rect id="rect46" width=".11" height="3.063" x="38.833" y="4.05" ry=".031" style="fill:currentColor"/><text id="text48" x="38.154" y="9.608" font-size="2.47" style="font-size:2.46950006px;font-family:serif;text-anchor:start;fill:currentColor"><tspan id="tspan50">Ti</tspan></text><circle id="circle52" cx="39.375" cy="3.78" r=".542" style="fill:currentColor;stroke:currentColor;stroke-width:0;stroke-linecap:round;stroke-linejoin:round"/><g id="g54" transform="translate(-3.3458942,-3.1887151)" style="color:#fff"><circle id="circle56" cx="0" cy="0" r=".432" transform="translate(42.7211,6.9687)" style="fill:currentColor;stroke:currentColor;stroke-width:0;stroke-linecap:round;stroke-linejoin:round"/></g><text id="text58" x="39.073" y="4.108" font-size=".873" font-weight="bold" style="font-weight:700;font-size:.87330002px;font-family:sans-serif;text-anchor:start;fill:currentColor"><tspan id="tspan60">7</tspan></text><rect id="rect62" width=".11" height="3.302" x="21.137" y="2.78" ry=".031" style="fill:currentColor"/><text id="text64" x="19.037" y="9.608" font-size="2.47" style="font-size:2.46950006px;font-family:serif;text-anchor:start;fill:currentColor"><tspan id="tspan66">Re</tspan></text><circle id="circle68" cx="20.705" cy="6.28" r=".542" style="fill:currentColor;stroke:currentColor;stroke-width:0;stroke-linecap:round;stroke-linejoin:round"/><g id="g70" transform="translate(-3.3458942,-3.1887151)" style="color:#fff"><text id="text72" font-size=".873" font-weight="bold" transform="translate(23.7485,9.797)" style="font-weight:700;font-size:.87330002px;font-family:sans-serif;text-anchor:start;fill:currentColor"><tspan id="tspan74">2</tspan></text></g><circle id="circle76" cx="32.172" cy="4.78" r=".542" style="fill:currentColor;stroke:currentColor;stroke-width:0;stroke-linecap:round;stroke-linejoin:round"/><g id="g78" transform="translate(-3.3458942,-3.1887151)" style="color:#fff"><text id="text80" font-size=".873" font-weight="bold" transform="translate(35.2156,8.297)" style="font-weight:700;font-size:.87330002px;font-family:sans-serif;text-anchor:start;fill:currentColor"><tspan id="tspan82">5</tspan></text></g><rect id="rect84" width=".11" height="3.302" x="17.286" y="3.28" ry=".031" style="fill:currentColor"/><text id="text86" x="15.12" y="9.608" font-size="2.47" style="font-size:2.46950006px;font-family:serif;text-anchor:start;fill:currentColor"><tspan id="tspan88">Do</tspan></text><path id="path90" d="m 14.037506,3.6799849 c -0.204,0 -0.304,-0.172 -0.304,-0.308 0,-0.156 0.112,-0.312 0.296,-0.312 0.024,0 0.052,0 0.072,0.004 -0.116,-0.148 -0.304,-0.24 -0.504,-0.24 -0.424,0 -0.452,0.292 -0.452,0.74 0,0.068 0.004,0.14 0.004,0.216 0,0.076 -0.004,0.148 -0.004,0.216 0,0.448 0.028,0.74 0.452,0.74 0.328,0 0.58,-0.272 0.656,-0.604 0.004,-0.024 0.024,-0.036 0.04,-0.036 0.024,0 0.044,0.016 0.044,0.044 0,0.376 -0.428,0.684 -0.74,0.684 -0.272,0 -0.548,-0.08 -0.736,-0.276 -0.196,-0.204 -0.264,-0.488 -0.264,-0.768 0,-0.28 0.068,-0.564 0.264,-0.768 0.188,-0.196 0.464,-0.276 0.736,-0.276 0.352,0 0.652,0.252 0.712,0.596 0.004,0.02 0.008,0.032 0.008,0.052 0,0.16 -0.128,0.296 -0.28,0.296 z" style="fill:currentColor"/><path id="path92" d="m 9.8935058,3.7399849 c 0.02,0 0.04,-0.004 0.06,-0.004 0.6160002,0 1.0160002,0.508 1.0160002,1.036 0,0.304 -0.132,0.612 -0.428,0.832 -0.088,0.068 -0.188,0.116 -0.292,0.148 0.012,0.144 0.02,0.288 0.02,0.432 0,0.076 0,0.148 -0.004,0.224 -0.028,0.48 -0.3520002,0.904 -0.8240002,0.904 -0.432,0 -0.78,-0.348 -0.78,-0.78 0,-0.232 0.212,-0.416 0.448,-0.416 0.216,0 0.38,0.192 0.38,0.416 0,0.208 -0.172,0.38 -0.38,0.38 -0.048,0 -0.096,-0.016 -0.14,-0.036 0.104,0.164 0.28,0.28 0.484,0.28 0.384,0 0.6280002,-0.372 0.6520002,-0.772 0.004,-0.072 0.008,-0.14 0.008,-0.212 0,-0.128 -0.008,-0.256 -0.02,-0.384 -0.1160002,0.02 -0.2320002,0.032 -0.3560002,0.032 -0.752,0 -1.332,-0.684 -1.332,-1.488 0,-0.712 0.532,-1.224 1.004,-1.76 -0.072,-0.252 -0.14,-0.504 -0.168,-0.764 -0.024,-0.204 -0.028,-0.408 -0.028,-0.616 0,-0.46399998 0.22,-0.90399998 0.6,-1.17999998 0.008,-0.008 0.02,-0.01200000038 0.032,-0.01200000038 0.012,0 0.024,0.0040000004 0.032,0.01200000038 0.2800002,0.336 0.5280002,0.984 0.5280002,1.43599998 0,0.576 -0.348,1.024 -0.7320002,1.46 0.08,0.276 0.156,0.552 0.22,0.832 z m 0.3400002,1.86 c 0.276,-0.096 0.468,-0.384 0.468,-0.664 0,-0.368 -0.276,-0.736 -0.7160002,-0.772 0.1000002,0.468 0.1920002,0.94 0.2480002,1.436 z m -1.5520002,-0.944 c 0,0.544 0.524,1.004 1.068,1.004 0.112,0 0.22,-0.008 0.3280002,-0.024 -0.06,-0.512 -0.1520002,-0.988 -0.2560002,-1.468 -0.316,0.036 -0.5,0.248 -0.5,0.484 0,0.176 0.104,0.368 0.328,0.496 0.016,0.016 0.028,0.036 0.028,0.056 0,0.044 -0.036,0.084 -0.08,0.084 -0.012,0 -0.024,-0.004 -0.036,-0.008 -0.32,-0.172 -0.464,-0.456 -0.464,-0.736 0,-0.352 0.228,-0.692 0.632,-0.784 -0.056,-0.24 -0.12,-0.476 -0.184,-0.712 -0.432,0.484 -0.864,0.968 -0.864,1.608 z M 10.041506,0.57998492 c -0.3960002,0.2 -0.6440002,0.60399998 -0.6440002,1.04799998 0,0.304 0.06,0.548 0.132,0.8 0.328,-0.388 0.5960002,-0.792 0.5960002,-1.3 0,-0.23199998 -0.016,-0.33599998 -0.084,-0.54799998 z" style="fill:currentColor"/><circle id="circle94" cx="16.853" cy="6.78" r=".542" style="fill:currentColor;stroke:currentColor;stroke-width:0;stroke-linecap:round;stroke-linejoin:round"/><g id="g96" transform="translate(-3.3458942,-3.1887151)" style="color:#fff"><text id="text98" font-size=".873" font-weight="bold" transform="translate(19.8973,10.297)" style="font-weight:700;font-size:.87330002px;font-family:sans-serif;text-anchor:start;fill:currentColor"><tspan id="tspan100">1</tspan></text></g><rect id="rect102" width=".11" height="3.302" x="28.524" y="1.78" ry=".031" style="fill:currentColor"/><text id="text104" x="26.582" y="9.608" font-size="2.47" style="font-size:2.46950006px;font-family:serif;text-anchor:start;fill:currentColor"><tspan id="tspan106">Fa</tspan></text><circle id="circle108" cx="28.092" cy="5.28" r=".542" style="fill:currentColor;stroke:currentColor;stroke-width:0;stroke-linecap:round;stroke-linejoin:round"/><g id="g110" transform="translate(-3.3458942,-3.1887151)" style="color:#fff"><text id="text112" font-size=".873" font-weight="bold" transform="translate(31.1357,8.797)" style="font-weight:700;font-size:.87330002px;font-family:sans-serif;text-anchor:start;fill:currentColor"><tspan id="tspan114">4</tspan></text></g><rect id="rect116" width=".11" height="3.302" x="24.909" y="2.28" ry=".031" style="fill:currentColor"/><text id="text118" x="22.822" y="9.608" font-size="2.47" style="font-size:2.46950006px;font-family:serif;text-anchor:start;fill:currentColor"><tspan id="tspan120">Mi</tspan></text><circle id="circle122" cx="24.477" cy="5.78" r=".542" style="fill:currentColor;stroke:currentColor;stroke-width:0;stroke-linecap:round;stroke-linejoin:round"/><g id="g124" transform="translate(-3.3458942,-3.1887151)" style="color:#fff"><text id="text126" font-size=".873" font-weight="bold" transform="translate(27.5209,9.297)" style="font-weight:700;font-size:.87330002px;font-family:sans-serif;text-anchor:start;fill:currentColor"><tspan id="tspan128">3</tspan></text></g><line id="line130" x1="1.074" x2="35.187" y1="17.78" y2="17.78" style="stroke:currentColor;stroke-width:.0848;stroke-linecap:round;stroke-linejoin:round"/><line id="line132" x1="1.074" x2="35.187" y1="16.78" y2="16.78" style="stroke:currentColor;stroke-width:.0848;stroke-linecap:round;stroke-linejoin:round"/><line id="line134" x1="1.074" x2="35.187" y1="15.78" y2="15.78" style="stroke:currentColor;stroke-width:.0848;stroke-linecap:round;stroke-linejoin:round"/><line id="line136" x1="1.074" x2="35.187" y1="14.78" y2="14.78" style="stroke:currentColor;stroke-width:.0848;stroke-linecap:round;stroke-linejoin:round"/><line id="line138" x1="1.074" x2="35.187" y1="13.78" y2="13.78" style="stroke:currentColor;stroke-width:.0848;stroke-linecap:round;stroke-linejoin:round"/><rect id="rect140" width=".161" height="4" x="22.87" y="13.78" ry="0" style="fill:currentColor"/><rect id="rect142" width=".161" height="4" x="35.069" y="13.78" ry="0" style="fill:currentColor"/><circle id="circle144" cx="24.655" cy="14.78" r=".542" style="fill:currentColor;stroke:currentColor;stroke-width:0;stroke-linecap:round;stroke-linejoin:round"/><g id="g146" transform="translate(-3.3458942,-3.1887151)" style="color:#fff"><text id="text148" font-size=".873" font-weight="bold" transform="translate(27.6993,18.297)" style="font-weight:700;font-size:.87330002px;font-family:sans-serif;text-anchor:start;fill:currentColor"><tspan id="tspan150">5</tspan></text></g><rect id="rect152" width=".11" height="3.302" x="28.096" y="14.478" ry=".031" style="fill:currentColor"/><text id="text154" x="27.088" y="21.425" font-size="2.47" style="font-size:2.46950006px;font-family:serif;text-anchor:start;fill:currentColor"><tspan id="tspan156">La</tspan></text><circle id="circle158" cx="28.638" cy="14.28" r=".542" style="fill:currentColor;stroke:currentColor;stroke-width:0;stroke-linecap:round;stroke-linejoin:round"/><g id="g160" transform="translate(-3.3458942,-3.1887151)" style="color:#fff"><text id="text162" font-size=".873" font-weight="bold" transform="translate(31.6818,17.797)" style="font-weight:700;font-size:.87330002px;font-family:sans-serif;text-anchor:start;fill:currentColor"><tspan id="tspan164">6</tspan></text></g><rect id="rect166" width=".11" height="3.302" x="24.113" y="14.978" ry=".031" style="fill:currentColor"/><text id="text168" x="22.673" y="21.425" font-size="2.47" style="font-size:2.46950006px;font-family:serif;text-anchor:start;fill:currentColor"><tspan id="tspan170">Sol</tspan></text><rect id="rect172" width=".11" height="3.23" x="31.316" y="14.05" ry=".031" style="fill:currentColor"/><text id="text174" x="30.638" y="21.425" font-size="2.47" style="font-size:2.46950006px;font-family:serif;text-anchor:start;fill:currentColor"><tspan id="tspan176">Ti</tspan></text><circle id="circle178" cx="31.859" cy="13.78" r=".542" style="fill:currentColor;stroke:currentColor;stroke-width:0;stroke-linecap:round;stroke-linejoin:round"/><g id="g180" transform="translate(-3.3458942,-3.1887151)" style="color:#fff"><circle id="circle182" cx="0" cy="0" r=".432" transform="translate(35.2047,16.9687)" style="fill:currentColor;stroke:currentColor;stroke-width:0;stroke-linecap:round;stroke-linejoin:round"/></g><text id="text184" x="31.557" y="14.108" font-size=".873" font-weight="bold" style="font-weight:700;font-size:.87330002px;font-family:sans-serif;text-anchor:start;fill:currentColor"><tspan id="tspan186">7</tspan></text><path id="path188" d="m 3.3274058,15.739985 c 0.02,0 0.04,-0.004 0.06,-0.004 0.616,0 1.016,0.508 1.016,1.036 0,0.304 -0.132,0.612 -0.428,0.832 -0.088,0.068 -0.188,0.116 -0.292,0.148 0.012,0.144 0.02,0.288 0.02,0.432 0,0.076 0,0.148 -0.004,0.224 -0.028,0.48 -0.352,0.904 -0.824,0.904 -0.432,0 -0.78,-0.348 -0.78,-0.78 0,-0.232 0.212,-0.416 0.448,-0.416 0.216,0 0.38,0.192 0.38,0.416 0,0.208 -0.172,0.38 -0.38,0.38 -0.048,0 -0.096,-0.016 -0.14,-0.036 0.104,0.164 0.28,0.28 0.484,0.28 0.384,0 0.628,-0.372 0.652,-0.772 0.004,-0.072 0.008,-0.14 0.008,-0.212 0,-0.128 -0.008,-0.256 -0.02,-0.384 -0.116,0.02 -0.232,0.032 -0.356,0.032 -0.752,0 -1.332,-0.684 -1.332,-1.488 0,-0.712 0.532,-1.224 1.004,-1.76 -0.072,-0.252 -0.14,-0.504 -0.168,-0.764 -0.024,-0.204 -0.028,-0.408 -0.028,-0.616 0,-0.464 0.22,-0.904 0.6,-1.18 0.008,-0.008 0.02,-0.012 0.032,-0.012 0.012,0 0.024,0.004 0.032,0.012 0.28,0.336 0.528,0.984 0.528,1.436 0,0.576 -0.348,1.024 -0.732,1.46 0.08,0.276 0.156,0.552 0.22,0.832 z m 0.34,1.86 c 0.276,-0.096 0.468,-0.384 0.468,-0.664 0,-0.368 -0.276,-0.736 -0.716,-0.772 0.1,0.468 0.192,0.94 0.248,1.436 z m -1.552,-0.944 c 0,0.544 0.524,1.004 1.068,1.004 0.112,0 0.22,-0.008 0.328,-0.024 -0.06,-0.512 -0.152,-0.988 -0.256,-1.468 -0.316,0.036 -0.5,0.248 -0.5,0.484 0,0.176 0.104,0.368 0.328,0.496 0.016,0.016 0.028,0.036 0.028,0.056 0,0.044 -0.036,0.084 -0.08,0.084 -0.012,0 -0.024,-0.004 -0.036,-0.008 -0.32,-0.172 -0.464,-0.456 -0.464,-0.736 0,-0.352 0.228,-0.692 0.632,-0.784 -0.056,-0.24 -0.12,-0.476 -0.184,-0.712 -0.432,0.484 -0.864,0.968 -0.864,1.608 z m 1.36,-4.076 c -0.396,0.2 -0.644,0.604 -0.644,1.048 0,0.304 0.06,0.548 0.132,0.8 0.328,-0.388 0.596,-0.792 0.596,-1.3 0,-0.232 -0.016,-0.336 -0.084,-0.548 z" style="fill:currentColor"/><rect id="rect190" width=".11" height="3.302" x="9.906" y="13.28" ry=".031" style="fill:currentColor"/><text id="text192" x="7.74" y="21.425" font-size="2.47" style="font-size:2.46950006px;font-family:serif;text-anchor:start;fill:currentColor"><tspan id="tspan194">Do</tspan></text><circle id="circle196" cx="9.474" cy="16.78" r=".542" style="fill:currentColor;stroke:currentColor;stroke-width:0;stroke-linecap:round;stroke-linejoin:round"/><g id="g198" transform="translate(-3.3458942,-3.1887151)" style="color:#fff"><text id="text200" font-size=".873" font-weight="bold" transform="translate(12.5177,20.297)" style="font-weight:700;font-size:.87330002px;font-family:sans-serif;text-anchor:start;fill:currentColor"><tspan id="tspan202">1</tspan></text></g><text id="text204" x="-.072" y="12.711" font-size="1.746" style="font-size:1.74619997px;font-family:serif;text-anchor:start;fill:currentColor"><tspan id="tspan206">3</tspan></text><path id="path208" d="m 6.1914058,15.043985 c 0,0.036 -0.032,0.068 -0.068,0.068 -0.036,0 -0.068,-0.032 -0.068,-0.068 l 0,-0.604 -0.348,0.124 0,0.648 c 0,0.036 -0.032,0.068 -0.068,0.068 -0.036,0 -0.068,-0.032 -0.068,-0.068 l 0,-0.6 -0.156,0.052 c -0.04,0.016 -0.084,-0.016 -0.084,-0.06 l 0,-0.256 c 0,-0.028 0.02,-0.052 0.044,-0.06 l 0.196,-0.072 0,-0.656 -0.156,0.056 c -0.04,0.016 -0.084,-0.016 -0.084,-0.06 l 0,-0.26 c 0,-0.028 0.02,-0.052 0.044,-0.06 l 0.196,-0.068 0,-0.652 c 0,-0.036 0.032,-0.068 0.068,-0.068 0.036,0 0.068,0.032 0.068,0.068 l 0,0.604 0.348,-0.124 0,-0.648 c 0,-0.036 0.032,-0.068 0.068,-0.068 0.036,0 0.068,0.032 0.068,0.068 l 0,0.6 0.156,-0.052 c 0.04,-0.016 0.084,0.016 0.084,0.06 l 0,0.256 c 0,0.028 -0.02,0.052 -0.044,0.06 l -0.196,0.072 0,0.656 0.156,-0.056 c 0.04,-0.016 0.084,0.016 0.084,0.06 l 0,0.26 c 0,0.028 -0.02,0.052 -0.044,0.06 l -0.196,0.068 0,0.652 z m -0.484,-1.532 0,0.656 0.348,-0.12 0,-0.656 z" style="fill:currentColor"/><circle id="circle210" cx="13.325" cy="16.28" r=".542" style="fill:currentColor;stroke:currentColor;stroke-width:0;stroke-linecap:round;stroke-linejoin:round"/><g id="g212" transform="translate(-3.3458942,-3.1887151)" style="color:#fff"><text id="text214" font-size=".873" font-weight="bold" transform="translate(16.3689,19.797)" style="font-weight:700;font-size:.87330002px;font-family:sans-serif;text-anchor:start;fill:currentColor"><tspan id="tspan216">2</tspan></text></g><rect id="rect218" width=".11" height="3.302" x="20.17" y="15.478" ry=".031" style="fill:currentColor"/><text id="text220" x="19.202" y="21.425" font-size="2.47" style="font-size:2.46950006px;font-family:serif;text-anchor:start;fill:currentColor"><tspan id="tspan222">Fa</tspan></text><circle id="circle224" cx="20.712" cy="15.28" r=".542" style="fill:currentColor;stroke:currentColor;stroke-width:0;stroke-linecap:round;stroke-linejoin:round"/><g id="g226" transform="translate(-3.3458942,-3.1887151)" style="color:#fff"><text id="text228" font-size=".873" font-weight="bold" transform="translate(23.7562,18.797)" style="font-weight:700;font-size:.87330002px;font-family:sans-serif;text-anchor:start;fill:currentColor"><tspan id="tspan230">4</tspan></text></g><rect id="rect232" width=".11" height="3.135" x="16.555" y="15.978" ry=".031" style="fill:currentColor"/><text id="text234" x="15.443" y="21.425" font-size="2.47" style="font-size:2.46950006px;font-family:serif;text-anchor:start;fill:currentColor"><tspan id="tspan236">Mi</tspan></text><circle id="circle238" cx="17.098" cy="15.78" r=".542" style="fill:currentColor;stroke:currentColor;stroke-width:0;stroke-linecap:round;stroke-linejoin:round"/><g id="g240" transform="translate(-3.3458942,-3.1887151)" style="color:#fff"><text id="text242" font-size=".873" font-weight="bold" transform="translate(20.1413,19.297)" style="font-weight:700;font-size:.87330002px;font-family:sans-serif;text-anchor:start;fill:currentColor"><tspan id="tspan244">3</tspan></text></g><rect id="rect246" width=".11" height="3.302" x="13.757" y="12.78" ry=".031" style="fill:currentColor"/><text id="text248" x="11.657" y="21.425" font-size="2.47" style="font-size:2.46950006px;font-family:serif;text-anchor:start;fill:currentColor"><tspan id="tspan250">Re</tspan></text></svg>