<svg xmlns="http://www.w3.org/2000/svg" xmlns:svg="http://www.w3.org/2000/svg" id="svg305" width="207.5" height="34.5" version="1.1"><metadata id="metadata311"/><rect id="backgroundrect" width="100%" height="100%" x="-29.508" y="-53" fill="none" stroke="none"/><g id="svg_2" transform="matrix(1.5,0,0,1.5,270.4918,0)"><path id="svg_3" d="m -179.82787,8.5 v -4 a 4,4 90 0 1 4,-4 h 4 v 2 h 10 v -2 h 50.58106 4 a 4,4 90 0 1 4,4 v 4 h -4 v -3 h -4 v 10 h 4 v -3 h 4 v 4 a 4,4 90 0 1 -4,4 h -4 -50.58106 -1 v 2 h -8 v -2 h -1 -4 a 4,4 90 0 1 -4,-4 v -4 z" style="fill:#c4c4c4;fill-opacity:1;stroke:#a0a0a0;stroke-width:1;stroke-linecap:round;stroke-opacity:1"/><text id="svg_4" x="-180.328" y="0" style="font-size:10px;font-family:sans-serif;text-anchor:end;fill:#282828"><tspan id="svg_5" x="-113.328" y="14">display grid</tspan></text></g><g id="svg_9" transform="matrix(1.5,0,0,1.5,374.4918,0)"><path id="svg_10" d="m -171.82787,0.5 h 60 v 20 h -60 v -8 -1 h -6 v 3 h -2 v -8 h 2 v 3 h 6 v -1 z" style="fill:#c4c4c4;fill-opacity:1;stroke:#a0a0a0;stroke-width:1;stroke-linecap:round;stroke-opacity:1"/><text id="svg_11" x="-180.328" y="0" style="font-size:10px;font-family:sans-serif;text-anchor:start;fill:#282828"><tspan id="svg_12" x="-167.328" y="14">treble</tspan></text></g></svg>