<svg xmlns="http://www.w3.org/2000/svg" xmlns:svg="http://www.w3.org/2000/svg" id="svg12" width="123" height="34.5" version="1.1"><metadata id="metadata18"/><g id="g10" transform="translate(0, 0)"><g id="g8" transform="scale(1.5, 1.5)"><path style="fill:#ff664b;fill-opacity:1;stroke:#ea4326;stroke-width:1;stroke-linecap:round;stroke-opacity:1" id="path2" d="m0.5 8.5 L 0.5 4.5 A 4 4 90 0 1 4.5 0.5 L 8.5 0.5 L 8.5 2.5 L 18.5 2.5 L 18.5 0.5 L 73.5 0.5 L 77.5 0.5 A 4 4 90 0 1 81.5 4.5 L 81.5 8.5 L 81.5 12.5 L 81.5 16.5 A 4 4 90 0 1 77.5 20.5 L 73.5 20.5 L 18.5 20.5 L 17.5 20.5 L 17.5 22.5 L 9.5 22.5 L 9.5 20.5 L 8.5 20.5 L 4.5 20.5 A 4 4 90 0 1 0.5 16.5 L 0.5 12.5 z"/><text style="font-size:10px;font-family:sans-serif;text-anchor:end;fill:#282828" id="text6"><tspan id="tspan4" x="71" y="14">erase media</tspan></text></g></g></svg>