<svg xmlns="http://www.w3.org/2000/svg" xmlns:svg="http://www.w3.org/2000/svg" id="svg1244" width="249.5" height="63.5" version="1.1" viewBox="0 0 66.014 16.801"><metadata id="metadata1241"/><g id="layer1" transform="translate(-118.93966,-73.998289)"><g id="g256" transform="matrix(0.396875,0,0,0.396875,118.93966,73.998289)"><path style="fill:#d98a43;fill-opacity:1;stroke:#b7651a;stroke-width:1;stroke-linecap:round;stroke-opacity:1" id="path242" d="m 8.5,8.5 v -4 a 4,4 90 0 1 4,-4 h 4 10 40.585937 4 a 4,4 90 0 1 4,4 v 4 h -4 v -3 h -4 v 10 h 4 v -3 h 4 v 17 h -4 v -3 h -4 v 10 h 4 v -3 h 4 v 4 a 4,4 90 0 1 -4,4 h -4 H 26.5 h -10 -4 a 4,4 90 0 1 -4,-4 v -4 -21 -1 h -6 v 3 h -2 v -8 h 2 v 3 h 6 z"/><text style="font-size:10px;font-family:sans-serif;text-anchor:end;fill:#282828" id="text246"><tspan id="tspan244" x="65" y="23">get value</tspan></text><text style="font-size:6.66667px;font-family:sans-serif;text-anchor:end;fill:#282828" id="text250"><tspan id="tspan248" x="65" y="12">name</tspan></text><text style="font-size:6.66667px;font-family:sans-serif;text-anchor:end;fill:#282828" id="text254"><tspan id="tspan252" x="65" y="33">key</tspan></text></g><g id="g266" transform="matrix(0.396875,0,0,0.396875,145.66257,73.998289)"><path style="fill:#ff664b;fill-opacity:1;stroke:#ea4326;stroke-width:1;stroke-linecap:round;stroke-opacity:1" id="path260" d="m 8.5,0.5 h 90 v 20 h -90 v -8 -1 h -6 v 3 h -2 v -8 h 2 v 3 h 6 v -1 z"/><text style="font-size:10px;font-family:sans-serif;text-anchor:start;fill:#282828" id="text264"><tspan id="tspan262" x="13" y="14">My Dictionary</tspan></text></g><g id="g276" transform="matrix(0.396875,0,0,0.396875,145.66257,82.464955)"><path style="fill:#ff664b;fill-opacity:1;stroke:#ea4326;stroke-width:1;stroke-linecap:round;stroke-opacity:1" id="path270" d="m 8.5,0.5 h 90 v 20 h -90 v -8 -1 h -6 v 3 h -2 v -8 h 2 v 3 h 6 v -1 z"/><text style="font-size:10px;font-family:sans-serif;text-anchor:start;fill:#282828" id="text274"><tspan id="tspan272" x="13" y="14">key</tspan></text></g></g></svg>