<svg xmlns="http://www.w3.org/2000/svg" xmlns:svg="http://www.w3.org/2000/svg" id="svg969" width="249.5" height="31.5" version="1.1" viewBox="0 0 66.014 8.334"><metadata id="metadata966"/><g id="layer1" transform="translate(-61.487277,-11.707813)"><g id="g62" transform="matrix(0.26458333,0,0,0.26458333,61.487277,11.707813)"><g id="g60" transform="scale(1.5)"><path id="path50" d="m 8.5,8.5 v -4 a 4,4 90 0 1 4,-4 h 4 10 40.585937 4 a 4,4 90 0 1 4,4 v 4 h -4 v -3 h -4 v 10 h 4 v -3 h 4 v 4 a 4,4 90 0 1 -4,4 h -4 H 26.5 h -10 -4 a 4,4 90 0 1 -4,-4 v -4 -1 h -6 v 3 h -2 v -8 h 2 v 3 h 6 z" style="fill:#d98a43;fill-opacity:1;stroke:#b7651a;stroke-width:1;stroke-linecap:round;stroke-opacity:1"/><text id="text54" style="font-size:10px;font-family:sans-serif;text-anchor:end;fill:#282828"><tspan id="tspan52" x="65" y="13">get value</tspan></text></g></g><g id="g72" transform="matrix(0.26458333,0,0,0.26458333,88.210194,11.707813)"><g id="g70" transform="scale(1.5)"><path id="path64" d="m 8.5,0.5 h 90 v 20 h -90 v -8 -1 h -6 v 3 h -2 v -8 h 2 v 3 h 6 v -1 z" style="fill:#ff664b;fill-opacity:1;stroke:#ea4326;stroke-width:1;stroke-linecap:round;stroke-opacity:1"/><text id="text68" style="font-size:10px;font-family:sans-serif;text-anchor:start;fill:#282828"><tspan id="tspan66" x="13" y="14">key</tspan></text></g></g></g></svg>