<svg xmlns="http://www.w3.org/2000/svg" xmlns:svg="http://www.w3.org/2000/svg" id="svg2069" width="273.5" height="66" version="1.1" viewBox="0 0 72.364 17.462"><metadata id="metadata2066"/><g id="layer1" transform="translate(-576.89561,-254.34017)"><g id="g2033" transform="matrix(0.26458333,0,0,0.26458333,442.2227,101.41101)"><g id="g80" transform="translate(634,578)"><g id="g78" transform="scale(1.5)"><path id="path72" d="m 8.5,0.5 h 90 v 20 h -90 v -8 -1 h -6 v 3 h -2 v -8 h 2 v 3 h 6 v -1 z" style="fill:#ff664b;fill-opacity:1;stroke:#ea4326;stroke-width:1;stroke-linecap:round;stroke-opacity:1"/><text id="text76" style="font-size:10px;font-family:sans-serif;text-anchor:start;fill:#282828"><tspan id="tspan74" x="13" y="14">My Dictionary</tspan></text></g></g><g id="g294" transform="translate(509,578)"><g id="g292" transform="scale(1.5)"><path id="path278" d="m 0.5,8.5 v -4 a 4,4 90 0 1 4,-4 h 4 v 2 h 10 v -2 h 64.482422 4 a 4,4 90 0 1 4,4 v 4 h -4 v -3 h -4 v 10 h 4 v -3 h 4 v 17 h -4 v -3 h -4 v 10 h 4 v -3 h 4 v 4 a 4,4 90 0 1 -4,4 h -4 H 18.5 h -1 v 2 h -8 v -2 h -1 -4 a 4,4 90 0 1 -4,-4 v -4 -21 z" style="fill:#c4c4c4;fill-opacity:1;stroke:#a0a0a0;stroke-width:1;stroke-linecap:round;stroke-opacity:1"/><text id="text282" style="font-size:10px;font-family:sans-serif;text-anchor:end;fill:#282828"><tspan id="tspan280" x="81" y="24">load dictionary</tspan></text><text id="text286" style="font-size:6.66667px;font-family:sans-serif;text-anchor:end;fill:#282828"><tspan id="tspan284" x="81" y="12">name</tspan></text><text id="text290" style="font-size:6.66667px;font-family:sans-serif;text-anchor:end;fill:#282828"><tspan id="tspan288" x="81" y="33">file</tspan></text></g></g><g id="g314" transform="translate(634,610)"><g id="g312" transform="scale(1.5)"><path id="path306" d="m 8.5,0.5 h 60 v 20 h -60 v -8 -1 h -6 v 3 h -2 v -8 h 2 v 3 h 6 v -1 z" style="fill:#ff664b;fill-opacity:1;stroke:#ea4326;stroke-width:1;stroke-linecap:round;stroke-opacity:1"/></g></g></g></g></svg>