<svg xmlns="http://www.w3.org/2000/svg" xmlns:svg="http://www.w3.org/2000/svg" id="svg2108" width="247.5" height="31.5" version="1.1"><metadata id="metadata2114"/><g id="g1784"><g id="g1782" transform="scale(1.5)"><path style="fill:#7cd622;fill-opacity:1;stroke:#57ad02;stroke-width:1;stroke-linecap:round;stroke-opacity:1" id="path1772" d="m 8.5,8.5 v -4 a 4,4 90 0 1 4,-4 h 4 10 68.925781 4 a 4,4 90 0 1 3.999999,4 v 4 h -3.999999 v -3 h -4 v 10 h 4 v -3 h 3.999999 v 4 a 4,4 90 0 1 -3.999999,4 h -4 H 26.5 h -10 -4 a 4,4 90 0 1 -4,-4 v -4 -1 h -6 v 3 h -2 v -8 h 2 v 3 h 6 z"/><text style="font-size:10px;font-family:sans-serif;text-anchor:end;fill:#282828" id="text1776"><tspan id="tspan1774" x="93" y="13">number to pitch</tspan></text></g></g><g id="g1794" transform="translate(144)"><g id="g1792" transform="scale(1.5)"><path style="fill:#ff6ea1;fill-opacity:1;stroke:#ff2c76;stroke-width:1;stroke-linecap:round;stroke-opacity:1" id="path1786" d="m 8.5,0.5 h 60 v 20 h -60 v -8 -1 h -6 v 3 h -2 v -8 h 2 v 3 h 6 v -1 z"/><text style="font-size:10px;font-family:sans-serif;text-anchor:start;fill:#282828" id="text1790"><tspan id="tspan1788" x="13" y="14">55</tspan></text></g></g></svg>