<svg xmlns="http://www.w3.org/2000/svg" xmlns:svg="http://www.w3.org/2000/svg" id="svg3010" width="236.5" height="113.343" version="1.1"><metadata id="metadata3016"/><g id="g2984" transform="translate(0,0.42153745)"><g id="g2982" transform="scale(1.5)"><path id="path2976" d="m 0.5,14.5 v -4 a 4,4 90 0 1 4,-4 h 4 l 5,-6 5,6 h 9 84.47266 4 a 4,4 90 0 1 4,4 v 4 4 4 a 4,4 90 0 1 -4,4 h -4 H 27.5 h -1 v 2 h -8 v -2 h -1 -4 a 5,5 90 0 0 -5,5 v 4 4 4 a 5,5 90 0 0 5,5 h 4 v 2 h 10 v -2 h 8 v 6 6 4 a 4,4 90 0 1 -4,4 h -4 -9 l -5,6 -5,-6 h -4 a 4,4 90 0 1 -4,-4 v -4 z" style="fill:#7cd622;fill-opacity:1;stroke:#57ad02;stroke-width:1;stroke-linecap:round;stroke-opacity:1"/><text id="text2980" style="font-size:10px;font-family:sans-serif;text-anchor:start;fill:#282828"><tspan id="tspan2978" x="20" y="22">oscilloscope</tspan></text></g></g><g id="g2998" transform="translate(14,41.421537)"><g id="g2996" transform="scale(1.5)"><path id="path2986" d="m 0.5,8.5 v -4 a 4,4 90 0 1 4,-4 h 4 v 2 h 10 v -2 h 30 4 a 4,4 90 0 1 4,4 v 4 h -4 v -3 h -4 v 10 h 4 v -3 h 4 v 4 a 4,4 90 0 1 -4,4 h -4 -30 -1 v 2 h -8 v -2 h -1 -4 a 4,4 90 0 1 -4,-4 v -4 z" style="fill:#c4c4c4;fill-opacity:1;stroke:#a0a0a0;stroke-width:1;stroke-linecap:round;stroke-opacity:1"/><text id="text2990" style="font-size:10px;font-family:sans-serif;text-anchor:end;fill:#282828"><tspan id="tspan2988" x="46" y="14">print</tspan></text></g></g><g id="g3008" transform="translate(88,41.421537)"><g id="g3006" transform="scale(1.5)"><path id="path3000" d="m 8.5,0.5 h 90 v 20 h -90 v -8 -1 h -6 v 3 h -2 v -8 h 2 v 3 h 6 v -1 z" style="fill:#ff664b;fill-opacity:1;stroke:#ea4326;stroke-width:1;stroke-linecap:round;stroke-opacity:1"/><text id="text3004" style="font-size:10px;font-family:sans-serif;text-anchor:start;fill:#282828"><tspan id="tspan3002" x="13" y="14">start</tspan></text></g></g></svg>