<svg xmlns="http://www.w3.org/2000/svg" xmlns:svg="http://www.w3.org/2000/svg" id="svg1222" width="277.5" height="66" version="1.1" viewBox="0 0 73.422 17.462"><metadata id="metadata1219"/><g id="layer1" transform="translate(-50.223586,-88.030654)"><g id="g1186" transform="matrix(0.26458333,0,0,0.26458333,-82.332662,-39.763094)"><g id="g194" transform="translate(501,483)"><g id="g192" transform="scale(1.5)"><path style="fill:#c4c4c4;fill-opacity:1;stroke:#a0a0a0;stroke-width:1;stroke-linecap:round;stroke-opacity:1" id="path178" d="m 0.5,8.5 v -4 a 4,4 90 0 1 4,-4 h 4 v 2 h 10 v -2 h 66.699219 4 a 4,4 90 0 1 4,4 v 4 h -4 v -3 h -4 v 10 h 4 v -3 h 4 v 17 h -4 v -3 h -4 v 10 h 4 v -3 h 4 v 4 a 4,4 90 0 1 -4,4 h -4 H 18.5 h -1 v 2 h -8 v -2 h -1 -4 a 4,4 90 0 1 -4,-4 v -4 -21 z"/><text style="font-size:10px;font-family:sans-serif;text-anchor:end;fill:#282828" id="text182"><tspan id="tspan180" x="83" y="24">save dictionary</tspan></text><text style="font-size:6.66667px;font-family:sans-serif;text-anchor:end;fill:#282828" id="text186"><tspan id="tspan184" x="83" y="12">name</tspan></text><text style="font-size:6.66667px;font-family:sans-serif;text-anchor:end;fill:#282828" id="text190"><tspan id="tspan188" x="83" y="33">file</tspan></text></g></g><g id="g204" transform="translate(630,483)"><g id="g202" transform="scale(1.5)"><path style="fill:#ff664b;fill-opacity:1;stroke:#ea4326;stroke-width:1;stroke-linecap:round;stroke-opacity:1" id="path196" d="m 8.5,0.5 h 90 v 20 h -90 v -8 -1 h -6 v 3 h -2 v -8 h 2 v 3 h 6 v -1 z"/><text style="font-size:10px;font-family:sans-serif;text-anchor:start;fill:#282828" id="text200"><tspan id="tspan198" x="13" y="14">My Dictionary</tspan></text></g></g><g id="g214" transform="translate(630,515)"><g id="g212" transform="scale(1.5)"><path style="fill:#ff664b;fill-opacity:1;stroke:#ea4326;stroke-width:1;stroke-linecap:round;stroke-opacity:1" id="path206" d="m 8.5,0.5 h 90 v 20 h -90 v -8 -1 h -6 v 3 h -2 v -8 h 2 v 3 h 6 v -1 z"/><text style="font-size:10px;font-family:sans-serif;text-anchor:start;fill:#282828" id="text210"><tspan id="tspan208" x="13" y="14">dictionary.json</tspan></text></g></g></g></g></svg>