<svg xmlns="http://www.w3.org/2000/svg" xmlns:svg="http://www.w3.org/2000/svg" id="svg1199" width="367.211" height="66" version="1.1"><metadata id="metadata1205"/><g id="g1889" transform="translate(-776,-37)"><g id="g1141" transform="translate(893,37)"><g id="g1139" transform="scale(1.5)"><path id="path1133" d="m 8.5,0.5 h 87.807617 v 20 H 8.5 v -8 -1 h -6 v 3 h -2 v -8 h 2 v 3 h 6 v -1 z" style="fill:#92a9ff;fill-opacity:1;stroke:#5370dc;stroke-width:1;stroke-linecap:round;stroke-opacity:1"/><text id="text1137" style="font-size:10px;font-family:sans-serif;text-anchor:start;fill:#282828"><tspan id="tspan1135" x="13" y="14">mouse name</tspan></text></g></g><g id="g1159" transform="translate(776,37)"><g id="g1157" transform="scale(1.5)"><path id="path1143" d="m 0.5,8.5 v -4 a 4,4 90 0 1 4,-4 h 4 v 2 h 10 v -2 h 58.916016 4 a 4,4 90 0 1 4,4 v 4 h -4 v -3 h -4 v 10 h 4 v -3 h 4 v 17 h -4 v -3 h -4 v 10 h 4 v -3 h 4 v 4 a 4,4 90 0 1 -4,4 h -4 H 18.5 h -1 v 2 h -8 v -2 h -1 -4 a 4,4 90 0 1 -4,-4 v -4 -21 z" style="fill:#c4c4c4;fill-opacity:1;stroke:#a0a0a0;stroke-width:1;stroke-linecap:round;stroke-opacity:1"/><text id="text1147" style="font-size:10px;font-family:sans-serif;text-anchor:end;fill:#282828"><tspan id="tspan1145" x="75" y="24">set dictionary</tspan></text><text id="text1151" style="font-size:6.66667px;font-family:sans-serif;text-anchor:end;fill:#282828"><tspan id="tspan1149" x="75" y="12">name</tspan></text><text id="text1155" style="font-size:6.66667px;font-family:sans-serif;text-anchor:end;fill:#282828"><tspan id="tspan1153" x="75" y="33">dictionary</tspan></text></g></g><g id="g1173" transform="translate(893,69)"><g id="g1171" transform="scale(1.5)"><path id="path1161" d="m 8.5,8.5 v -4 a 4,4 90 0 1 4,-4 h 4 10 42.797852 4 a 4,4 90 0 1 4,4 v 4 h -4 v -3 h -4 v 10 h 4 v -3 h 4 v 4 a 4,4 90 0 1 -4,4 h -4 H 26.5 h -10 -4 a 4,4 90 0 1 -4,-4 v -4 -1 h -6 v 3 h -2 v -8 h 2 v 3 h 6 z" style="fill:#d98a43;fill-opacity:1;stroke:#b7651a;stroke-width:1;stroke-linecap:round;stroke-opacity:1"/><text id="text1165" style="font-size:10px;font-family:sans-serif;text-anchor:end;fill:#282828"><tspan id="tspan1163" x="67" y="13">dictionary</tspan></text></g></g><g id="g1183" transform="translate(998,69)"><g id="g1181" transform="scale(1.5)"><path id="path1175" d="m 8.5,0.5 h 87.807617 v 20 H 8.5 v -8 -1 h -6 v 3 h -2 v -8 h 2 v 3 h 6 v -1 z" style="fill:#92a9ff;fill-opacity:1;stroke:#5370dc;stroke-width:1;stroke-linecap:round;stroke-opacity:1"/><text id="text1179" style="font-size:10px;font-family:sans-serif;text-anchor:start;fill:#282828"><tspan id="tspan1177" x="13" y="14">mouse name</tspan></text></g></g></g></svg>