<svg xmlns="http://www.w3.org/2000/svg" xmlns:svg="http://www.w3.org/2000/svg" id="svg1611" width="237.5" height="66" version="1.1" viewBox="0 0 62.839 17.462"><metadata id="metadata1608"/><g id="layer1" transform="translate(23.859747,-24.530655)"><g id="g90" transform="matrix(0.26458333,0,0,0.26458333,-23.859747,24.530655)"><g id="g88" transform="scale(1.5)"><path style="fill:#d98a43;fill-opacity:1;stroke:#b7651a;stroke-width:1;stroke-linecap:round;stroke-opacity:1" id="path74" d="m 0.5,8.5 v -4 a 4,4 90 0 1 4,-4 h 4 v 2 h 10 v -2 h 40.024414 4 a 4,4 90 0 1 4,4 v 4 h -4 v -3 h -4 v 10 h 4 v -3 h 4 v 17 h -4 v -3 h -4 v 10 h 4 v -3 h 4 v 4 a 4,4 90 0 1 -4,4 h -4 H 18.5 h -1 v 2 h -8 v -2 h -1 -4 a 4,4 90 0 1 -4,-4 v -4 -21 z"/><text style="font-size:10px;font-family:sans-serif;text-anchor:end;fill:#282828" id="text78"><tspan id="tspan76" x="56" y="24">set value</tspan></text><text style="font-size:6.66667px;font-family:sans-serif;text-anchor:end;fill:#282828" id="text82"><tspan id="tspan80" x="56" y="12">key</tspan></text><text style="font-size:6.66667px;font-family:sans-serif;text-anchor:end;fill:#282828" id="text86"><tspan id="tspan84" x="56" y="33">value</tspan></text></g></g><g id="g100" transform="matrix(0.26458333,0,0,0.26458333,-0.31182994,24.530655)"><g id="g98" transform="scale(1.5)"><path style="fill:#ff664b;fill-opacity:1;stroke:#ea4326;stroke-width:1;stroke-linecap:round;stroke-opacity:1" id="path92" d="m 8.5,0.5 h 90 v 20 h -90 v -8 -1 h -6 v 3 h -2 v -8 h 2 v 3 h 6 v -1 z"/><text style="font-size:10px;font-family:sans-serif;text-anchor:start;fill:#282828" id="text96"><tspan id="tspan94" x="13" y="14">key</tspan></text></g></g><g id="g110" transform="matrix(0.26458333,0,0,0.26458333,-0.31182994,32.997322)"><g id="g108" transform="scale(1.5)"><path style="fill:#ff6ea1;fill-opacity:1;stroke:#ff2c76;stroke-width:1;stroke-linecap:round;stroke-opacity:1" id="path102" d="m 8.5,0.5 h 60 v 20 h -60 v -8 -1 h -6 v 3 h -2 v -8 h 2 v 3 h 6 v -1 z"/><text style="font-size:10px;font-family:sans-serif;text-anchor:start;fill:#282828" id="text106"><tspan id="tspan104" x="13" y="14">0</tspan></text></g></g></g></svg>