<svg xmlns="http://www.w3.org/2000/svg" xmlns:svg="http://www.w3.org/2000/svg" id="svg26" width="223.5" height="34.5" version="1.1"><metadata id="metadata32"/><g id="g14" transform="translate(-48)"><g id="g12" transform="scale(1.5)"><path id="path2" d="m 32.5,8.5 v -4 c 0,-2.209139 1.790861,-4 4,-4 h 4 v 2 h 10 v -2 h 61 4 c 2.20914,0 4,1.790861 4,4 v 4 h -4 v -3 h -4 v 10 h 4 v -3 h 4 v 4 c 0,2.209139 -1.79086,4 -4,4 h -4 -61 -1 v 2 h -8 v -2 h -1 -4 c -2.209139,0 -3.301409,-1.904227 -4,-4 v -4 z" style="fill:#3edcdd;fill-opacity:1;stroke:#1dbcbd;stroke-width:1;stroke-linecap:round;stroke-opacity:1"/><text id="text6" style="font-size:10px;font-family:sans-serif;text-anchor:end;fill:#282828"><tspan id="tspan4" x="109" y="14">set panning</tspan></text></g></g><g id="g24" transform="translate(120)"><g id="g22" transform="scale(1.5)"><path id="path16" d="m 8.5,0.5 h 60 v 20 h -60 v -8 -1 h -6 v 3 h -2 v -8 h 2 v 3 h 6 v -1 z" style="fill:#ff6ea1;fill-opacity:1;stroke:#ff2c76;stroke-width:1;stroke-linecap:round;stroke-opacity:1"/><text id="text20" style="font-size:10px;font-family:sans-serif;text-anchor:start;fill:#282828"><tspan id="tspan18" x="13" y="14">50</tspan></text></g></g><g id="g919" transform="translate(-48)"><g id="g917" transform="scale(1.5)"><path id="path907" d="m 32.5,8.5 v -4 c 0,-2.209139 1.790861,-4 4,-4 h 4 v 2 h 10 v -2 h 61 4 c 2.20914,0 4,1.790861 4,4 v 4 h -4 v -3 h -4 v 10 h 4 v -3 h 4 v 4 c 0,2.209139 -1.79086,4 -4,4 h -4 -61 -1 v 2 h -8 v -2 h -1 -4 c -2.209139,0 -3.301409,-1.904227 -4,-4 v -4 z" style="fill:#3edcdd;fill-opacity:1;stroke:#1dbcbd;stroke-width:1;stroke-linecap:round;stroke-opacity:1"/><text id="text911" style="font-size:10px;font-family:sans-serif;text-anchor:end;fill:#282828"><tspan id="tspan909" x="109" y="14">set panning</tspan></text></g></g><g id="g929" transform="translate(120)"><g id="g927" transform="scale(1.5)"><path id="path921" d="m 8.5,0.5 h 60 v 20 h -60 v -8 -1 h -6 v 3 h -2 v -8 h 2 v 3 h 6 v -1 z" style="fill:#ff6ea1;fill-opacity:1;stroke:#ff2c76;stroke-width:1;stroke-linecap:round;stroke-opacity:1"/><text id="text925" style="font-size:10px;font-family:sans-serif;text-anchor:start;fill:#282828"><tspan id="tspan923" x="13" y="14">50</tspan></text></g></g></svg>