<svg xmlns="http://www.w3.org/2000/svg" xmlns:svg="http://www.w3.org/2000/svg" id="svg2662" width="280.5" height="34.5" version="1.1" viewBox="0 0 74.216 9.128"><metadata id="metadata2659"/><g id="layer1" transform="translate(238.19115,36.314062)"><g id="g344" transform="matrix(0.26458333,0,0,0.26458333,-238.19115,-36.314062)"><g id="g342" transform="scale(1.5)"><path id="path332" d="m 0.5,8.5 v -4 a 4,4 90 0 1 4,-4 h 4 v 2 h 10 v -2 h 68.920898 4 a 4,4 90 0 1 4,4 v 4 h -4 v -3 h -4 v 10 h 4 v -3 h 4 v 4 a 4,4 90 0 1 -4,4 h -4 H 18.5 h -1 v 2 h -8 v -2 h -1 -4 a 4,4 90 0 1 -4,-4 v -4 z" style="fill:#d98a43;fill-opacity:1;stroke:#b7651a;stroke-width:1;stroke-linecap:round;stroke-opacity:1"/><text id="text336" style="font-size:10px;font-family:sans-serif;text-anchor:end;fill:#282828"><tspan id="tspan334" x="85" y="14">show dictionary</tspan></text></g></g><g id="g354" transform="matrix(0.26458333,0,0,0.26458333,-203.26615,-36.314062)"><g id="g352" transform="scale(1.5)"><path id="path346" d="m 8.5,0.5 h 90 v 20 h -90 v -8 -1 h -6 v 3 h -2 v -8 h 2 v 3 h 6 v -1 z" style="fill:#ff664b;fill-opacity:1;stroke:#ea4326;stroke-width:1;stroke-linecap:round;stroke-opacity:1"/><text id="text350" style="font-size:10px;font-family:sans-serif;text-anchor:start;fill:#282828"><tspan id="tspan348" x="13" y="14">My Dictionary</tspan></text></g></g></g></svg>