<svg xmlns="http://www.w3.org/2000/svg" xmlns:svg="http://www.w3.org/2000/svg" id="svg1684" width="319.5" height="97.5" version="1.1"><metadata id="metadata1690"/><g id="g1652"><g id="g1650" transform="scale(1.5)"><path id="path1632" d="m 0.5,8.5 v -4 a 4,4 90 0 1 4,-4 h 4 v 2 h 10 v -2 h 75.03418 4 a 4,4 90 0 1 4,4 v 4 h -4 v -3 h -4 v 10 h 4 v -3 h 4 v 17 h -4 v -3 h -4 v 10 h 4 v -3 h 4 v 17 h -4 v -3 h -4 v 10 h 4 v -3 h 4 v 4 a 4,4 90 0 1 -4,4 h -4 H 18.5 h -1 v 2 h -8 v -2 h -1 -4 a 4,4 90 0 1 -4,-4 v -4 -42 z" style="fill:#7cd622;fill-opacity:1;stroke:#57ad02;stroke-width:1;stroke-linecap:round;stroke-opacity:1"/><text id="text1636" style="font-size:10px;font-family:sans-serif;text-anchor:end;fill:#282828"><tspan id="tspan1634" x="91" y="21">set temperament</tspan></text><text id="text1640" style="font-size:6.66667px;font-family:sans-serif;text-anchor:end;fill:#282828"><tspan id="tspan1638" x="91" y="12">temperament</tspan></text><text id="text1644" style="font-size:6.66667px;font-family:sans-serif;text-anchor:end;fill:#282828"><tspan id="tspan1642" x="91" y="33">pitch</tspan></text><text id="text1648" style="font-size:6.66667px;font-family:sans-serif;text-anchor:end;fill:#282828"><tspan id="tspan1646" x="91" y="54">octave</tspan></text></g></g><g id="g1662" transform="translate(141)"><g id="g1660" transform="scale(1.5)"><path id="path1654" d="m 8.5,0.5 h 110 v 20 H 8.5 v -8 -1 h -6 v 3 h -2 v -8 h 2 v 3 h 6 v -1 z" style="fill:#3edcdd;fill-opacity:1;stroke:#1dbcbd;stroke-width:1;stroke-linecap:round;stroke-opacity:1"/><text id="text1658" style="font-size:10px;font-family:sans-serif;text-anchor:start;fill:#282828"><tspan id="tspan1656" x="13" y="14">custom</tspan></text></g></g><g id="g1672" transform="translate(141,32)"><g id="g1670" transform="scale(1.5)"><path id="path1664" d="m 8.5,0.5 h 60 v 20 h -60 v -8 -1 h -6 v 3 h -2 v -8 h 2 v 3 h 6 v -1 z" style="fill:#7cd622;fill-opacity:1;stroke:#57ad02;stroke-width:1;stroke-linecap:round;stroke-opacity:1"/><text id="text1668" style="font-size:10px;font-family:sans-serif;text-anchor:start;fill:#282828"><tspan id="tspan1666" x="13" y="14">C</tspan></text></g></g><g id="g1682" transform="translate(141,63)"><g id="g1680" transform="scale(1.5)"><path id="path1674" d="m 8.5,0.5 h 60 v 20 h -60 v -8 -1 h -6 v 3 h -2 v -8 h 2 v 3 h 6 v -1 z" style="fill:#ff6ea1;fill-opacity:1;stroke:#ff2c76;stroke-width:1;stroke-linecap:round;stroke-opacity:1"/><text id="text1678" style="font-size:10px;font-family:sans-serif;text-anchor:start;fill:#282828"><tspan id="tspan1676" x="13" y="14">4</tspan></text></g></g></svg>