<svg xmlns="http://www.w3.org/2000/svg" xmlns:svg="http://www.w3.org/2000/svg" id="svg948" width="208.5" height="36.5" version="1.1"><metadata id="metadata954"/><g id="g926" transform="translate(2.2224127,3.4110635)"><g id="g924" transform="scale(1.5)"><path id="path914" d="m 8.5,8.5 v -4 a 4,4 90 0 1 4,-4 h 4 10 40.019531 4 a 4,4 90 0 1 4,4 v 4 h -4 v -3 h -4 v 10 h 4 v -3 h 4 v 4 a 4,4 90 0 1 -4,4 h -4 H 26.5 h -10 -4 a 4,4 90 0 1 -4,-4 v -4 -1 h -6 v 3 h -2 v -8 h 2 v 3 h 6 z" style="fill:#7cd622;fill-opacity:1;stroke:#57ad02;stroke-width:1;stroke-linecap:round;stroke-opacity:1"/><text id="text918" style="font-size:10px;font-family:sans-serif;text-anchor:end;fill:#282828"><tspan id="tspan916" x="64" y="13">y to pitch</tspan></text></g></g><g id="g936" transform="translate(103.22241,3.4110635)"><g id="g934" transform="scale(1.5)"><path id="path928" d="m 8.5,0.5 h 60 v 20 h -60 v -8 -1 h -6 v 3 h -2 v -8 h 2 v 3 h 6 v -1 z" style="fill:#ff6ea1;fill-opacity:1;stroke:#ff2c76;stroke-width:1;stroke-linecap:round;stroke-opacity:1"/><text id="text932" style="font-size:10px;font-family:sans-serif;text-anchor:start;fill:#282828"><tspan id="tspan930" x="13" y="14">50</tspan></text></g></g></svg>